{
DisplayStrings = (
b,

glyphs = (
{
glyphname = A;
lastChange = "2015-11-08 02:29:03 +0000";
layers = (
{
anchors = (
{
name = ogonek;
position = "{599, 0}";
},
{
name = top;
position = "{446, 740}";
}
);
layerId = "284DCAF7-AB20-402F-AEDF-E1CEEB9773D4";
name = "Regular Italic";
paths = (
{
closed = 1;
nodes = (
"62 0 LINE",
"210 271 LINE",
"234 315 LINE",
"462 716 LINE",
"428 717 LINE",
"472 315 LINE",
"477 271 LINE",
"507 0 LINE",
"599 0 LINE",
"505 740 LINE",
"390 740 LINE",
"-35 0 LINE"
);
},
{
closed = 1;
nodes = (
"494 242 LINE",
"487 320 LINE",
"211 320 LINE",
"169 242 LINE"
);
}
);
width = 681;
},
{
anchors = (
{
name = ogonek;
position = "{621, 0}";
},
{
name = top;
position = "{481, 740}";
}
);
layerId = "005AA5DB-9C20-42D5-964E-7DFE1013E61C";
name = "Bold Italic";
paths = (
{
closed = 1;
nodes = (
"152 0 LINE",
"285 253 LINE",
"302 297 LINE",
"517 716 LINE",
"447 717 LINE",
"474 297 LINE",
"474 253 LINE",
"493 0 LINE",
"693 0 LINE",
"613 740 LINE",
"367 740 LINE",
"-46 0 LINE"
);
},
{
closed = 1;
nodes = (
"537 199 LINE",
"521 335 LINE",
"273 335 LINE",
"199 199 LINE"
);
}
);
width = 763;
},
{
anchors = (
{
name = ogonek;
position = "{546, 0}";
},
{
name = top;
position = "{427, 740}";
}
);
layerId = "D0F50BF8-B137-4291-8B58-E185C78D1B48";
name = "Light Italic";
paths = (
{
closed = 1;
nodes = (
"-1 0 LINE",
"171 290 LINE",
"180 305 LINE",
"427 721 LINE",
"420 721 LINE",
"479 305 LINE",
"481 289 LINE",
"521 0 LINE",
"546 0 LINE",
"439 740 LINE",
"414 740 LINE",
"-29 0 LINE"
);
},
{
closed = 1;
nodes = (
"487 287 LINE",
"483 310 LINE",
"168 310 LINE",
"153 287 LINE"
);
}
);
width = 635;
}
);
leftKerningGroup = A;
rightKerningGroup = A;
unicode = 0041;
},
{
glyphname = AE;
lastChange = "2015-07-01 16:08:01 +0000";
layers = (
{
components = (
{
name = E;
transform = "{1, 0, 0, 1, 378, 0}";
}
);
layerId = "D0F50BF8-B137-4291-8B58-E185C78D1B48";
rightMetricsKey = "=E";
name = "Light Italic";
paths = (
{
closed = 1;
nodes = (
"-37 0 LINE",
"577 717 LINE",
"598 717 LINE",
"603 740 LINE",
"567 740 LINE",
"-69 0 LINE"
);
},
{
closed = 1;
nodes = (
"509 287 LINE",
"514 310 LINE",
"224 310 LINE",
"204 287 LINE"
);
}
);
width = 890;
},
{
components = (
{
name = E;
transform = "{1, 0, 0, 1, 379, 0}";
}
);
layerId = "284DCAF7-AB20-402F-AEDF-E1CEEB9773D4";
rightMetricsKey = "=E";
name = "Regular Italic";
paths = (
{
closed = 1;
nodes = (
"34 0 LINE",
"546 666 LINE",
"578 666 LINE",
"593 740 LINE",
"509 740 LINE",
"-65 0 LINE"
);
},
{
closed = 1;
nodes = (
"482 242 LINE",
"499 320 LINE",
"275 320 LINE",
"214 242 LINE"
);
}
);
width = 926;
},
{
components = (
{
name = E;
transform = "{1, 0, 0, 1, 419, 0}";
}
);
layerId = "005AA5DB-9C20-42D5-964E-7DFE1013E61C";
rightMetricsKey = "=E";
name = "Bold Italic";
paths = (
{
closed = 1;
nodes = (
"95 0 LINE",
"549 604 LINE",
"631 604 LINE",
"660 740 LINE",
"482 740 LINE",
"-97 0 LINE"
);
},
{
closed = 1;
nodes = (
"490 179 LINE",
"519 315 LINE",
"318 315 LINE",
"215 179 LINE"
);
}
);
width = 1024;
}
);
leftKerningGroup = A;
rightKerningGroup = E;
rightMetricsKey = E;
unicode = 00C6;
},
{
glyphname = B;
lastChange = "2015-10-31 11:26:45 +0000";
layers = (
{
components = (
{
name = _part.basecapstem01;
transform = "{1, 0, 0, 1, 82, 0}";
}
);
layerId = "284DCAF7-AB20-402F-AEDF-E1CEEB9773D4";
leftMetricsKey = "=H";
name = "Regular Italic";
paths = (
{
closed = 1;
nodes = (
"173 0 LINE SMOOTH",
"214 0 OFFCURVE",
"252 1 OFFCURVE",
"284 4 CURVE SMOOTH",
"426 17 OFFCURVE",
"549 85 OFFCURVE",
"549 237 CURVE SMOOTH",
"549 331 OFFCURVE",
"484 392 OFFCURVE",
"384 395 CURVE",
"401 381 LINE",
"495 405 OFFCURVE",
"580 487 OFFCURVE",
"580 581 CURVE SMOOTH",
"580 672 OFFCURVE",
"527 728 OFFCURVE",
"432 736 CURVE SMOOTH",
"402 739 OFFCURVE",
"372 740 OFFCURVE",
"340 740 CURVE SMOOTH",
"258 740 LINE",
"242 662 LINE",
"362 662 LINE SMOOTH",
"447 662 OFFCURVE",
"484 627 OFFCURVE",
"484 559 CURVE SMOOTH",
"484 486 OFFCURVE",
"414 419 OFFCURVE",
"359 419 CURVE SMOOTH",
"190 419 LINE",
"173 341 LINE",
"348 341 LINE SMOOTH",
"425 341 OFFCURVE",
"457 295 OFFCURVE",
"457 236 CURVE SMOOTH",
"457 130 OFFCURVE",
"386 78 OFFCURVE",
"246 78 CURVE SMOOTH",
"118 78 LINE",
"101 0 LINE"
);
}
);
width = 619;
},
{
components = (
{
name = _part.basecapstem01;
transform = "{1, 0, 0, 1, 64, 0}";
}
);
layerId = "005AA5DB-9C20-42D5-964E-7DFE1013E61C";
leftMetricsKey = "=H";
name = "Bold Italic";
paths = (
{
closed = 1;
nodes = (
"245 0 LINE SMOOTH",
"286 0 OFFCURVE",
"324 2 OFFCURVE",
"356 5 CURVE SMOOTH",
"483 17 OFFCURVE",
"623 86 OFFCURVE",
"623 249 CURVE SMOOTH",
"623 333 OFFCURVE",
"570 393 OFFCURVE",
"448 405 CURVE",
"465 391 LINE",
"592 412 OFFCURVE",
"652 501 OFFCURVE",
"652 593 CURVE SMOOTH",
"652 674 OFFCURVE",
"583 731 OFFCURVE",
"488 738 CURVE SMOOTH",
"458 740 OFFCURVE",
"428 740 OFFCURVE",
"396 740 CURVE SMOOTH",
"334 740 LINE",
"305 604 LINE",
"369 604 LINE SMOOTH",
"426 604 OFFCURVE",
"458 589 OFFCURVE",
"458 547 CURVE SMOOTH",
"458 502 OFFCURVE",
"432 448 OFFCURVE",
"396 448 CURVE SMOOTH",
"272 448 LINE",
"243 312 LINE",
"352 312 LINE SMOOTH",
"414 312 OFFCURVE",
"437 281 OFFCURVE",
"437 242 CURVE SMOOTH",
"437 164 OFFCURVE",
"372 136 OFFCURVE",
"308 136 CURVE SMOOTH",
"206 136 LINE",
"177 0 LINE"
);
}
);
width = 651;
},
{
components = (
{
name = _part.basecapstem01;
transform = "{1, 0, 0, 1, 98, 0}";
}
);
layerId = "D0F50BF8-B137-4291-8B58-E185C78D1B48";
leftMetricsKey = "=H";
name = "Light Italic";
paths = (
{
closed = 1;
nodes = (
"156 0 LINE SMOOTH",
"197 0 OFFCURVE",
"235 2 OFFCURVE",
"267 5 CURVE SMOOTH",
"397 17 OFFCURVE",
"500 98 OFFCURVE",
"500 232 CURVE SMOOTH",
"500 322 OFFCURVE",
"439 385 OFFCURVE",
"335 385 CURVE",
"356 378 LINE",
"436 394 OFFCURVE",
"532 482 OFFCURVE",
"532 596 CURVE SMOOTH",
"532 683 OFFCURVE",
"472 733 OFFCURVE",
"379 739 CURVE SMOOTH",
"349 741 OFFCURVE",
"319 740 OFFCURVE",
"287 740 CURVE SMOOTH",
"218 740 LINE",
"213 717 LINE",
"344 717 LINE SMOOTH",
"450 717 OFFCURVE",
"506 676 OFFCURVE",
"506 596 CURVE SMOOTH",
"506 474 OFFCURVE",
"393 392 OFFCURVE",
"324 392 CURVE SMOOTH",
"144 392 LINE",
"139 369 LINE",
"309 369 LINE SMOOTH",
"417 369 OFFCURVE",
"474 315 OFFCURVE",
"474 232 CURVE SMOOTH",
"474 117 OFFCURVE",
"398 23 OFFCURVE",
"204 23 CURVE SMOOTH",
"66 23 LINE",
"61 0 LINE"
);
}
);
width = 571;
}
);
leftKerningGroup = H;
leftMetricsKey = H;
rightKerningGroup = B;
unicode = 0042;
},
{
glyphname = C;
lastChange = "2015-11-08 02:28:58 +0000";
layers = (
{
anchors = (
{
name = bottom;
position = "{356, 0}";
},
{
name = top;
position = "{473, 740}";
}
);
layerId = "284DCAF7-AB20-402F-AEDF-E1CEEB9773D4";
name = "Regular Italic";
paths = (
{
closed = 1;
nodes = (
"435 -14 OFFCURVE",
"512 3 OFFCURVE",
"586 44 CURVE",
"565 113 LINE",
"504 79 OFFCURVE",
"449 66 OFFCURVE",
"371 66 CURVE SMOOTH",
"256 66 OFFCURVE",
"162 140 OFFCURVE",
"162 288 CURVE SMOOTH",
"162 505 OFFCURVE",
"318 674 OFFCURVE",
"497 674 CURVE SMOOTH",
"575 674 OFFCURVE",
"630 662 OFFCURVE",
"673 639 CURVE",
"714 706 LINE",
"666 737 OFFCURVE",
"593 754 OFFCURVE",
"514 754 CURVE SMOOTH",
"250 754 OFFCURVE",
"68 542 OFFCURVE",
"68 280 CURVE SMOOTH",
"68 83 OFFCURVE",
"178 -14 OFFCURVE",
"350 -14 CURVE SMOOTH"
);
}
);
width = 680;
},
{
anchors = (
{
name = bottom;
position = "{361, 0}";
},
{
name = top;
position = "{491, 740}";
}
);
layerId = "005AA5DB-9C20-42D5-964E-7DFE1013E61C";
leftMetricsKey = "=O";
name = "Bold Italic";
paths = (
{
closed = 1;
nodes = (
"441 -14 OFFCURVE",
"525 0 OFFCURVE",
"622 49 CURVE",
"608 169 LINE",
"541 136 OFFCURVE",
"482 126 OFFCURVE",
"414 126 CURVE SMOOTH",
"293 126 OFFCURVE",
"236 206 OFFCURVE",
"236 321 CURVE SMOOTH",
"236 483 OFFCURVE",
"344 614 OFFCURVE",
"498 614 CURVE SMOOTH",
"576 614 OFFCURVE",
"631 599 OFFCURVE",
"690 572 CURVE",
"754 690 LINE",
"696 731 OFFCURVE",
"613 754 OFFCURVE",
"497 754 CURVE SMOOTH",
"268 754 OFFCURVE",
"46 587 OFFCURVE",
"46 277 CURVE SMOOTH",
"46 86 OFFCURVE",
"171 -14 OFFCURVE",
"347 -14 CURVE SMOOTH"
);
}
);
width = 687;
},
{
anchors = (
{
name = bottom;
position = "{312, 0}";
},
{
name = top;
position = "{489, 740}";
}
);
layerId = "D0F50BF8-B137-4291-8B58-E185C78D1B48";
leftMetricsKey = "=O";
name = "Light Italic";
paths = (
{
closed = 1;
nodes = (
"418 -14 OFFCURVE",
"493 13 OFFCURVE",
"557 52 CURVE",
"549 70 LINE",
"476 28 OFFCURVE",
"413 9 OFFCURVE",
"336 9 CURVE SMOOTH",
"197 9 OFFCURVE",
"101 94 OFFCURVE",
"101 269 CURVE SMOOTH",
"101 537 OFFCURVE",
"294 731 OFFCURVE",
"499 731 CURVE SMOOTH",
"582 731 OFFCURVE",
"637 719 OFFCURVE",
"677 699 CURVE",
"689 717 LINE",
"647 741 OFFCURVE",
"593 754 OFFCURVE",
"504 754 CURVE SMOOTH",
"265 754 OFFCURVE",
"75 538 OFFCURVE",
"75 269 CURVE SMOOTH",
"75 77 OFFCURVE",
"179 -14 OFFCURVE",
"332 -14 CURVE SMOOTH"
);
}
);
width = 650;
}
);
leftKerningGroup = O;
leftMetricsKey = O;
rightKerningGroup = C;
unicode = 0043;
},
{
glyphname = D;
lastChange = "2015-11-08 02:28:55 +0000";
layers = (
{
anchors = (
{
name = center;
position = "{190, 360}";
},
{
name = top;
position = "{422, 740}";
}
);
components = (
{
name = _part.basecapstem01;
transform = "{1, 0, 0, 1, 82, 0}";
}
);
layerId = "284DCAF7-AB20-402F-AEDF-E1CEEB9773D4";
leftMetricsKey = "=H";
rightMetricsKey = "=O";
name = "Regular Italic";
paths = (
{
closed = 1;
nodes = (
"226 0 LINE SMOOTH",
"264 0 OFFCURVE",
"303 3 OFFCURVE",
"340 8 CURVE SMOOTH",
"529 35 OFFCURVE",
"706 195 OFFCURVE",
"706 454 CURVE SMOOTH",
"706 620 OFFCURVE",
"616 711 OFFCURVE",
"468 733 CURVE SMOOTH",
"432 738 OFFCURVE",
"402 740 OFFCURVE",
"356 740 CURVE SMOOTH",
"247 740 LINE",
"230 662 LINE",
"363 662 LINE SMOOTH",
"529 662 OFFCURVE",
"612 585 OFFCURVE",
"612 450 CURVE SMOOTH",
"612 221 OFFCURVE",
"467 78 OFFCURVE",
"250 78 CURVE SMOOTH",
"118 78 LINE",
"101 0 LINE"
);
}
);
width = 729;
},
{
anchors = (
{
name = center;
position = "{208, 360}";
},
{
name = top;
position = "{473, 740}";
}
);
components = (
{
name = _part.basecapstem01;
transform = "{1, 0, 0, 1, 64, 0}";
}
);
layerId = "005AA5DB-9C20-42D5-964E-7DFE1013E61C";
leftMetricsKey = "=H";
rightMetricsKey = "=O";
name = "Bold Italic";
paths = (
{
closed = 1;
nodes = (
"288 0 LINE SMOOTH",
"331 0 OFFCURVE",
"382 3 OFFCURVE",
"420 9 CURVE SMOOTH",
"608 39 OFFCURVE",
"780 192 OFFCURVE",
"780 448 CURVE SMOOTH",
"780 618 OFFCURVE",
"669 716 OFFCURVE",
"535 735 CURVE SMOOTH",
"505 739 OFFCURVE",
"463 740 OFFCURVE",
"427 740 CURVE SMOOTH",
"295 740 LINE",
"262 604 LINE",
"410 604 LINE SMOOTH",
"525 604 OFFCURVE",
"588 538 OFFCURVE",
"588 425 CURVE SMOOTH",
"588 251 OFFCURVE",
"474 136 OFFCURVE",
"328 136 CURVE SMOOTH",
"174 136 LINE",
"144 0 LINE"
);
}
);
width = 781;
},
{
anchors = (
{
name = center;
position = "{180, 360}";
},
{
name = top;
position = "{404, 740}";
}
);
components = (
{
name = _part.basecapstem01;
transform = "{1, 0, 0, 1, 98, 0}";
}
);
layerId = "D0F50BF8-B137-4291-8B58-E185C78D1B48";
leftMetricsKey = "=H";
rightMetricsKey = "=O";
name = "Light Italic";
paths = (
{
closed = 1;
nodes = (
"173 0 LINE SMOOTH",
"216 0 OFFCURVE",
"267 3 OFFCURVE",
"305 10 CURVE SMOOTH",
"491 44 OFFCURVE",
"676 201 OFFCURVE",
"676 464 CURVE SMOOTH",
"676 629 OFFCURVE",
"585 716 OFFCURVE",
"452 735 CURVE SMOOTH",
"422 739 OFFCURVE",
"380 740 OFFCURVE",
"344 740 CURVE SMOOTH",
"216 740 LINE",
"212 717 LINE",
"372 717 LINE SMOOTH",
"547 717 OFFCURVE",
"650 637 OFFCURVE",
"650 461 CURVE SMOOTH",
"650 185 OFFCURVE",
"442 23 OFFCURVE",
"205 23 CURVE SMOOTH",
"63 23 LINE",
"59 0 LINE"
);
}
);
width = 706;
}
);
leftKerningGroup = H;
leftMetricsKey = H;
rightKerningGroup = O;
rightMetricsKey = O;
unicode = 0044;
},
{
glyphname = G;
lastChange = "2015-11-08 02:28:43 +0000";
layers = (
{
anchors = (
{
name = bottom;
position = "{334, 0}";
},
{
name = top;
position = "{479, 740}";
}
);
layerId = "284DCAF7-AB20-402F-AEDF-E1CEEB9773D4";
leftMetricsKey = "=O";
name = "Regular Italic";
paths = (
{
closed = 1;
nodes = (
"434 -14 OFFCURVE",
"499 2 OFFCURVE",
"572 33 CURVE",
"640 352 LINE",
"550 352 LINE",
"486 49 LINE",
"522 102 LINE",
"461 73 OFFCURVE",
"422 66 OFFCURVE",
"370 66 CURVE SMOOTH",
"249 66 OFFCURVE",
"161 136 OFFCURVE",
"161 288 CURVE SMOOTH",
"161 505 OFFCURVE",
"311 674 OFFCURVE",
"496 674 CURVE SMOOTH",
"574 674 OFFCURVE",
"629 662 OFFCURVE",
"672 639 CURVE",
"713 706 LINE",
"665 737 OFFCURVE",
"592 754 OFFCURVE",
"513 754 CURVE SMOOTH",
"256 754 OFFCURVE",
"67 542 OFFCURVE",
"67 280 CURVE SMOOTH",
"67 83 OFFCURVE",
"177 -14 OFFCURVE",
"349 -14 CURVE SMOOTH"
);
}
);
width = 695;
},
{
anchors = (
{
name = bottom;
position = "{352, 0}";
},
{
name = top;
position = "{483, 740}";
}
);
layerId = "005AA5DB-9C20-42D5-964E-7DFE1013E61C";
leftMetricsKey = "=O";
name = "Bold Italic";
paths = (
{
closed = 1;
nodes = (
"439 -14 OFFCURVE",
"519 -3 OFFCURVE",
"620 24 CURVE",
"694 372 LINE",
"510 372 LINE",
"439 42 LINE",
"502 147 LINE",
"448 129 OFFCURVE",
"429 126 OFFCURVE",
"394 126 CURVE SMOOTH",
"288 126 OFFCURVE",
"235 182 OFFCURVE",
"235 312 CURVE SMOOTH",
"235 471 OFFCURVE",
"341 614 OFFCURVE",
"507 614 CURVE SMOOTH",
"600 614 OFFCURVE",
"655 599 OFFCURVE",
"706 568 CURVE",
"770 690 LINE",
"713 731 OFFCURVE",
"622 754 OFFCURVE",
"516 754 CURVE SMOOTH",
"257 754 OFFCURVE",
"45 572 OFFCURVE",
"45 274 CURVE SMOOTH",
"45 80 OFFCURVE",
"170 -14 OFFCURVE",
"357 -14 CURVE SMOOTH"
);
}
);
width = 726;
},
{
anchors = (
{
name = bottom;
position = "{303, 0}";
},
{
name = top;
position = "{456, 740}";
}
);
layerId = "D0F50BF8-B137-4291-8B58-E185C78D1B48";
leftMetricsKey = "=O";
name = "Light Italic";
paths = (
{
closed = 1;
nodes = (
"407 -14 OFFCURVE",
"493 5 OFFCURVE",
"545 34 CURVE",
"613 355 LINE",
"589 355 LINE",
"521 34 LINE",
"537 56 LINE",
"477 23 OFFCURVE",
"408 9 OFFCURVE",
"331 9 CURVE SMOOTH",
"214 9 OFFCURVE",
"102 66 OFFCURVE",
"102 265 CURVE SMOOTH",
"102 576 OFFCURVE",
"295 731 OFFCURVE",
"500 731 CURVE SMOOTH",
"583 731 OFFCURVE",
"625 723 OFFCURVE",
"672 701 CURVE",
"684 719 LINE",
"644 741 OFFCURVE",
"591 754 OFFCURVE",
"505 754 CURVE SMOOTH",
"270 754 OFFCURVE",
"77 573 OFFCURVE",
"77 260 CURVE SMOOTH",
"77 62 OFFCURVE",
"189 -14 OFFCURVE",
"325 -14 CURVE SMOOTH"
);
}
);
width = 682;
}
);
leftKerningGroup = O;
leftMetricsKey = O;
rightKerningGroup = G;
unicode = 0047;
},
{
glyphname = H;
lastChange = "2015-11-08 02:28:38 +0000";
layers = (
{
anchors = (
{
name = top;
position = "{465, 740}";
}
);
components = (
{
name = _part.basecapstem01;
transform = "{1, 0, 0, 1, 82, 0}";
},
{
name = _part.basecapstem01;
transform = "{1, 0, 0, 1, 572, 0}";
}
);
layerId = "284DCAF7-AB20-402F-AEDF-E1CEEB9773D4";
name = "Regular Italic";
paths = (
{
closed = 1;
nodes = (
"604 336 LINE",
"620 410 LINE",
"188 410 LINE",
"172 336 LINE"
);
}
);
width = 744;
},
{
anchors = (
{
name = top;
position = "{496, 740}";
}
);
components = (
{
name = _part.basecapstem01;
transform = "{1, 0, 0, 1, 64, 0}";
},
{
name = _part.basecapstem01;
transform = "{1, 0, 0, 1, 554, 0}";
}
);
layerId = "005AA5DB-9C20-42D5-964E-7DFE1013E61C";
name = "Bold Italic";
paths = (
{
closed = 1;
nodes = (
"623 305 LINE",
"652 441 LINE",
"254 441 LINE",
"225 305 LINE"
);
}
);
width = 802;
},
{
anchors = (
{
name = top;
position = "{452, 740}";
}
);
components = (
{
name = _part.basecapstem01;
transform = "{1, 0, 0, 1, 98, 0}";
},
{
name = _part.basecapstem01;
transform = "{1, 0, 0, 1, 588, 0}";
}
);
layerId = "D0F50BF8-B137-4291-8B58-E185C78D1B48";
name = "Light Italic";
paths = (
{
closed = 1;
nodes = (
"619 362 LINE",
"624 385 LINE",
"146 385 LINE",
"141 362 LINE"
);
}
);
width = 710;
}
);
leftKerningGroup = H;
rightKerningGroup = H;
unicode = 0048;
},
{
glyphname = Hbar;
lastChange = "2015-07-01 16:19:30 +0000";
layers = (
{
components = (
{
name = H;
}
);
layerId = "D0F50BF8-B137-4291-8B58-E185C78D1B48";
name = "Light Italic";
paths = (
{
closed = 1;
nodes = (
"731 555 LINE",
"736 577 LINE",
"109 577 LINE",
"104 555 LINE"
);
}
);
width = 710;
},
{
components = (
{
name = H;
transform = "{1, 0, 0, 1, -7, 0}";
}
);
layerId = "284DCAF7-AB20-402F-AEDF-E1CEEB9773D4";
name = "Regular Italic";
paths = (
{
closed = 1;
nodes = (
"753 533 LINE",
"768 603 LINE",
"108 603 LINE",
"93 533 LINE"
);
}
);
width = 730;
},
{
components = (
{
name = H;
transform = "{1, 0, 0, 1, 4, 0}";
}
);
layerId = "005AA5DB-9C20-42D5-964E-7DFE1013E61C";
name = "Bold Italic";
paths = (
{
closed = 1;
nodes = (
"841 508 LINE",
"868 634 LINE",
"100 634 LINE",
"75 508 LINE"
);
}
);
width = 811;
}
);
unicode = 0126;
},
{
glyphname = J;
lastChange = "2015-07-01 10:38:42 +0000";
layers = (
{
layerId = "284DCAF7-AB20-402F-AEDF-E1CEEB9773D4";
rightMetricsKey = "=H";
name = "Regular Italic";
paths = (
{
closed = 1;
nodes = (
"111 -14 OFFCURVE",
"157 -3 OFFCURVE",
"199 37 CURVE SMOOTH",
"228 65 OFFCURVE",
"247 102 OFFCURVE",
"268 200 CURVE SMOOTH",
"383 740 LINE",
"294 740 LINE",
"176 187 LINE SMOOTH",
"157 100 OFFCURVE",
"124 62 OFFCURVE",
"54 62 CURVE SMOOTH",
"31 62 OFFCURVE",
"15 64 OFFCURVE",
"-6 70 CURVE",
"-31 5 LINE",
"-10 -8 OFFCURVE",
"19 -14 OFFCURVE",
"53 -14 CURVE SMOOTH"
);
}
);
width = 363;
},
{
layerId = "005AA5DB-9C20-42D5-964E-7DFE1013E61C";
rightMetricsKey = "=H";
name = "Bold Italic";
paths = (
{
closed = 1;
nodes = (
"204 -14 OFFCURVE",
"267 12 OFFCURVE",
"310 61 CURVE SMOOTH",
"348 105 OFFCURVE",
"373 167 OFFCURVE",
"397 280 CURVE SMOOTH",
"495 740 LINE",
"311 740 LINE",
"208 254 LINE SMOOTH",
"188 162 OFFCURVE",
"156 126 OFFCURVE",
"86 126 CURVE SMOOTH",
"63 126 OFFCURVE",
"46 128 OFFCURVE",
"25 134 CURVE",
"-33 15 LINE",
"12 -6 OFFCURVE",
"47 -14 OFFCURVE",
"111 -14 CURVE SMOOTH"
);
}
);
width = 457;
},
{
layerId = "D0F50BF8-B137-4291-8B58-E185C78D1B48";
rightMetricsKey = "=H";
name = "Light Italic";
paths = (
{
closed = 1;
nodes = (
"88 -14 OFFCURVE",
"127 11 OFFCURVE",
"151 48 CURVE SMOOTH",
"171 79 OFFCURVE",
"183 111 OFFCURVE",
"202 200 CURVE SMOOTH",
"317 740 LINE",
"293 740 LINE",
"171 168 LINE SMOOTH",
"146 50 OFFCURVE",
"102 9 OFFCURVE",
"40 9 CURVE SMOOTH",
"20 9 OFFCURVE",
"3 11 OFFCURVE",
"-18 17 CURVE",
"-27 -3 LINE",
"-11 -11 OFFCURVE",
"14 -14 OFFCURVE",
"37 -14 CURVE SMOOTH"
);
}
);
width = 313;
}
);
leftKerningGroup = J;
rightKerningGroup = J;
rightMetricsKey = H;
unicode = 004A;
},
{
glyphname = K;
lastChange = "2015-11-08 02:28:27 +0000";
layers = (
{
anchors = (
{
name = bottom;
position = "{262, 0}";
},
{
name = top;
position = "{411, 740}";
}
);
components = (
{
name = _part.basecapstem01;
transform = "{1, 0, 0, 1, 82, 0}";
}
);
layerId = "284DCAF7-AB20-402F-AEDF-E1CEEB9773D4";
name = "Regular Italic";
paths = (
{
closed = 1;
nodes = (
"543 0 LINE",
"291 423 LINE",
"291 361 LINE",
"707 730 LINE",
"600 740 LINE",
"216 390 LINE",
"443 0 LINE"
);
}
);
width = 638;
},
{
anchors = (
{
name = bottom;
position = "{287, 0}";
},
{
name = top;
position = "{424, 740}";
}
);
components = (
{
name = _part.basecapstem01;
transform = "{1, 0, 0, 1, 64, 0}";
}
);
layerId = "005AA5DB-9C20-42D5-964E-7DFE1013E61C";
leftMetricsKey = "=H";
name = "Bold Italic";
paths = (
{
closed = 1;
nodes = (
"663 0 LINE",
"405 456 LINE",
"386 327 LINE",
"815 730 LINE",
"608 740 LINE",
"258 376 LINE",
"441 0 LINE"
);
}
);
width = 725;
},
{
anchors = (
{
name = bottom;
position = "{211, 0}";
},
{
name = top;
position = "{381, 740}";
}
);
components = (
{
name = _part.basecapstem01;
transform = "{1, 0, 0, 1, 98, 0}";
}
);
layerId = "D0F50BF8-B137-4291-8B58-E185C78D1B48";
leftMetricsKey = "=H";
name = "Light Italic";
paths = (
{
closed = 1;
nodes = (
"475 0 LINE",
"197 402 LINE",
"198 390 LINE",
"610 730 LINE",
"589 740 LINE",
"173 397 LINE",
"445 0 LINE"
);
}
);
width = 561;
}
);
leftKerningGroup = H;
leftMetricsKey = H;
rightKerningGroup = K;
unicode = 004B;
},
{
glyphname = M;
lastChange = "2016-03-13 11:21:54 +0000";
layers = (
{
hints = (
{
horizontal = 1;
place = "{76650.000000, 100.000000}";
}
);
layerId = "284DCAF7-AB20-402F-AEDF-E1CEEB9773D4";
name = "Regular Italic";
paths = (
{
closed = 1;
nodes = (
"98 0 LINE",
"300 663 LINE",
"272 660 LINE",
"360 20 LINE",
"426 20 LINE",
"806 658 LINE",
"784 664 LINE",
"703 0 LINE",
"793 0 LINE",
"881 740 LINE",
"766 740 LINE",
"389 98 LINE",
"430 98 LINE",
"339 740 LINE",
"240 740 LINE",
"12 0 LINE"
);
}
);
width = 923;
},
{
layerId = "005AA5DB-9C20-42D5-964E-7DFE1013E61C";
name = "Bold Italic";
paths = (
{
closed = 1;
nodes = (
"148 0 LINE",
"348 663 LINE",
"264 660 LINE",
"338 20 LINE",
"493 20 LINE",
"842 671 LINE",
"768 674 LINE",
"679 0 LINE",
"859 0 LINE",
"948 740 LINE",
"724 740 LINE",
"393 98 LINE",
"486 98 LINE",
"426 740 LINE",
"214 740 LINE",
"-23 0 LINE"
);
}
);
width = 950;
},
{
hints = (
{
horizontal = 1;
place = "{114975.000000, 150.000000}";
}
);
layerId = "D0F50BF8-B137-4291-8B58-E185C78D1B48";
name = "Light Italic";
paths = (
{
closed = 1;
nodes = (
"56 0 LINE",
"297 726 LINE",
"287 724 LINE",
"386 20 LINE",
"407 20 LINE",
"833 720 LINE",
"828 723 LINE",
"739 0 LINE",
"762 0 LINE",
"852 740 LINE",
"820 740 LINE",
"388 32 LINE",
"407 32 LINE",
"307 740 LINE",
"279 740 LINE",
"32 0 LINE"
);
}
);
width = 905;
}
);
leftKerningGroup = M;
rightKerningGroup = M;
unicode = 004D;
},
{
glyphname = N;
lastChange = "2016-03-13 11:15:06 +0000";
layers = (
{
anchors = (
{
name = bottom;
position = "{338, 0}";
},
{
name = top;
position = "{474, 740}";
}
);
layerId = "284DCAF7-AB20-402F-AEDF-E1CEEB9773D4";
leftMetricsKey = "=H";
rightMetricsKey = "=H";
name = "Regular Italic";
paths = (
{
closed = 1;
nodes = (
"113 0 LINE",
"246 628 LINE",
"227 636 LINE",
"527 0 LINE",
"609 0 LINE",
"766 740 LINE",
"680 740 LINE",
"547 112 LINE",
"567 105 LINE",
"266 740 LINE",
"184 740 LINE",
"27 0 LINE"
);
}
);
width = 746;
},
{
anchors = (
{
name = bottom;
position = "{361, 0}";
},
{
name = top;
position = "{477, 740}";
}
);
layerId = "005AA5DB-9C20-42D5-964E-7DFE1013E61C";
leftMetricsKey = "=H";
rightMetricsKey = "=H";
name = "Bold Italic";
paths = (
{
closed = 1;
nodes = (
"185 0 LINE",
"281 451 LINE",
"273 451 LINE",
"529 0 LINE",
"661 0 LINE",
"818 740 LINE",
"642 740 LINE",
"545 289 LINE",
"554 289 LINE",
"298 740 LINE",
"166 740 LINE",
"9 0 LINE"
);
}
);
width = 780;
},
{
anchors = (
{
name = bottom;
position = "{321, 0}";
},
{
name = top;
position = "{456, 740}";
}
);
layerId = "D0F50BF8-B137-4291-8B58-E185C78D1B48";
leftMetricsKey = "=H";
rightMetricsKey = "=H";
name = "Light Italic";
paths = (
{
closed = 1;
nodes = (
"66 0 LINE",
"220 723 LINE",
"211 709 LINE",
"553 0 LINE",
"573 0 LINE",
"730 740 LINE",
"707 740 LINE",
"553 16 LINE",
"567 25 LINE",
"219 740 LINE",
"200 740 LINE",
"43 0 LINE"
);
}
);
width = 726;
}
);
leftKerningGroup = H;
leftMetricsKey = H;
rightKerningGroup = H;
rightMetricsKey = H;
unicode = 004E;
},
{
glyphname = Eng;
lastChange = "2016-02-22 16:35:44 +0000";
layers = (
{
background = {
paths = (
{
closed = 1;
nodes = (
"489 -215 OFFCURVE",
"528 -167 OFFCURVE",
"552 -94 CURVE SMOOTH",
"563 -60 OFFCURVE",
"570 -35 OFFCURVE",
"578 0 CURVE",
"580 112 LINE",
"552 -13 LINE SMOOTH",
"524 -139 OFFCURVE",
"491 -194 OFFCURVE",
"393 -202 CURVE",
"396 -223 LINE"
);
}
);
};
components = (
{
name = N;
}
);
layerId = "D0F50BF8-B137-4291-8B58-E185C78D1B48";
name = "Light Italic";
paths = (
{
closed = 1;
nodes = (
"484 -215 OFFCURVE",
"523 -167 OFFCURVE",
"547 -94 CURVE SMOOTH",
"558 -60 OFFCURVE",
"565 -35 OFFCURVE",
"573 0 CURVE",
"575 112 LINE",
"547 -13 LINE SMOOTH",
"519 -139 OFFCURVE",
"486 -194 OFFCURVE",
"388 -202 CURVE",
"391 -223 LINE"
);
}
);
width = 726;
},
{
components = (
{
name = N;
}
);
layerId = "284DCAF7-AB20-402F-AEDF-E1CEEB9773D4";
name = "Regular Italic";
paths = (
{
closed = 1;
nodes = (
"519 -223 OFFCURVE",
"561 -167 OFFCURVE",
"584 -98 CURVE SMOOTH",
"595 -64 OFFCURVE",
"602 -35 OFFCURVE",
"609 0 CURVE",
"543 112 LINE",
"519 -13 LINE SMOOTH",
"498 -123 OFFCURVE",
"463 -149 OFFCURVE",
"369 -149 CURVE",
"374 -223 LINE"
);
}
);
width = 746;
},
{
components = (
{
name = N;
}
);
layerId = "005AA5DB-9C20-42D5-964E-7DFE1013E61C";
name = "Bold Italic";
paths = (
{
closed = 1;
nodes = (
"547 -233 OFFCURVE",
"621 -148 OFFCURVE",
"646 -61 CURVE SMOOTH",
"653 -37 OFFCURVE",
"656 -22 OFFCURVE",
"661 0 CURVE",
"516 112 LINE",
"507 52 LINE SMOOTH",
"492 -44 OFFCURVE",
"449 -93 OFFCURVE",
"349 -87 CURVE",
"360 -223 LINE"
);
}
);
width = 780;
}
);
leftKerningGroup = Eng;
leftMetricsKey = N;
rightKerningGroup = Eng;
rightMetricsKey = N;
unicode = 014A;
},
{
glyphname = Oslash;
lastChange = "2015-10-31 11:26:45 +0000";
layers = (
{
components = (
{
name = O;
}
);
layerId = "D0F50BF8-B137-4291-8B58-E185C78D1B48";
name = "Light Italic";
paths = (
{
closed = 1;
nodes = (
"776 749 LINE",
"754 760 LINE",
"47 -10 LINE",
"70 -21 LINE"
);
}
);
width = 785;
},
{
components = (
{
name = O;
}
);
layerId = "284DCAF7-AB20-402F-AEDF-E1CEEB9773D4";
leftMetricsKey = "=O";
rightMetricsKey = "=O";
name = "Regular Italic";
paths = (
{
closed = 1;
nodes = (
"819 738 LINE",
"763 773 LINE",
"29 3 LINE",
"84 -32 LINE"
);
}
);
width = 802;
},
{
components = (
{
name = O;
}
);
layerId = "005AA5DB-9C20-42D5-964E-7DFE1013E61C";
name = "Bold Italic";
paths = (
{
closed = 1;
nodes = (
"827 730 LINE",
"723 770 LINE",
"22 10 LINE",
"127 -30 LINE"
);
}
);
width = 808;
}
);
leftKerningGroup = O;
leftMetricsKey = O;
rightKerningGroup = O;
rightMetricsKey = O;
unicode = 00D8;
},
{
glyphname = OE;
lastChange = "2016-02-22 16:39:15 +0000";
layers = (
{
anchors = (
{
name = top;
position = "{231, 740}";
}
);
components = (
{
name = elem.Ohalf;
transform = "{1, 0, 0, 1, 20, 0}";
},
{
name = E;
transform = "{1, 0, 0, 1, 457, 0}";
}
);
layerId = "D0F50BF8-B137-4291-8B58-E185C78D1B48";
leftMetricsKey = "=O";
rightMetricsKey = "=E";
name = "Light Italic";
paths = (
{
closed = 1;
nodes = (
"714 740 LINE",
"655 740 OFFCURVE",
"573 754 OFFCURVE",
"487 754 CURVE",
"482 731 LINE",
"568 731 OFFCURVE",
"644 725 OFFCURVE",
"712 716 CURVE"
);
},
{
closed = 1;
nodes = (
"410 -14 OFFCURVE",
"498 0 OFFCURVE",
"557 0 CURVE",
"565 24 LINE",
"493 15 OFFCURVE",
"415 9 OFFCURVE",
"349 9 CURVE",
"344 -14 LINE"
);
}
);
width = 969;
},
{
anchors = (
{
name = top;
position = "{272, 740}";
}
);
components = (
{
name = elem.Ohalf;
transform = "{1, 0, 0, 1, 15, 0}";
},
{
name = E;
transform = "{1, 0, 0, 1, 463, 0}";
}
);
layerId = "284DCAF7-AB20-402F-AEDF-E1CEEB9773D4";
leftMetricsKey = "=O";
rightMetricsKey = "=E";
name = "Regular Italic";
paths = (
{
closed = 1;
nodes = (
"687 740 LINE",
"628 740 OFFCURVE",
"577 754 OFFCURVE",
"499 754 CURVE",
"481 678 LINE",
"579 678 OFFCURVE",
"671 663 OFFCURVE",
"710 649 CURVE"
);
},
{
closed = 1;
nodes = (
"413 -14 OFFCURVE",
"471 0 OFFCURVE",
"530 0 CURVE",
"583 92 LINE",
"538 77 OFFCURVE",
"449 62 OFFCURVE",
"367 62 CURVE",
"349 -14 LINE"
);
}
);
width = 1010;
},
{
anchors = (
{
name = top;
position = "{631, 740}";
}
);
components = (
{
name = elem.Ohalf;
transform = "{1, 0, 0, 1, -103, 0}";
},
{
name = E;
transform = "{1, 0, 0, 1, 466, 0}";
}
);
layerId = "005AA5DB-9C20-42D5-964E-7DFE1013E61C";
leftMetricsKey = "=O";
rightMetricsKey = "=E";
name = "Bold Italic";
paths = (
{
closed = 1;
nodes = (
"693 740 LINE",
"652 740 OFFCURVE",
"562 754 OFFCURVE",
"481 754 CURVE",
"481 614 LINE",
"547 614 OFFCURVE",
"632 602 OFFCURVE",
"702 573 CURVE"
);
},
{
closed = 1;
nodes = (
"428 -14 OFFCURVE",
"495 0 OFFCURVE",
"536 0 CURVE",
"615 184 LINE",
"533 142 OFFCURVE",
"463 126 OFFCURVE",
"377 126 CURVE",
"377 -14 LINE"
);
}
);
width = 1071;
}
);
leftKerningGroup = O;
leftMetricsKey = O;
rightKerningGroup = E;
rightMetricsKey = E;
unicode = 0152;
},
{
glyphname = P;
lastChange = "2016-03-13 11:15:18 +0000";
layers = (
{
components = (
{
name = _part.basecapstem01;
transform = "{1, 0, 0, 1, 82, 0}";
}
);
layerId = "284DCAF7-AB20-402F-AEDF-E1CEEB9773D4";
leftMetricsKey = "=H";
name = "Regular Italic";
paths = (
{
closed = 1;
nodes = (
"223 286 LINE SMOOTH",
"265 286 OFFCURVE",
"296 287 OFFCURVE",
"343 293 CURVE SMOOTH",
"491 312 OFFCURVE",
"596 417 OFFCURVE",
"596 559 CURVE SMOOTH",
"596 670 OFFCURVE",
"530 725 OFFCURVE",
"424 736 CURVE SMOOTH",
"393 739 OFFCURVE",
"340 740 OFFCURVE",
"294 740 CURVE SMOOTH",
"257 740 LINE",
"242 662 LINE",
"354 662 LINE SMOOTH",
"449 662 OFFCURVE",
"502 631 OFFCURVE",
"502 553 CURVE SMOOTH",
"502 453 OFFCURVE",
"435 365 OFFCURVE",
"283 365 CURVE SMOOTH",
"179 365 LINE",
"162 286 LINE"
);
}
);
width = 577;
},
{
components = (
{
name = _part.basecapstem01;
transform = "{1, 0, 0, 1, 64, 0}";
}
);
layerId = "005AA5DB-9C20-42D5-964E-7DFE1013E61C";
leftMetricsKey = "=H";
name = "Bold Italic";
paths = (
{
closed = 1;
nodes = (
"278 255 LINE SMOOTH",
"311 255 OFFCURVE",
"353 257 OFFCURVE",
"385 261 CURVE SMOOTH",
"551 282 OFFCURVE",
"667 394 OFFCURVE",
"667 542 CURVE SMOOTH",
"667 659 OFFCURVE",
"593 724 OFFCURVE",
"485 736 CURVE SMOOTH",
"454 739 OFFCURVE",
"401 740 OFFCURVE",
"355 740 CURVE SMOOTH",
"333 740 LINE",
"305 604 LINE",
"382 604 LINE SMOOTH",
"437 604 OFFCURVE",
"474 579 OFFCURVE",
"474 524 CURVE SMOOTH",
"474 426 OFFCURVE",
"405 392 OFFCURVE",
"337 392 CURVE SMOOTH",
"260 392 LINE",
"231 255 LINE"
);
}
);
width = 631;
},
{
components = (
{
name = _part.basecapstem01;
transform = "{1, 0, 0, 1, 98, 0}";
}
);
layerId = "D0F50BF8-B137-4291-8B58-E185C78D1B48";
leftMetricsKey = "=H";
name = "Light Italic";
paths = (
{
closed = 1;
nodes = (
"182 314 LINE SMOOTH",
"218 314 OFFCURVE",
"246 314 OFFCURVE",
"283 316 CURVE SMOOTH",
"434 324 OFFCURVE",
"557 434 OFFCURVE",
"557 569 CURVE SMOOTH",
"557 660 OFFCURVE",
"509 727 OFFCURVE",
"404 738 CURVE SMOOTH",
"373 741 OFFCURVE",
"329 740 OFFCURVE",
"293 740 CURVE SMOOTH",
"212 740 LINE",
"212 717 LINE",
"359 717 LINE SMOOTH",
"481 717 OFFCURVE",
"531 653 OFFCURVE",
"531 569 CURVE SMOOTH",
"531 442 OFFCURVE",
"422 337 OFFCURVE",
"264 337 CURVE SMOOTH",
"130 337 LINE",
"125 314 LINE"
);
}
);
width = 536;
}
);
leftKerningGroup = H;
leftMetricsKey = H;
rightKerningGroup = P;
unicode = 0050;
},
{
glyphname = Thorn;
lastChange = "2016-02-14 00:50:56 +0000";
layers = (
{
layerId = "D0F50BF8-B137-4291-8B58-E185C78D1B48";
leftMetricsKey = "=H";
rightMetricsKey = "=P";
name = "Light Italic";
paths = (
{
closed = 1;
nodes = (
"151 194 LINE SMOOTH",
"187 194 OFFCURVE",
"216 194 OFFCURVE",
"253 196 CURVE SMOOTH",
"403 204 OFFCURVE",
"524 302 OFFCURVE",
"524 438 CURVE SMOOTH",
"524 522 OFFCURVE",
"475 587 OFFCURVE",
"369 598 CURVE SMOOTH",
"338 601 OFFCURVE",
"295 600 OFFCURVE",
"259 600 CURVE SMOOTH",
"187 600 LINE",
"183 577 LINE",
"325 577 LINE SMOOTH",
"448 577 OFFCURVE",
"498 517 OFFCURVE",
"498 435 CURVE SMOOTH",
"498 315 OFFCURVE",
"390 222 OFFCURVE",
"236 219 CURVE SMOOTH",
"104 217 LINE",
"99 194 LINE"
);
},
{
closed = 1;
nodes = (
"67 0 LINE",
"224 740 LINE",
"200 740 LINE",
"43 0 LINE"
);
}
);
width = 531;
},
{
layerId = "284DCAF7-AB20-402F-AEDF-E1CEEB9773D4";
leftMetricsKey = "=H";
rightMetricsKey = "=P";
name = "Regular Italic";
paths = (
{
closed = 1;
nodes = (
"205 180 LINE SMOOTH",
"247 180 OFFCURVE",
"278 181 OFFCURVE",
"326 187 CURVE SMOOTH",
"470 205 OFFCURVE",
"568 306 OFFCURVE",
"568 431 CURVE SMOOTH",
"568 533 OFFCURVE",
"508 599 OFFCURVE",
"403 610 CURVE SMOOTH",
"368 614 OFFCURVE",
"325 614 OFFCURVE",
"282 614 CURVE SMOOTH",
"232 614 LINE",
"215 536 LINE",
"322 536 LINE SMOOTH",
"418 536 OFFCURVE",
"472 502 OFFCURVE",
"472 423 CURVE SMOOTH",
"472 336 OFFCURVE",
"415 259 OFFCURVE",
"265 259 CURVE SMOOTH",
"156 259 LINE",
"139 180 LINE"
);
},
{
closed = 1;
nodes = (
"117 0 LINE",
"274 740 LINE",
"184 740 LINE",
"27 0 LINE"
);
}
);
width = 575;
},
{
layerId = "005AA5DB-9C20-42D5-964E-7DFE1013E61C";
rightMetricsKey = "=P";
name = "Bold Italic";
paths = (
{
closed = 1;
nodes = (
"237 155 LINE SMOOTH",
"270 155 OFFCURVE",
"312 157 OFFCURVE",
"344 161 CURVE SMOOTH",
"520 183 OFFCURVE",
"645 275 OFFCURVE",
"645 442 CURVE SMOOTH",
"645 548 OFFCURVE",
"571 624 OFFCURVE",
"464 636 CURVE SMOOTH",
"435 639 OFFCURVE",
"387 640 OFFCURVE",
"346 640 CURVE SMOOTH",
"313 640 LINE",
"284 504 LINE",
"361 504 LINE SMOOTH",
"416 504 OFFCURVE",
"452 479 OFFCURVE",
"452 418 CURVE SMOOTH",
"452 342 OFFCURVE",
"392 292 OFFCURVE",
"316 292 CURVE SMOOTH",
"239 292 LINE",
"210 155 LINE"
);
},
{
closed = 1;
nodes = (
"193 0 LINE",
"350 740 LINE",
"166 740 LINE",
"9 0 LINE"
);
}
);
width = 631;
}
);
leftKerningGroup = H;
leftMetricsKey = H;
rightKerningGroup = Thorn;
rightMetricsKey = P;
unicode = 00DE;
},
{
glyphname = Q;
lastChange = "2016-03-13 11:15:23 +0000";
layers = (
{
components = (
{
name = elem.Ohalf;
transform = "{1, 0, 0, 1, 15, 0}";
},
{
name = elem.Ohalf;
transform = "{-1, 0, 0, -1, 833, 740}";
}
);
layerId = "284DCAF7-AB20-402F-AEDF-E1CEEB9773D4";
leftMetricsKey = "=O";
name = "Regular Italic";
paths = (
{
closed = 1;
nodes = (
"714 -181 LINE",
"497 30 LINE",
"349 -14 LINE",
"406 -16 OFFCURVE",
"437 -22 OFFCURVE",
"477 -65 CURVE SMOOTH",
"612 -211 LINE"
);
}
);
width = 824;
},
{
components = (
{
name = elem.Ohalf;
transform = "{1, 0, 0, 1, -105, 0}";
},
{
name = elem.Ohalf;
transform = "{-1, 0, 0, -1, 959, 740}";
}
);
layerId = "005AA5DB-9C20-42D5-964E-7DFE1013E61C";
name = "Bold Italic";
paths = (
{
closed = 1;
nodes = (
"746 -150 LINE",
"532 68 LINE",
"355 -14 LINE",
"402 -15 OFFCURVE",
"430 -36 OFFCURVE",
"463 -77 CURVE SMOOTH",
"570 -211 LINE"
);
}
);
width = 822;
},
{
components = (
{
name = elem.Ohalf;
transform = "{1, 0, 0, 1, 20, 0}";
},
{
name = elem.Ohalf;
transform = "{-1, 0, 0, -1, 811, 740}";
}
);
layerId = "D0F50BF8-B137-4291-8B58-E185C78D1B48";
leftMetricsKey = "=O";
rightMetricsKey = "=O";
name = "Light Italic";
paths = (
{
closed = 1;
nodes = (
"587 -208 LINE",
"392 -3 LINE",
"334 -13 LINE",
"358 -13 OFFCURVE",
"374 -17 OFFCURVE",
"384 -28 CURVE SMOOTH",
"554 -211 LINE"
);
}
);
width = 785;
}
);
leftKerningGroup = O;
leftMetricsKey = O;
rightKerningGroup = O;
unicode = 0051;
},
{
glyphname = R;
lastChange = "2016-03-13 11:15:28 +0000";
layers = (
{
anchors = (
{
name = bottom;
position = "{271, 0}";
},
{
name = top;
position = "{392, 740}";
}
);
components = (
{
name = _part.basecapstem01;
transform = "{1, 0, 0, 1, 82, 0}";
}
);
layerId = "284DCAF7-AB20-402F-AEDF-E1CEEB9773D4";
leftMetricsKey = "=H";
name = "Regular Italic";
paths = (
{
closed = 1;
nodes = (
"513 0 LINE",
"394 364 LINE",
"379 318 LINE",
"514 354 OFFCURVE",
"594 442 OFFCURVE",
"594 563 CURVE SMOOTH",
"594 667 OFFCURVE",
"525 727 OFFCURVE",
"414 737 CURVE SMOOTH",
"392 739 OFFCURVE",
"357 740 OFFCURVE",
"321 740 CURVE SMOOTH",
"258 740 LINE",
"243 666 LINE",
"355 666 LINE SMOOTH",
"434 666 OFFCURVE",
"500 638 OFFCURVE",
"500 552 CURVE SMOOTH",
"500 454 OFFCURVE",
"436 384 OFFCURVE",
"327 384 CURVE SMOOTH",
"183 384 LINE",
"167 310 LINE",
"335 310 LINE",
"314 321 LINE",
"417 0 LINE"
);
}
);
width = 596;
},
{
anchors = (
{
name = bottom;
position = "{290, 0}";
},
{
name = top;
position = "{403, 740}";
}
);
components = (
{
name = _part.basecapstem01;
transform = "{1, 0, 0, 1, 64, 0}";
}
);
layerId = "005AA5DB-9C20-42D5-964E-7DFE1013E61C";
leftMetricsKey = "=H";
name = "Bold Italic";
paths = (
{
closed = 1;
nodes = (
"603 0 LINE",
"474 346 LINE",
"440 301 LINE",
"570 331 OFFCURVE",
"669 423 OFFCURVE",
"669 557 CURVE SMOOTH",
"669 671 OFFCURVE",
"582 727 OFFCURVE",
"494 735 CURVE SMOOTH",
"443 740 OFFCURVE",
"408 740 OFFCURVE",
"364 740 CURVE SMOOTH",
"337 740 LINE",
"305 604 LINE",
"395 604 LINE SMOOTH",
"450 604 OFFCURVE",
"481 581 OFFCURVE",
"481 530 CURVE SMOOTH",
"481 463 OFFCURVE",
"429 410 OFFCURVE",
"392 410 CURVE SMOOTH",
"264 410 LINE",
"237 280 LINE",
"326 280 LINE",
"303 299 LINE",
"391 0 LINE"
);
}
);
width = 666;
},
{
anchors = (
{
name = bottom;
position = "{223, 0}";
},
{
name = top;
position = "{343, 740}";
}
);
components = (
{
name = _part.basecapstem01;
transform = "{1, 0, 0, 1, 98, 0}";
}
);
layerId = "D0F50BF8-B137-4291-8B58-E185C78D1B48";
leftMetricsKey = "=H";
name = "Light Italic";
paths = (
{
closed = 1;
nodes = (
"456 0 LINE",
"347 351 LINE",
"345 338 LINE",
"450 349 OFFCURVE",
"554 452 OFFCURVE",
"554 580 CURVE SMOOTH",
"554 674 OFFCURVE",
"497 726 OFFCURVE",
"402 737 CURVE SMOOTH",
"377 740 OFFCURVE",
"345 740 OFFCURVE",
"309 740 CURVE SMOOTH",
"217 740 LINE",
"211 717 LINE",
"354 717 LINE SMOOTH",
"473 717 OFFCURVE",
"528 667 OFFCURVE",
"528 578 CURVE SMOOTH",
"528 469 OFFCURVE",
"438 359 OFFCURVE",
"319 359 CURVE SMOOTH",
"133 359 LINE",
"128 336 LINE",
"336 336 LINE",
"326 339 LINE",
"430 0 LINE"
);
}
);
width = 547;
}
);
leftKerningGroup = H;
leftMetricsKey = H;
rightKerningGroup = R;
unicode = 0052;
},
{
glyphname = S;
lastChange = "2016-03-13 11:15:33 +0000";
layers = (
{
anchors = (
{
name = bottom;
position = "{209, 0}";
},
{
name = top;
position = "{385, 740}";
}
);
layerId = "284DCAF7-AB20-402F-AEDF-E1CEEB9773D4";
name = "Regular Italic";
paths = (
{
closed = 1;
nodes = (
"336 -14 OFFCURVE",
"471 63 OFFCURVE",
"471 209 CURVE SMOOTH",
"471 292 OFFCURVE",
"432 343 OFFCURVE",
"319 419 CURVE SMOOTH",
"265 455 OFFCURVE",
"230 495 OFFCURVE",
"230 552 CURVE SMOOTH",
"230 629 OFFCURVE",
"292 674 OFFCURVE",
"393 674 CURVE SMOOTH",
"436 674 OFFCURVE",
"492 666 OFFCURVE",
"534 647 CURVE",
"564 716 LINE",
"521 740 OFFCURVE",
"462 754 OFFCURVE",
"404 754 CURVE SMOOTH",
"237 754 OFFCURVE",
"135 658 OFFCURVE",
"138 529 CURVE SMOOTH",
"140 452 OFFCURVE",
"187 404 OFFCURVE",
"251 361 CURVE SMOOTH",
"337 303 OFFCURVE",
"377 258 OFFCURVE",
"377 202 CURVE SMOOTH",
"377 106 OFFCURVE",
"295 66 OFFCURVE",
"209 66 CURVE SMOOTH",
"152 66 OFFCURVE",
"93 88 OFFCURVE",
"53 122 CURVE",
"5 61 LINE",
"49 15 OFFCURVE",
"122 -14 OFFCURVE",
"205 -14 CURVE SMOOTH"
);
}
);
width = 559;
},
{
anchors = (
{
name = bottom;
position = "{223, 0}";
},
{
name = top;
position = "{373, 740}";
}
);
layerId = "005AA5DB-9C20-42D5-964E-7DFE1013E61C";
name = "Bold Italic";
paths = (
{
closed = 1;
nodes = (
"382 -14 OFFCURVE",
"522 75 OFFCURVE",
"522 234 CURVE SMOOTH",
"522 330 OFFCURVE",
"465 385 OFFCURVE",
"366 446 CURVE SMOOTH",
"314 478 OFFCURVE",
"288 500 OFFCURVE",
"288 534 CURVE SMOOTH",
"288 584 OFFCURVE",
"325 614 OFFCURVE",
"395 614 CURVE SMOOTH",
"443 614 OFFCURVE",
"497 599 OFFCURVE",
"529 579 CURVE",
"604 697 LINE",
"561 730 OFFCURVE",
"488 754 OFFCURVE",
"389 754 CURVE SMOOTH",
"225 754 OFFCURVE",
"99 657 OFFCURVE",
"99 505 CURVE SMOOTH",
"99 425 OFFCURVE",
"148 372 OFFCURVE",
"220 326 CURVE SMOOTH",
"306 271 OFFCURVE",
"328 241 OFFCURVE",
"328 204 CURVE SMOOTH",
"328 158 OFFCURVE",
"291 126 OFFCURVE",
"201 126 CURVE SMOOTH",
"149 126 OFFCURVE",
"97 144 OFFCURVE",
"52 180 CURVE",
"-29 72 LINE",
"30 15 OFFCURVE",
"105 -14 OFFCURVE",
"210 -14 CURVE SMOOTH"
);
}
);
width = 557;
},
{
anchors = (
{
name = bottom;
position = "{203, 0}";
},
{
name = top;
position = "{380, 740}";
}
);
layerId = "D0F50BF8-B137-4291-8B58-E185C78D1B48";
name = "Light Italic";
paths = (
{
closed = 1;
nodes = (
"313 -14 OFFCURVE",
"433 64 OFFCURVE",
"433 190 CURVE SMOOTH",
"433 272 OFFCURVE",
"399 318 OFFCURVE",
"295 392 CURVE SMOOTH",
"212 451 OFFCURVE",
"181 489 OFFCURVE",
"181 553 CURVE SMOOTH",
"181 658 OFFCURVE",
"261 731 OFFCURVE",
"385 731 CURVE SMOOTH",
"438 731 OFFCURVE",
"481 723 OFFCURVE",
"529 700 CURVE",
"540 717 LINE",
"503 742 OFFCURVE",
"450 754 OFFCURVE",
"385 754 CURVE SMOOTH",
"249 754 OFFCURVE",
"155 665 OFFCURVE",
"155 553 CURVE SMOOTH",
"155 481 OFFCURVE",
"192 434 OFFCURVE",
"277 373 CURVE SMOOTH",
"372 305 OFFCURVE",
"407 263 OFFCURVE",
"407 190 CURVE SMOOTH",
"407 74 OFFCURVE",
"295 9 OFFCURVE",
"195 9 CURVE SMOOTH",
"119 9 OFFCURVE",
"70 26 OFFCURVE",
"22 67 CURVE",
"8 51 LINE",
"51 4 OFFCURVE",
"117 -14 OFFCURVE",
"194 -14 CURVE SMOOTH"
);
}
);
width = 530;
}
);
leftKerningGroup = S;
rightKerningGroup = S;
unicode = 0053;
},
{
glyphname = T;
lastChange = "2016-03-13 11:15:37 +0000";
layers = (
{
anchors = (
{
name = bottom;
position = "{236, 0}";
},
{
name = center;
position = "{313, 370}";
},
{
name = top;
position = "{389, 740}";
}
);
components = (
{
name = _part.basecapstem01;
transform = "{1, 0, 0, 1, 247, 0}";
}
);
layerId = "284DCAF7-AB20-402F-AEDF-E1CEEB9773D4";
name = "Regular Italic";
paths = (
{
closed = 1;
nodes = (
"652 666 LINE",
"678 740 LINE",
"123 740 LINE",
"107 666 LINE"
);
}
);
width = 588;
},
{
anchors = (
{
name = bottom;
position = "{260, 0}";
},
{
name = center;
position = "{333, 370}";
},
{
name = top;
position = "{410, 740}";
}
);
components = (
{
name = _part.basecapstem01;
transform = "{1, 0, 0, 1, 220, 0}";
}
);
layerId = "005AA5DB-9C20-42D5-964E-7DFE1013E61C";
name = "Bold Italic";
paths = (
{
closed = 1;
nodes = (
"697 604 LINE",
"746 740 LINE",
"113 740 LINE",
"84 604 LINE"
);
}
);
width = 648;
},
{
anchors = (
{
name = bottom;
position = "{192, 0}";
},
{
name = center;
position = "{271, 370}";
},
{
name = top;
position = "{351, 740}";
}
);
components = (
{
name = _part.basecapstem01;
transform = "{1, 0, 0, 1, 235, 0}";
}
);
layerId = "D0F50BF8-B137-4291-8B58-E185C78D1B48";
name = "Light Italic";
paths = (
{
closed = 1;
nodes = (
"600 717 LINE",
"615 740 LINE",
"107 740 LINE",
"102 717 LINE"
);
}
);
width = 512;
}
);
leftKerningGroup = T;
rightKerningGroup = T;
unicode = 0054;
},
{
glyphname = U;
lastChange = "2016-02-14 00:02:50 +0000";
layers = (
{
anchors = (
{
name = top;
position = "{421, 740}";
}
);
layerId = "284DCAF7-AB20-402F-AEDF-E1CEEB9773D4";
leftMetricsKey = "=H-10";
rightMetricsKey = "=H-10";
name = "Regular Italic";
paths = (
{
closed = 1;
nodes = (
"431 -14 OFFCURVE",
"525 64 OFFCURVE",
"565 208 CURVE SMOOTH",
"574 241 OFFCURVE",
"586 295 OFFCURVE",
"597 346 CURVE SMOOTH",
"681 740 LINE",
"591 740 LINE",
"491 270 LINE SMOOTH",
"458 113 OFFCURVE",
"393 62 OFFCURVE",
"286 62 CURVE SMOOTH",
"210 62 OFFCURVE",
"156 97 OFFCURVE",
"156 193 CURVE SMOOTH",
"156 222 OFFCURVE",
"163 261 OFFCURVE",
"183 356 CURVE SMOOTH",
"265 740 LINE",
"175 740 LINE",
"95 366 LINE SMOOTH",
"75 274 OFFCURVE",
"68 218 OFFCURVE",
"68 183 CURVE SMOOTH",
"68 59 OFFCURVE",
"131 -14 OFFCURVE",
"279 -14 CURVE SMOOTH"
);
}
);
width = 651;
},
{
anchors = (
{
name = top;
position = "{453, 740}";
}
);
layerId = "005AA5DB-9C20-42D5-964E-7DFE1013E61C";
leftMetricsKey = "=H-5";
rightMetricsKey = "=H-5";
name = "Bold Italic";
paths = (
{
closed = 1;
nodes = (
"504 -14 OFFCURVE",
"600 76 OFFCURVE",
"640 220 CURVE SMOOTH",
"649 253 OFFCURVE",
"657 291 OFFCURVE",
"666 332 CURVE SMOOTH",
"753 740 LINE",
"577 740 LINE",
"475 262 LINE SMOOTH",
"457 177 OFFCURVE",
"411 126 OFFCURVE",
"334 126 CURVE SMOOTH",
"267 126 OFFCURVE",
"237 153 OFFCURVE",
"237 210 CURVE SMOOTH",
"237 226 OFFCURVE",
"240 244 OFFCURVE",
"252 302 CURVE SMOOTH",
"345 740 LINE",
"161 740 LINE",
"74 332 LINE SMOOTH",
"60 264 OFFCURVE",
"53 216 OFFCURVE",
"53 184 CURVE SMOOTH",
"53 62 OFFCURVE",
"135 -14 OFFCURVE",
"307 -14 CURVE SMOOTH"
);
}
);
width = 710;
},
{
anchors = (
{
name = top;
position = "{394, 740}";
}
);
layerId = "D0F50BF8-B137-4291-8B58-E185C78D1B48";
leftMetricsKey = "=H-10";
rightMetricsKey = "=H-10";
name = "Light Italic";
paths = (
{
closed = 1;
nodes = (
"383 -14 OFFCURVE",
"468 54 OFFCURVE",
"512 198 CURVE SMOOTH",
"522 231 OFFCURVE",
"530 263 OFFCURVE",
"538 304 CURVE SMOOTH",
"631 740 LINE",
"607 740 LINE",
"506 265 LINE SMOOTH",
"467 81 OFFCURVE",
"381 10 OFFCURVE",
"252 9 CURVE SMOOTH",
"169 8 OFFCURVE",
"104 49 OFFCURVE",
"104 162 CURVE SMOOTH",
"104 209 OFFCURVE",
"109 248 OFFCURVE",
"119 293 CURVE SMOOTH",
"214 740 LINE",
"190 740 LINE",
"96 294 LINE SMOOTH",
"86 244 OFFCURVE",
"80 202 OFFCURVE",
"80 162 CURVE SMOOTH",
"80 43 OFFCURVE",
"146 -14 OFFCURVE",
"250 -14 CURVE SMOOTH"
);
}
);
width = 617;
}
);
leftKerningGroup = U;
leftMetricsKey = "=H-10";
rightKerningGroup = U;
rightMetricsKey = H;
unicode = 0055;
},
{
glyphname = Uogonek;
lastChange = "2016-02-22 16:41:31 +0000";
layers = (
{
components = (
{
name = U;
}
);
layerId = "D0F50BF8-B137-4291-8B58-E185C78D1B48";
name = "Light Italic";
paths = (
{
closed = 1;
nodes = (
"231 -198 OFFCURVE",
"218 -182 OFFCURVE",
"218 -154 CURVE SMOOTH",
"218 -102 OFFCURVE",
"276 -30 OFFCURVE",
"357 5 CURVE",
"335 7 LINE",
"269 -14 OFFCURVE",
"193 -89 OFFCURVE",
"193 -160 CURVE SMOOTH",
"193 -202 OFFCURVE",
"218 -220 OFFCURVE",
"255 -220 CURVE SMOOTH",
"276 -220 OFFCURVE",
"298 -214 OFFCURVE",
"322 -201 CURVE",
"329 -178 LINE",
"305 -191 OFFCURVE",
"282 -198 OFFCURVE",
"260 -198 CURVE SMOOTH"
);
}
);
width = 617;
},
{
components = (
{
name = U;
}
);
layerId = "284DCAF7-AB20-402F-AEDF-E1CEEB9773D4";
name = "Regular Italic";
paths = (
{
closed = 1;
nodes = (
"306 -165 OFFCURVE",
"288 -149 OFFCURVE",
"288 -120 CURVE SMOOTH",
"288 -75 OFFCURVE",
"317 -25 OFFCURVE",
"406 10 CURVE",
"324 10 LINE",
"263 -13 OFFCURVE",
"202 -76 OFFCURVE",
"202 -139 CURVE SMOOTH",
"202 -193 OFFCURVE",
"239 -220 OFFCURVE",
"290 -220 CURVE SMOOTH",
"318 -220 OFFCURVE",
"342 -213 OFFCURVE",
"368 -197 CURVE",
"382 -156 LINE",
"365 -162 OFFCURVE",
"349 -165 OFFCURVE",
"336 -165 CURVE SMOOTH"
);
}
);
width = 651;
},
{
components = (
{
name = U;
}
);
layerId = "005AA5DB-9C20-42D5-964E-7DFE1013E61C";
name = "Bold Italic";
paths = (
{
closed = 1;
nodes = (
"386 -131 OFFCURVE",
"361 -111 OFFCURVE",
"361 -81 CURVE SMOOTH",
"361 -40 OFFCURVE",
"394 -10 OFFCURVE",
"469 14 CURVE",
"348 8 LINE",
"271 -15 OFFCURVE",
"237 -69 OFFCURVE",
"237 -123 CURVE SMOOTH",
"237 -185 OFFCURVE",
"282 -220 OFFCURVE",
"336 -220 CURVE SMOOTH",
"395 -220 OFFCURVE",
"428 -212 OFFCURVE",
"467 -195 CURVE",
"487 -123 LINE",
"468 -129 OFFCURVE",
"449 -131 OFFCURVE",
"429 -131 CURVE SMOOTH"
);
}
);
width = 710;
}
);
leftKerningGroup = U;
leftMetricsKey = U;
rightKerningGroup = U;
rightMetricsKey = U;
unicode = 0172;
},
{
glyphname = V;
lastChange = "2016-03-13 11:15:45 +0000";
layers = (
{
layerId = "284DCAF7-AB20-402F-AEDF-E1CEEB9773D4";
name = "Regular Italic";
paths = (
{
closed = 1;
nodes = (
"331 0 LINE",
"758 740 LINE",
"656 740 LINE",
"256 24 LINE",
"292 23 LINE",
"213 740 LINE",
"117 740 LINE",
"211 0 LINE"
);
}
);
width = 665;
},
{
layerId = "005AA5DB-9C20-42D5-964E-7DFE1013E61C";
name = "Bold Italic";
paths = (
{
closed = 1;
nodes = (
"440 0 LINE",
"853 740 LINE",
"655 740 LINE",
"290 24 LINE",
"360 23 LINE",
"314 740 LINE",
"114 740 LINE",
"194 0 LINE"
);
}
);
width = 759;
},
{
layerId = "D0F50BF8-B137-4291-8B58-E185C78D1B48";
name = "Light Italic";
paths = (
{
closed = 1;
nodes = (
"256 0 LINE",
"699 740 LINE",
"671 740 LINE",
"243 19 LINE",
"250 19 LINE",
"149 740 LINE",
"124 740 LINE",
"231 0 LINE"
);
}
);
width = 614;
}
);
leftKerningGroup = V;
rightKerningGroup = V;
unicode = 0056;
},
{
glyphname = W;
lastChange = "2016-03-13 11:15:47 +0000";
layers = (
{
anchors = (
{
name = top;
position = "{581, 740}";
}
);
layerId = "284DCAF7-AB20-402F-AEDF-E1CEEB9773D4";
leftMetricsKey = "=V";
rightMetricsKey = "=V";
name = "Regular Italic";
paths = (
{
closed = 1;
nodes = (
"257 0 LINE",
"579 648 LINE",
"545 648 LINE",
"601 0 LINE",
"699 0 LINE",
"1091 740 LINE",
"994 740 LINE",
"652 60 LINE",
"674 58 LINE",
"617 719 LINE",
"538 719 LINE",
"209 59 LINE",
"231 59 LINE",
"212 740 LINE",
"117 740 LINE",
"157 0 LINE"
);
}
);
width = 998;
},
{
anchors = (
{
name = top;
position = "{630, 740}";
}
);
layerId = "005AA5DB-9C20-42D5-964E-7DFE1013E61C";
leftMetricsKey = "=V";
rightMetricsKey = "=V";
name = "Bold Italic";
paths = (
{
closed = 1;
nodes = (
"365 0 LINE",
"670 678 LINE",
"564 688 LINE",
"598 0 LINE",
"802 0 LINE",
"1173 740 LINE",
"977 740 LINE",
"687 93 LINE",
"746 38 LINE",
"718 727 LINE",
"549 727 LINE",
"242 39 LINE",
"306 39 LINE",
"324 740 LINE",
"114 740 LINE",
"154 0 LINE"
);
}
);
width = 1079;
},
{
anchors = (
{
name = top;
position = "{543, 740}";
}
);
layerId = "D0F50BF8-B137-4291-8B58-E185C78D1B48";
leftMetricsKey = "=V";
rightMetricsKey = "=V";
name = "Light Italic";
paths = (
{
closed = 1;
nodes = (
"199 0 LINE",
"544 706 LINE",
"532 706 LINE",
"603 0 LINE",
"629 0 LINE",
"1025 740 LINE",
"998 740 LINE",
"614 20 LINE",
"625 18 LINE",
"553 719 LINE",
"525 719 LINE",
"181 19 LINE",
"194 19 LINE",
"148 740 LINE",
"124 740 LINE",
"172 0 LINE"
);
}
);
width = 940;
}
);
leftKerningGroup = W;
leftMetricsKey = V;
rightKerningGroup = W;
rightMetricsKey = V;
unicode = 0057;
},
{
glyphname = X;
lastChange = "2016-03-13 11:15:54 +0000";
layers = (
{
layerId = "005AA5DB-9C20-42D5-964E-7DFE1013E61C";
name = "Bold Italic";
paths = (
{
closed = 1;
nodes = (
"159 0 LINE",
"423 345 LINE",
"310 348 LINE",
"438 0 LINE",
"639 0 LINE",
"454 417 LINE",
"452 348 LINE",
"792 740 LINE",
"589 740 LINE",
"334 404 LINE",
"442 404 LINE",
"331 740 LINE",
"131 740 LINE",
"304 336 LINE",
"305 405 LINE",
"-51 0 LINE"
);
}
);
width = 706;
},
{
layerId = "D0F50BF8-B137-4291-8B58-E185C78D1B48";
name = "Light Italic";
paths = (
{
closed = 1;
nodes = (
"4 0 LINE",
"312 368 LINE",
"300 368 LINE",
"453 0 LINE",
"481 0 LINE",
"316 384 LINE",
"318 372 LINE",
"633 740 LINE",
"601 740 LINE",
"305 390 LINE",
"314 390 LINE",
"178 740 LINE",
"153 740 LINE",
"295 375 LINE",
"297 385 LINE",
"-26 0 LINE"
);
}
);
width = 572;
},
{
layerId = "284DCAF7-AB20-402F-AEDF-E1CEEB9773D4";
name = "Regular Italic";
paths = (
{
closed = 1;
nodes = (
"86 0 LINE",
"371 368 LINE",
"322 364 LINE",
"466 0 LINE",
"565 0 LINE",
"383 423 LINE",
"382 368 LINE",
"704 740 LINE",
"597 740 LINE",
"341 424 LINE",
"374 427 LINE",
"257 740 LINE",
"159 740 LINE",
"317 369 LINE",
"330 425 LINE",
"-26 0 LINE"
);
}
);
width = 635;
}
);
leftKerningGroup = X;
rightKerningGroup = X;
unicode = 0058;
},
{
glyphname = Y;
lastChange = "2016-03-13 11:15:57 +0000";
layers = (
{
anchors = (
{
name = top;
position = "{373, 740}";
}
);
layerId = "284DCAF7-AB20-402F-AEDF-E1CEEB9773D4";
name = "Regular Italic";
paths = (
{
closed = 1;
nodes = (
"267 0 LINE",
"345 368 LINE",
"310 290 LINE",
"669 740 LINE",
"560 740 LINE",
"282 367 LINE",
"316 367 LINE",
"200 740 LINE",
"105 740 LINE",
"260 292 LINE",
"255 370 LINE",
"177 0 LINE"
);
}
);
width = 575;
},
{
anchors = (
{
name = top;
position = "{445, 740}";
}
);
layerId = "005AA5DB-9C20-42D5-964E-7DFE1013E61C";
name = "Bold Italic";
paths = (
{
closed = 1;
nodes = (
"385 0 LINE",
"463 368 LINE",
"442 293 LINE",
"797 740 LINE",
"593 740 LINE",
"336 367 LINE",
"406 367 LINE",
"314 740 LINE",
"110 740 LINE",
"270 291 LINE",
"279 370 LINE",
"201 0 LINE"
);
}
);
width = 696;
},
{
anchors = (
{
name = top;
position = "{354, 740}";
}
);
layerId = "D0F50BF8-B137-4291-8B58-E185C78D1B48";
name = "Light Italic";
paths = (
{
closed = 1;
nodes = (
"217 0 LINE",
"288 335 LINE",
"261 289 LINE",
"617 740 LINE",
"586 740 LINE",
"268 333 LINE",
"283 331 LINE",
"138 740 LINE",
"114 740 LINE",
"270 295 LINE",
"264 337 LINE",
"193 0 LINE"
);
}
);
width = 532;
}
);
leftKerningGroup = Y;
rightKerningGroup = Y;
unicode = 0059;
},
{
glyphname = Z;
lastChange = "2016-03-13 11:16:01 +0000";
layers = (
{
anchors = (
{
name = top;
position = "{375, 740}";
}
);
layerId = "284DCAF7-AB20-402F-AEDF-E1CEEB9773D4";
name = "Regular Italic";
paths = (
{
closed = 1;
nodes = (
"530 0 LINE",
"556 74 LINE",
"94 74 LINE",
"105 39 LINE",
"621 686 LINE",
"632 740 LINE",
"165 740 LINE",
"150 666 LINE",
"543 666 LINE",
"527 701 LINE",
"13 56 LINE",
"1 0 LINE"
);
}
);
width = 624;
},
{
anchors = (
{
name = top;
position = "{403, 740}";
}
);
layerId = "005AA5DB-9C20-42D5-964E-7DFE1013E61C";
name = "Bold Italic";
paths = (
{
closed = 1;
nodes = (
"563 0 LINE",
"602 136 LINE",
"207 136 LINE",
"205 72 LINE",
"668 661 LINE",
"685 740 LINE",
"154 740 LINE",
"125 604 LINE",
"492 604 LINE",
"457 668 LINE",
"-4 83 LINE",
"-22 0 LINE"
);
}
);
width = 648;
},
{
anchors = (
{
name = top;
position = "{376, 740}";
}
);
layerId = "D0F50BF8-B137-4291-8B58-E185C78D1B48";
name = "Light Italic";
paths = (
{
closed = 1;
nodes = (
"469 0 LINE",
"484 23 LINE",
"17 23 LINE",
"31 12 LINE",
"589 728 LINE",
"591 740 LINE",
"174 740 LINE",
"169 717 LINE",
"577 717 LINE",
"560 728 LINE",
"1 12 LINE",
"-2 0 LINE"
);
}
);
width = 564;
}
);
leftKerningGroup = Z;
rightKerningGroup = Z;
unicode = 005A;
},
{
glyphname = a;
lastChange = "2016-02-25 12:59:28 +0000";
layers = (
{
anchors = (
{
name = ogonek;
position = "{222, 0}";
},
{
name = top;
position = "{350, 520}";
}
);
layerId = "284DCAF7-AB20-402F-AEDF-E1CEEB9773D4";
name = "Regular Italic";
paths = (
{
closed = 1;
nodes = (
"294 -14 OFFCURVE",
"357 33 OFFCURVE",
"433 149 CURVE",
"429 240 LINE",
"377 115 OFFCURVE",
"304 56 OFFCURVE",
"236 56 CURVE SMOOTH",
"172 56 OFFCURVE",
"129 97 OFFCURVE",
"129 179 CURVE SMOOTH",
"129 348 OFFCURVE",
"221 464 OFFCURVE",
"355 464 CURVE SMOOTH",
"406 464 OFFCURVE",
"454 454 OFFCURVE",
"512 432 CURVE",
"541 498 LINE",
"494 521 OFFCURVE",
"428 534 OFFCURVE",
"365 534 CURVE SMOOTH",
"160 534 OFFCURVE",
"36 363 OFFCURVE",
"36 178 CURVE SMOOTH",
"36 53 OFFCURVE",
"105 -14 OFFCURVE",
"198 -14 CURVE SMOOTH"
);
},
{
closed = 1;
nodes = (
"443 0 LINE",
"442 38 OFFCURVE",
"445 72 OFFCURVE",
"461 144 CURVE SMOOTH",
"541 498 LINE",
"450 488 LINE",
"358 76 LINE",
"357 -6 LINE"
);
}
);
width = 565;
},
{
anchors = (
{
name = ogonek;
position = "{517, 0}";
},
{
name = top;
position = "{375, 520}";
}
);
layerId = "005AA5DB-9C20-42D5-964E-7DFE1013E61C";
name = "Bold Italic";
paths = (
{
closed = 1;
nodes = (
"271 -14 OFFCURVE",
"379 46 OFFCURVE",
"407 108 CURVE",
"356 175 LINE",
"339 142 OFFCURVE",
"313 122 OFFCURVE",
"280 122 CURVE SMOOTH",
"240 122 OFFCURVE",
"213 146 OFFCURVE",
"213 205 CURVE SMOOTH",
"213 321 OFFCURVE",
"281 402 OFFCURVE",
"349 402 CURVE SMOOTH",
"391 402 OFFCURVE",
"403 393 OFFCURVE",
"406 379 CURVE",
"604 503 LINE",
"541 525 OFFCURVE",
"475 538 OFFCURVE",
"400 538 CURVE SMOOTH",
"144 538 OFFCURVE",
"23 384 OFFCURVE",
"23 167 CURVE SMOOTH",
"23 32 OFFCURVE",
"104 -14 OFFCURVE",
"182 -14 CURVE SMOOTH"
);
},
{
closed = 1;
nodes = (
"506 0 LINE",
"505 45 OFFCURVE",
"508 92 OFFCURVE",
"518 136 CURVE SMOOTH",
"602 502 LINE",
"421 492 LINE",
"332 102 LINE",
"337 -2 LINE"
);
}
);
width = 611;
},
{
anchors = (
{
name = ogonek;
position = "{388, 0}";
},
{
name = top;
position = "{335, 520}";
}
);
layerId = "D0F50BF8-B137-4291-8B58-E185C78D1B48";
name = "Light Italic";
paths = (
{
closed = 1;
nodes = (
"259 -14 OFFCURVE",
"329 10 OFFCURVE",
"383 60 CURVE",
"385 82 LINE",
"325 30 OFFCURVE",
"268 9 OFFCURVE",
"209 9 CURVE SMOOTH",
"128 9 OFFCURVE",
"75 51 OFFCURVE",
"75 157 CURVE SMOOTH",
"75 372 OFFCURVE",
"195 507 OFFCURVE",
"339 507 CURVE SMOOTH",
"395 507 OFFCURVE",
"446 499 OFFCURVE",
"479 484 CURVE",
"487 503 LINE",
"456 521 OFFCURVE",
"406 530 OFFCURVE",
"344 530 CURVE SMOOTH",
"150 530 OFFCURVE",
"50 349 OFFCURVE",
"50 156 CURVE SMOOTH",
"50 37 OFFCURVE",
"111 -14 OFFCURVE",
"205 -14 CURVE SMOOTH"
);
},
{
closed = 1;
nodes = (
"388 0 LINE",
"386 34 OFFCURVE",
"386 57 OFFCURVE",
"396 102 CURVE SMOOTH",
"487 503 LINE",
"462 497 LINE",
"362 53 LINE",
"365 -1 LINE"
);
}
);
width = 521;
}
);
leftKerningGroup = a;
leftMetricsKey = d;
rightKerningGroup = n;
unicode = 0061;
},
{
glyphname = ae;
lastChange = "2015-10-31 11:26:45 +0000";
layers = (
{
components = (
{
name = e;
transform = "{1, 0, 0, 1, 334, 0}";
}
);
layerId = "D0F50BF8-B137-4291-8B58-E185C78D1B48";
leftMetricsKey = "=a";
rightMetricsKey = "=e";
name = "Light Italic";
paths = (
{
closed = 1;
nodes = (
"226 -14 OFFCURVE",
"326 25 OFFCURVE",
"396 145 CURVE",
"390 170 LINE",
"338 70 OFFCURVE",
"239 9 OFFCURVE",
"168 9 CURVE SMOOTH",
"109 9 OFFCURVE",
"57 39 OFFCURVE",
"57 111 CURVE SMOOTH",
"57 204 OFFCURVE",
"153 259 OFFCURVE",
"271 259 CURVE SMOOTH",
"326 259 OFFCURVE",
"365 255 OFFCURVE",
"400 245 CURVE",
"404 265 LINE",
"373 275 OFFCURVE",
"327 282 OFFCURVE",
"277 282 CURVE SMOOTH",
"142 282 OFFCURVE",
"31 215 OFFCURVE",
"31 111 CURVE SMOOTH",
"31 19 OFFCURVE",
"92 -14 OFFCURVE",
"168 -14 CURVE SMOOTH"
);
},
{
closed = 1;
nodes = (
"436 378 OFFCURVE",
"439 398 OFFCURVE",
"439 418 CURVE SMOOTH",
"439 487 OFFCURVE",
"398 532 OFFCURVE",
"310 532 CURVE SMOOTH",
"251 532 OFFCURVE",
"197 515 OFFCURVE",
"147 487 CURVE",
"153 468 LINE",
"205 495 OFFCURVE",
"250 509 OFFCURVE",
"308 509 CURVE SMOOTH",
"385 509 OFFCURVE",
"417 475 OFFCURVE",
"417 418 CURVE SMOOTH",
"417 387 OFFCURVE",
"414 368 OFFCURVE",
"394 266 CURVE",
"412 263 LINE"
);
}
);
width = 784;
},
{
components = (
{
name = e;
transform = "{1, 0, 0, 1, 304, 0}";
}
);
layerId = "284DCAF7-AB20-402F-AEDF-E1CEEB9773D4";
rightMetricsKey = "=e";
name = "Regular Italic";
paths = (
{
closed = 1;
nodes = (
"264 -14 OFFCURVE",
"334 18 OFFCURVE",
"397 81 CURVE",
"364 130 LINE",
"324 85 OFFCURVE",
"276 56 OFFCURVE",
"226 56 CURVE SMOOTH",
"174 56 OFFCURVE",
"134 81 OFFCURVE",
"134 129 CURVE SMOOTH",
"134 210 OFFCURVE",
"211 228 OFFCURVE",
"271 228 CURVE SMOOTH",
"292 228 OFFCURVE",
"326 227 OFFCURVE",
"357 222 CURVE",
"370 287 LINE",
"341 293 OFFCURVE",
"309 296 OFFCURVE",
"280 296 CURVE SMOOTH",
"152 296 OFFCURVE",
"41 247 OFFCURVE",
"41 117 CURVE SMOOTH",
"41 31 OFFCURVE",
"102 -14 OFFCURVE",
"198 -14 CURVE SMOOTH"
);
},
{
closed = 1;
nodes = (
"440 346 OFFCURVE",
"445 373 OFFCURVE",
"445 405 CURVE SMOOTH",
"445 490 OFFCURVE",
"386 534 OFFCURVE",
"308 534 CURVE SMOOTH",
"246 534 OFFCURVE",
"194 523 OFFCURVE",
"128 489 CURVE",
"140 431 LINE",
"192 454 OFFCURVE",
"233 464 OFFCURVE",
"274 464 CURVE SMOOTH",
"341 464 OFFCURVE",
"376 430 OFFCURVE",
"376 385 CURVE SMOOTH",
"376 363 OFFCURVE",
"374 349 OFFCURVE",
"358 277 CURVE",
"426 278 LINE"
);
}
);
width = 791;
},
{
components = (
{
name = e;
transform = "{1, 0, 0, 1, 306, 0}";
}
);
layerId = "005AA5DB-9C20-42D5-964E-7DFE1013E61C";
leftMetricsKey = "=a";
rightMetricsKey = "=e";
name = "Bold Italic";
paths = (
{
closed = 1;
nodes = (
"254 -14 OFFCURVE",
"312 10 OFFCURVE",
"399 86 CURVE",
"351 149 LINE",
"318 125 OFFCURVE",
"284 116 OFFCURVE",
"252 116 CURVE SMOOTH",
"217 116 OFFCURVE",
"190 127 OFFCURVE",
"190 158 CURVE SMOOTH",
"190 201 OFFCURVE",
"231 221 OFFCURVE",
"293 221 CURVE SMOOTH",
"312 221 OFFCURVE",
"333 219 OFFCURVE",
"350 215 CURVE",
"371 312 LINE",
"347 321 OFFCURVE",
"317 326 OFFCURVE",
"285 326 CURVE SMOOTH",
"125 326 OFFCURVE",
"7 260 OFFCURVE",
"7 126 CURVE SMOOTH",
"7 34 OFFCURVE",
"75 -14 OFFCURVE",
"170 -14 CURVE SMOOTH"
);
},
{
closed = 1;
nodes = (
"481 317 OFFCURVE",
"492 365 OFFCURVE",
"492 408 CURVE SMOOTH",
"492 499 OFFCURVE",
"439 538 OFFCURVE",
"323 538 CURVE SMOOTH",
"260 538 OFFCURVE",
"190 519 OFFCURVE",
"112 477 CURVE",
"140 367 LINE",
"200 396 OFFCURVE",
"235 402 OFFCURVE",
"280 402 CURVE SMOOTH",
"332 402 OFFCURVE",
"371 389 OFFCURVE",
"371 346 CURVE SMOOTH",
"371 333 OFFCURVE",
"369 324 OFFCURVE",
"356 287 CURVE",
"461 252 LINE"
);
}
);
width = 855;
}
);
leftKerningGroup = a;
rightKerningGroup = e;
rightMetricsKey = e;
unicode = 00E6;
},
{
glyphname = b;
lastChange = "2016-03-13 11:14:37 +0000";
layers = (
{
components = (
{
name = _part.smallbowl;
transform = "{-1, 0, 0, -1, 540, 520}";
}
);
layerId = "284DCAF7-AB20-402F-AEDF-E1CEEB9773D4";
leftMetricsKey = "=l";
rightMetricsKey = "=o";
name = "Regular Italic";
paths = (
{
closed = 1;
nodes = (
"120 22 LINE",
"276 760 LINE",
"186 749 LINE",
"32 22 LINE"
);
}
);
width = 573;
},
{
components = (
{
name = _part.smallbowl;
transform = "{-1, 0, 0, -1, 586, 524}";
}
);
layerId = "005AA5DB-9C20-42D5-964E-7DFE1013E61C";
leftMetricsKey = "=l";
name = "Bold Italic";
paths = (
{
closed = 1;
nodes = (
"181 21 LINE",
"337 755 LINE",
"155 745 LINE",
"2 21 LINE"
);
}
);
width = 613;
},
{
components = (
{
name = _part.smallbowl;
transform = "{-1, 0, 0, -1, 477, 516}";
}
);
layerId = "D0F50BF8-B137-4291-8B58-E185C78D1B48";
leftMetricsKey = "=l";
name = "Light Italic";
paths = (
{
closed = 1;
nodes = (
"64 13 LINE",
"222 760 LINE",
"197 754 LINE",
"40 13 LINE"
);
}
);
width = 529;
}
);
leftKerningGroup = h;
leftMetricsKey = h;
rightKerningGroup = o;
unicode = 0062;
},
{
glyphname = c;
lastChange = "2016-02-25 12:59:28 +0000";
layers = (
{
anchors = (
{
name = bottom;
position = "{222, 0}";
},
{
name = top;
position = "{324, 520}";
}
);
layerId = "284DCAF7-AB20-402F-AEDF-E1CEEB9773D4";
leftMetricsKey = "=o";
name = "Regular Italic";
paths = (
{
closed = 1;
nodes = (
"297 -14 OFFCURVE",
"346 -4 OFFCURVE",
"399 18 CURVE",
"396 78 LINE",
"349 62 OFFCURVE",
"310 56 OFFCURVE",
"275 56 CURVE SMOOTH",
"184 56 OFFCURVE",
"128 94 OFFCURVE",
"128 195 CURVE SMOOTH",
"128 334 OFFCURVE",
"216 464 OFFCURVE",
"347 464 CURVE SMOOTH",
"378 464 OFFCURVE",
"422 458 OFFCURVE",
"461 444 CURVE",
"489 505 LINE",
"460 522 OFFCURVE",
"409 534 OFFCURVE",
"354 534 CURVE SMOOTH",
"154 534 OFFCURVE",
"37 356 OFFCURVE",
"37 189 CURVE SMOOTH",
"37 49 OFFCURVE",
"120 -14 OFFCURVE",
"243 -14 CURVE SMOOTH"
);
}
);
width = 476;
},
{
anchors = (
{
name = bottom;
position = "{215, 0}";
},
{
name = top;
position = "{332, 520}";
}
);
layerId = "005AA5DB-9C20-42D5-964E-7DFE1013E61C";
name = "Bold Italic";
paths = (
{
closed = 1;
nodes = (
"312 -14 OFFCURVE",
"364 -1 OFFCURVE",
"429 29 CURVE",
"419 139 LINE",
"385 127 OFFCURVE",
"356 122 OFFCURVE",
"318 122 CURVE SMOOTH",
"251 122 OFFCURVE",
"209 151 OFFCURVE",
"209 223 CURVE SMOOTH",
"209 328 OFFCURVE",
"276 402 OFFCURVE",
"373 402 CURVE SMOOTH",
"410 402 OFFCURVE",
"441 398 OFFCURVE",
"469 385 CURVE",
"524 498 LINE",
"483 522 OFFCURVE",
"433 538 OFFCURVE",
"360 538 CURVE SMOOTH",
"173 538 OFFCURVE",
"25 395 OFFCURVE",
"25 190 CURVE SMOOTH",
"25 42 OFFCURVE",
"117 -14 OFFCURVE",
"239 -14 CURVE SMOOTH"
);
}
);
width = 498;
},
{
anchors = (
{
name = bottom;
position = "{220, 0}";
},
{
name = top;
position = "{332, 520}";
}
);
layerId = "D0F50BF8-B137-4291-8B58-E185C78D1B48";
name = "Light Italic";
paths = (
{
closed = 1;
nodes = (
"269 -14 OFFCURVE",
"312 -4 OFFCURVE",
"377 27 CURVE",
"374 47 LINE",
"323 22 OFFCURVE",
"276 9 OFFCURVE",
"231 9 CURVE SMOOTH",
"138 9 OFFCURVE",
"79 60 OFFCURVE",
"79 181 CURVE SMOOTH",
"79 360 OFFCURVE",
"189 507 OFFCURVE",
"347 507 CURVE SMOOTH",
"387 507 OFFCURVE",
"431 499 OFFCURVE",
"460 481 CURVE",
"471 500 LINE",
"441 519 OFFCURVE",
"391 530 OFFCURVE",
"347 530 CURVE SMOOTH",
"172 530 OFFCURVE",
"53 367 OFFCURVE",
"53 180 CURVE SMOOTH",
"53 38 OFFCURVE",
"127 -14 OFFCURVE",
"229 -14 CURVE SMOOTH"
);
}
);
width = 461;
}
);
leftKerningGroup = o;
leftMetricsKey = d;
rightKerningGroup = c;
unicode = 0063;
},
{
glyphname = d;
lastChange = "2016-03-13 11:16:09 +0000";
layers = (
{
anchors = (
{
name = center;
position = "{489, 629}";
}
);
components = (
{
name = _part.smallbowl;
transform = "{1, 0, 0, 1, 33, 0}";
}
);
layerId = "284DCAF7-AB20-402F-AEDF-E1CEEB9773D4";
leftMetricsKey = "=o";
rightMetricsKey = "=l";
name = "Regular Italic";
paths = (
{
closed = 1;
nodes = (
"441 31 LINE",
"596 760 LINE",
"505 750 LINE",
"353 31 LINE"
);
}
);
width = 573;
},
{
anchors = (
{
name = center;
position = "{504, 629}";
}
);
components = (
{
name = _part.smallbowl;
transform = "{1, 0, 0, 1, 28, 0}";
}
);
layerId = "005AA5DB-9C20-42D5-964E-7DFE1013E61C";
rightMetricsKey = "=l";
name = "Bold Italic";
paths = (
{
closed = 1;
nodes = (
"510 22 LINE",
"666 755 LINE",
"484 745 LINE",
"331 22 LINE"
);
}
);
width = 613;
},
{
anchors = (
{
name = center;
position = "{462, 629}";
}
);
components = (
{
name = _part.smallbowl;
transform = "{1, 0, 0, 1, 51, 0}";
}
);
layerId = "D0F50BF8-B137-4291-8B58-E185C78D1B48";
rightMetricsKey = "=l";
name = "Light Italic";
paths = (
{
closed = 1;
nodes = (
"384 17 LINE",
"543 760 LINE",
"518 754 LINE",
"360 17 LINE"
);
}
);
width = 529;
}
);
leftKerningGroup = o;
rightKerningGroup = l;
rightMetricsKey = l;
unicode = 0064;
},
{
glyphname = eth;
lastChange = "2015-10-31 11:26:45 +0000";
layers = (
{
layerId = "D0F50BF8-B137-4291-8B58-E185C78D1B48";
name = "Light Italic";
paths = (
{
closed = 1;
nodes = (
"380 -14 OFFCURVE",
"513 139 OFFCURVE",
"513 432 CURVE SMOOTH",
"513 541 OFFCURVE",
"479 685 OFFCURVE",
"358 760 CURVE",
"338 746 LINE",
"443 675 OFFCURVE",
"488 569 OFFCURVE",
"488 434 CURVE SMOOTH",
"488 189 OFFCURVE",
"390 9 OFFCURVE",
"227 9 CURVE SMOOTH",
"139 9 OFFCURVE",
"80 67 OFFCURVE",
"80 185 CURVE SMOOTH",
"80 378 OFFCURVE",
"200 501 OFFCURVE",
"358 501 CURVE SMOOTH",
"406 501 OFFCURVE",
"451 490 OFFCURVE",
"505 465 CURVE",
"500 486 LINE",
"460 512 OFFCURVE",
"417 524 OFFCURVE",
"363 524 CURVE SMOOTH",
"151 524 OFFCURVE",
"54 352 OFFCURVE",
"54 185 CURVE SMOOTH",
"54 49 OFFCURVE",
"123 -14 OFFCURVE",
"226 -14 CURVE SMOOTH"
);
},
{
closed = 1;
nodes = (
"535 682 LINE",
"533 703 LINE",
"339 638 LINE",
"341 617 LINE"
);
}
);
width = 576;
},
{
layerId = "284DCAF7-AB20-402F-AEDF-E1CEEB9773D4";
name = "Regular Italic";
paths = (
{
closed = 1;
nodes = (
"389 -14 OFFCURVE",
"567 100 OFFCURVE",
"567 441 CURVE SMOOTH",
"567 572 OFFCURVE",
"524 690 OFFCURVE",
"401 760 CURVE",
"304 722 LINE",
"438 660 OFFCURVE",
"479 584 OFFCURVE",
"479 431 CURVE SMOOTH",
"479 196 OFFCURVE",
"372 56 OFFCURVE",
"255 56 CURVE SMOOTH",
"181 56 OFFCURVE",
"133 98 OFFCURVE",
"133 195 CURVE SMOOTH",
"133 370 OFFCURVE",
"243 464 OFFCURVE",
"347 464 CURVE SMOOTH",
"410 464 OFFCURVE",
"449 443 OFFCURVE",
"481 408 CURVE",
"492 458 LINE",
"475 505 OFFCURVE",
"433 534 OFFCURVE",
"353 534 CURVE SMOOTH",
"174 534 OFFCURVE",
"38 390 OFFCURVE",
"38 185 CURVE SMOOTH",
"38 52 OFFCURVE",
"128 -14 OFFCURVE",
"243 -14 CURVE SMOOTH"
);
},
{
closed = 1;
nodes = (
"608 673 LINE",
"597 735 LINE",
"301 611 LINE",
"313 549 LINE"
);
}
);
width = 627;
},
{
layerId = "005AA5DB-9C20-42D5-964E-7DFE1013E61C";
leftMetricsKey = "=d";
name = "Bold Italic";
paths = (
{
closed = 1;
nodes = (
"457 -14 OFFCURVE",
"621 97 OFFCURVE",
"621 402 CURVE SMOOTH",
"621 552 OFFCURVE",
"563 681 OFFCURVE",
"446 760 CURVE",
"260 712 LINE",
"398 624 OFFCURVE",
"440 572 OFFCURVE",
"440 409 CURVE SMOOTH",
"440 183 OFFCURVE",
"366 120 OFFCURVE",
"293 120 CURVE SMOOTH",
"245 120 OFFCURVE",
"215 155 OFFCURVE",
"215 228 CURVE SMOOTH",
"215 338 OFFCURVE",
"272 404 OFFCURVE",
"347 404 CURVE SMOOTH",
"412 404 OFFCURVE",
"453 388 OFFCURVE",
"468 353 CURVE",
"483 317 LINE",
"496 477 OFFCURVE",
"443 538 OFFCURVE",
"333 538 CURVE SMOOTH",
"191 538 OFFCURVE",
"30 428 OFFCURVE",
"30 217 CURVE SMOOTH",
"30 68 OFFCURVE",
"136 -14 OFFCURVE",
"277 -14 CURVE SMOOTH"
);
},
{
closed = 1;
nodes = (
"624 649 LINE",
"613 727 LINE",
"278 632 LINE",
"288 554 LINE"
);
}
);
width = 664;
}
);
leftKerningGroup = eth;
leftMetricsKey = d;
rightKerningGroup = eth;
unicode = 00F0;
},
{
glyphname = e;
lastChange = "2016-02-25 12:59:28 +0000";
layers = (
{
anchors = (
{
name = bottom;
position = "{220, 0}";
},
{
name = top;
position = "{308, 520}";
}
);
layerId = "284DCAF7-AB20-402F-AEDF-E1CEEB9773D4";
name = "Regular Italic";
paths = (
{
closed = 1;
nodes = (
"292 -14 OFFCURVE",
"341 -4 OFFCURVE",
"403 23 CURVE",
"395 85 LINE",
"342 67 OFFCURVE",
"297 58 OFFCURVE",
"252 58 CURVE SMOOTH",
"161 58 OFFCURVE",
"103 119 OFFCURVE",
"135 266 CURVE",
"136 270 LINE",
"161 397 OFFCURVE",
"242 464 OFFCURVE",
"323 464 CURVE SMOOTH",
"359 464 OFFCURVE",
"377 438 OFFCURVE",
"377 408 CURVE SMOOTH",
"377 345 OFFCURVE",
"302 281 OFFCURVE",
"128 281 CURVE",
"114 215 LINE",
"338 215 OFFCURVE",
"464 314 OFFCURVE",
"464 423 CURVE SMOOTH",
"464 486 OFFCURVE",
"416 534 OFFCURVE",
"343 534 CURVE SMOOTH",
"148 534 OFFCURVE",
"36 348 OFFCURVE",
"36 180 CURVE SMOOTH",
"36 44 OFFCURVE",
"125 -14 OFFCURVE",
"233 -14 CURVE SMOOTH"
);
}
);
width = 487;
},
{
anchors = (
{
name = bottom;
position = "{249, 0}";
},
{
name = top;
position = "{319, 520}";
}
);
layerId = "005AA5DB-9C20-42D5-964E-7DFE1013E61C";
name = "Bold Italic";
paths = (
{
closed = 1;
nodes = (
"310 -14 OFFCURVE",
"393 5 OFFCURVE",
"466 46 CURVE",
"451 159 LINE",
"390 133 OFFCURVE",
"351 125 OFFCURVE",
"315 125 CURVE SMOOTH",
"221 125 OFFCURVE",
"193 162 OFFCURVE",
"211 262 CURVE",
"219 287 LINE",
"233 347 OFFCURVE",
"267 399 OFFCURVE",
"306 399 CURVE SMOOTH",
"329 399 OFFCURVE",
"345 390 OFFCURVE",
"345 365 CURVE SMOOTH",
"345 323 OFFCURVE",
"284 295 OFFCURVE",
"192 295 CURVE",
"172 191 LINE",
"441 191 OFFCURVE",
"517 284 OFFCURVE",
"517 402 CURVE SMOOTH",
"517 478 OFFCURVE",
"459 538 OFFCURVE",
"349 538 CURVE SMOOTH",
"155 538 OFFCURVE",
"26 377 OFFCURVE",
"26 196 CURVE SMOOTH",
"26 48 OFFCURVE",
"115 -14 OFFCURVE",
"230 -14 CURVE SMOOTH"
);
}
);
width = 543;
},
{
anchors = (
{
name = bottom;
position = "{203, 0}";
},
{
name = top;
position = "{290, 520}";
}
);
layerId = "D0F50BF8-B137-4291-8B58-E185C78D1B48";
name = "Light Italic";
paths = (
{
closed = 1;
nodes = (
"254 -14 OFFCURVE",
"304 -4 OFFCURVE",
"369 27 CURVE",
"366 47 LINE",
"316 22 OFFCURVE",
"260 9 OFFCURVE",
"211 9 CURVE SMOOTH",
"103 9 OFFCURVE",
"53 92 OFFCURVE",
"80 246 CURVE",
"83 260 LINE",
"120 424 OFFCURVE",
"213 507 OFFCURVE",
"309 507 CURVE SMOOTH",
"375 507 OFFCURVE",
"396 474 OFFCURVE",
"396 435 CURVE SMOOTH",
"396 348 OFFCURVE",
"290 265 OFFCURVE",
"79 265 CURVE",
"74 243 LINE",
"289 243 OFFCURVE",
"421 329 OFFCURVE",
"421 438 CURVE SMOOTH",
"421 491 OFFCURVE",
"387 530 OFFCURVE",
"315 530 CURVE SMOOTH",
"148 530 OFFCURVE",
"50 336 OFFCURVE",
"50 162 CURVE SMOOTH",
"50 46 OFFCURVE",
"111 -14 OFFCURVE",
"205 -14 CURVE SMOOTH"
);
}
);
width = 450;
}
);
leftKerningGroup = o;
leftMetricsKey = d;
rightKerningGroup = e;
unicode = 0065;
},
{
glyphname = eogonek;
lastChange = "2016-02-22 16:46:07 +0000";
layers = (
{
components = (
{
name = e;
}
);
layerId = "D0F50BF8-B137-4291-8B58-E185C78D1B48";
name = "Light Italic";
paths = (
{
closed = 1;
nodes = (
"190 -198 OFFCURVE",
"175 -182 OFFCURVE",
"175 -154 CURVE SMOOTH",
"175 -97 OFFCURVE",
"220 -40 OFFCURVE",
"369 27 CURVE",
"304 7 LINE",
"217 -24 OFFCURVE",
"150 -89 OFFCURVE",
"150 -160 CURVE SMOOTH",
"150 -202 OFFCURVE",
"175 -220 OFFCURVE",
"215 -220 CURVE SMOOTH",
"235 -220 OFFCURVE",
"257 -214 OFFCURVE",
"279 -201 CURVE",
"286 -178 LINE",
"262 -191 OFFCURVE",
"239 -198 OFFCURVE",
"217 -198 CURVE SMOOTH"
);
}
);
width = 450;
},
{
components = (
{
name = e;
}
);
layerId = "284DCAF7-AB20-402F-AEDF-E1CEEB9773D4";
name = "Regular Italic";
paths = (
{
closed = 1;
nodes = (
"285 -165 OFFCURVE",
"267 -149 OFFCURVE",
"267 -119 CURVE SMOOTH",
"267 -67 OFFCURVE",
"296 -25 OFFCURVE",
"403 23 CURVE",
"303 10 LINE",
"242 -13 OFFCURVE",
"181 -76 OFFCURVE",
"181 -139 CURVE SMOOTH",
"181 -193 OFFCURVE",
"218 -220 OFFCURVE",
"269 -220 CURVE SMOOTH",
"297 -220 OFFCURVE",
"321 -213 OFFCURVE",
"347 -197 CURVE",
"361 -156 LINE",
"344 -162 OFFCURVE",
"328 -165 OFFCURVE",
"315 -165 CURVE SMOOTH"
);
}
);
width = 487;
},
{
components = (
{
name = e;
}
);
layerId = "005AA5DB-9C20-42D5-964E-7DFE1013E61C";
name = "Bold Italic";
paths = (
{
closed = 1;
nodes = (
"353 -131 OFFCURVE",
"328 -111 OFFCURVE",
"328 -81 CURVE SMOOTH",
"328 -35 OFFCURVE",
"365 -10 OFFCURVE",
"475 46 CURVE",
"315 8 LINE",
"238 -15 OFFCURVE",
"204 -69 OFFCURVE",
"204 -123 CURVE SMOOTH",
"204 -185 OFFCURVE",
"249 -220 OFFCURVE",
"303 -220 CURVE SMOOTH",
"362 -220 OFFCURVE",
"395 -212 OFFCURVE",
"434 -195 CURVE",
"454 -123 LINE",
"435 -129 OFFCURVE",
"416 -131 OFFCURVE",
"396 -131 CURVE SMOOTH"
);
}
);
width = 549;
}
);
leftKerningGroup = o;
rightKerningGroup = e;
unicode = 0119;
},
{
glyphname = f;
lastChange = "2016-03-13 11:16:15 +0000";
layers = (
{
layerId = "284DCAF7-AB20-402F-AEDF-E1CEEB9773D4";
name = "Regular Italic";
paths = (
{
closed = 1;
nodes = (
"92 -206 LINE",
"254 554 LINE SMOOTH",
"278 666 OFFCURVE",
"319 694 OFFCURVE",
"381 694 CURVE SMOOTH",
"399 694 OFFCURVE",
"415 691 OFFCURVE",
"430 684 CURVE",
"463 734 LINE",
"448 752 OFFCURVE",
"415 764 OFFCURVE",
"380 764 CURVE SMOOTH",
"271 764 OFFCURVE",
"207 700 OFFCURVE",
"177 598 CURVE SMOOTH",
"168 568 OFFCURVE",
"163 547 OFFCURVE",
"153 499 CURVE SMOOTH",
"1 -216 LINE"
);
},
{
closed = 1;
nodes = (
"349 454 LINE",
"372 520 LINE",
"81 520 LINE",
"67 454 LINE"
);
}
);
width = 352;
},
{
layerId = "005AA5DB-9C20-42D5-964E-7DFE1013E61C";
name = "Bold Italic";
paths = (
{
closed = 1;
nodes = (
"176 -207 LINE",
"339 550 LINE SMOOTH",
"350 603 OFFCURVE",
"383 630 OFFCURVE",
"427 630 CURVE SMOOTH",
"445 630 OFFCURVE",
"457 629 OFFCURVE",
"475 626 CURVE",
"530 730 LINE",
"503 751 OFFCURVE",
"462 766 OFFCURVE",
"410 766 CURVE SMOOTH",
"296 766 OFFCURVE",
"202 702 OFFCURVE",
"171 598 CURVE SMOOTH",
"164 574 OFFCURVE",
"161 563 OFFCURVE",
"156 539 CURVE SMOOTH",
"-6 -217 LINE"
);
},
{
closed = 1;
nodes = (
"402 394 LINE",
"447 524 LINE",
"76 524 LINE",
"49 394 LINE"
);
}
);
width = 416;
},
{
layerId = "D0F50BF8-B137-4291-8B58-E185C78D1B48";
name = "Light Italic";
paths = (
{
closed = 1;
nodes = (
"36 -206 LINE",
"202 566 LINE SMOOTH",
"228 687 OFFCURVE",
"271 741 OFFCURVE",
"347 741 CURVE SMOOTH",
"368 741 OFFCURVE",
"383 737 OFFCURVE",
"395 729 CURVE",
"409 744 LINE",
"396 756 OFFCURVE",
"375 764 OFFCURVE",
"349 764 CURVE SMOOTH",
"264 764 OFFCURVE",
"213 701 OFFCURVE",
"190 616 CURVE SMOOTH",
"181 583 OFFCURVE",
"176 562 OFFCURVE",
"165 509 CURVE SMOOTH",
"11 -212 LINE"
);
},
{
closed = 1;
nodes = (
"311 493 LINE",
"320 515 LINE",
"82 515 LINE",
"78 493 LINE"
);
}
);
width = 285;
}
);
leftKerningGroup = f;
rightKerningGroup = f;
unicode = 0066;
},
{
glyphname = g;
lastChange = "2016-03-13 11:16:23 +0000";
layers = (
{
anchors = (
{
name = top;
position = "{360, 520}";
}
);
components = (
{
name = _part.smallbowl;
transform = "{1, 0, 0, 1, 18, 0}";
piece = {
bowlV = -100;
};
}
);
layerId = "005AA5DB-9C20-42D5-964E-7DFE1013E61C";
rightMetricsKey = "=l";
name = "Bold Italic";
paths = (
{
closed = 1;
nodes = (
"356 -220 OFFCURVE",
"471 -149 OFFCURVE",
"503 2 CURVE SMOOTH",
"609 502 LINE",
"430 502 LINE",
"333 50 LINE",
"333 -46 OFFCURVE",
"285 -83 OFFCURVE",
"193 -83 CURVE SMOOTH",
"135 -83 OFFCURVE",
"83 -77 OFFCURVE",
"39 -53 CURVE",
"-4 -170 LINE",
"39 -202 OFFCURVE",
"103 -220 OFFCURVE",
"201 -220 CURVE SMOOTH"
);
}
);
width = 610;
},
{
anchors = (
{
name = top;
position = "{333, 520}";
}
);
components = (
{
name = _part.smallbowl;
transform = "{1, 0, 0, 1, 51, 0}";
piece = {
bowlV = -100;
};
}
);
layerId = "D0F50BF8-B137-4291-8B58-E185C78D1B48";
name = "Light Italic";
paths = (
{
closed = 1;
nodes = (
"240 -220 OFFCURVE",
"346 -168 OFFCURVE",
"382 2 CURVE SMOOTH",
"488 503 LINE",
"464 503 LINE",
"365 23 LINE",
"336 -138 OFFCURVE",
"246 -197 OFFCURVE",
"143 -197 CURVE SMOOTH",
"87 -197 OFFCURVE",
"53 -182 OFFCURVE",
"9 -153 CURVE",
"-5 -174 LINE",
"38 -206 OFFCURVE",
"83 -220 OFFCURVE",
"139 -220 CURVE SMOOTH"
);
}
);
width = 522;
},
{
anchors = (
{
name = top;
position = "{355, 520}";
}
);
components = (
{
name = _part.smallbowl;
transform = "{1, 0, 0, 1, 33, 0}";
piece = {
bowlV = -100;
};
}
);
layerId = "284DCAF7-AB20-402F-AEDF-E1CEEB9773D4";
rightMetricsKey = "=l";
name = "Regular Italic";
paths = (
{
closed = 1;
nodes = (
"313 -220 OFFCURVE",
"404 -149 OFFCURVE",
"442 32 CURVE SMOOTH",
"541 498 LINE",
"450 488 LINE",
"358 50 LINE",
"334 -99 OFFCURVE",
"273 -150 OFFCURVE",
"166 -150 CURVE SMOOTH",
"128 -150 OFFCURVE",
"76 -143 OFFCURVE",
"32 -121 CURVE",
"0 -178 LINE",
"43 -206 OFFCURVE",
"106 -220 OFFCURVE",
"154 -220 CURVE SMOOTH"
);
}
);
width = 572;
}
);
leftKerningGroup = g;
leftMetricsKey = d;
rightKerningGroup = g;
rightMetricsKey = "=l-7";
unicode = 0067;
},
{
glyphname = h;
lastChange = "2016-03-13 11:16:26 +0000";
layers = (
{
anchors = (
{
name = center;
position = "{235, 606}";
}
);
components = (
{
name = elem.smallstem01;
transform = "{1, 0, 0, 1, 72, 0}";
}
);
layerId = "284DCAF7-AB20-402F-AEDF-E1CEEB9773D4";
leftMetricsKey = "=l";
name = "Regular Italic";
paths = (
{
closed = 1;
nodes = (
"444 0 LINE",
"505 290 LINE SMOOTH",
"517 347 OFFCURVE",
"521 373 OFFCURVE",
"521 405 CURVE SMOOTH",
"521 474 OFFCURVE",
"481 534 OFFCURVE",
"376 534 CURVE SMOOTH",
"308 534 OFFCURVE",
"235 505 OFFCURVE",
"169 455 CURVE",
"184 401 LINE",
"238 443 OFFCURVE",
"289 464 OFFCURVE",
"341 464 CURVE SMOOTH",
"402 464 OFFCURVE",
"429 440 OFFCURVE",
"429 378 CURVE SMOOTH",
"429 354 OFFCURVE",
"425 326 OFFCURVE",
"418 291 CURVE SMOOTH",
"356 0 LINE"
);
}
);
width = 570;
},
{
anchors = (
{
name = center;
position = "{248, 637}";
}
);
components = (
{
name = elem.smallstem01;
transform = "{1, 0, 0, 1, 42, 0}";
}
);
layerId = "005AA5DB-9C20-42D5-964E-7DFE1013E61C";
leftMetricsKey = "=l";
rightMetricsKey = "=n";
name = "Bold Italic";
paths = (
{
closed = 1;
nodes = (
"507 0 LINE",
"567 284 LINE SMOOTH",
"577 334 OFFCURVE",
"582 361 OFFCURVE",
"582 392 CURVE SMOOTH",
"582 477 OFFCURVE",
"534 538 OFFCURVE",
"430 538 CURVE SMOOTH",
"356 538 OFFCURVE",
"255 485 OFFCURVE",
"158 385 CURVE",
"200 327 LINE",
"226 374 OFFCURVE",
"275 402 OFFCURVE",
"329 402 CURVE SMOOTH",
"369 402 OFFCURVE",
"394 382 OFFCURVE",
"394 336 CURVE SMOOTH",
"394 324 OFFCURVE",
"392 309 OFFCURVE",
"389 294 CURVE SMOOTH",
"327 0 LINE"
);
}
);
width = 610;
},
{
anchors = (
{
name = center;
position = "{226, 640}";
}
);
components = (
{
name = elem.smallstem01;
transform = "{1, 0, 0, 1, 82, 0}";
}
);
layerId = "D0F50BF8-B137-4291-8B58-E185C78D1B48";
leftMetricsKey = "=l";
name = "Light Italic";
paths = (
{
closed = 1;
nodes = (
"389 0 LINE",
"458 321 LINE SMOOTH",
"468 368 OFFCURVE",
"471 392 OFFCURVE",
"471 412 CURVE SMOOTH",
"471 491 OFFCURVE",
"423 530 OFFCURVE",
"331 530 CURVE SMOOTH",
"272 530 OFFCURVE",
"207 510 OFFCURVE",
"147 477 CURVE",
"141 451 LINE",
"216 490 OFFCURVE",
"272 507 OFFCURVE",
"327 507 CURVE SMOOTH",
"407 507 OFFCURVE",
"447 475 OFFCURVE",
"447 412 CURVE SMOOTH",
"447 390 OFFCURVE",
"442 359 OFFCURVE",
"435 327 CURVE SMOOTH",
"365 0 LINE"
);
}
);
width = 528;
}
);
leftKerningGroup = h;
leftMetricsKey = l;
rightKerningGroup = n;
rightMetricsKey = n;
unicode = 0068;
},
{
glyphname = dotlessi;
lastChange = "2016-02-09 15:03:31 +0000";
layers = (
{
anchors = (
{
name = ogonek;
position = "{183, 10}";
},
{
name = top;
position = "{160, 520}";
}
);
layerId = "D0F50BF8-B137-4291-8B58-E185C78D1B48";
leftMetricsKey = "=l";
rightMetricsKey = "=l";
name = "Light Italic";
paths = (
{
closed = 1;
nodes = (
"61 0 LINE",
"171 519 LINE",
"146 513 LINE",
"37 0 LINE"
);
}
);
width = 208;
},
{
anchors = (
{
name = ogonek;
position = "{234, 10}";
},
{
name = top;
position = "{180, 520}";
}
);
layerId = "284DCAF7-AB20-402F-AEDF-E1CEEB9773D4";
leftMetricsKey = "=l";
rightMetricsKey = "=l";
name = "Regular Italic";
paths = (
{
closed = 1;
nodes = (
"115 0 LINE",
"229 530 LINE",
"138 520 LINE",
"27 0 LINE"
);
}
);
width = 254;
},
{
anchors = (
{
name = ogonek;
position = "{124, 0}";
},
{
name = top;
position = "{195, 520}";
}
);
layerId = "005AA5DB-9C20-42D5-964E-7DFE1013E61C";
leftMetricsKey = "=l";
rightMetricsKey = "=l";
name = "Bold Italic";
paths = (
{
closed = 1;
nodes = (
"176 0 LINE",
"289 529 LINE",
"107 519 LINE",
"-3 0 LINE"
);
}
);
width = 284;
}
);
leftKerningGroup = i;
leftMetricsKey = l;
rightKerningGroup = i;
rightMetricsKey = l;
unicode = 0131;
},
{
glyphname = iogonek;
lastChange = "2015-06-30 14:08:26 +0000";
layers = (
{
components = (
{
name = elem.ogonekunder;
transform = "{1, 0, 0, 1, -386, 0}";
},
{
name = i;
transform = "{1, 0, 0, 1, 5, 0}";
}
);
layerId = "D0F50BF8-B137-4291-8B58-E185C78D1B48";
name = "Light Italic";
paths = (
{
closed = 1;
nodes = (
"-70 -151 LINE",
"-70 -93 OFFCURVE",
"-11 -32 OFFCURVE",
"65 0 CURVE",
"48 10 LINE",
"-16 -15 OFFCURVE",
"-96 -83 OFFCURVE",
"-96 -154 CURVE"
);
}
);
width = 232;
},
{
components = (
{
name = elem.ogonekunder;
transform = "{1, 0, 0, 1, -107, 0}";
},
{
name = i;
transform = "{1, 0, 0, 1, 13, 0}";
}
);
layerId = "284DCAF7-AB20-402F-AEDF-E1CEEB9773D4";
name = "Regular Italic";
paths = (
{
closed = 1;
nodes = (
"29 -115 LINE",
"29 -72 OFFCURVE",
"52 -29 OFFCURVE",
"127 0 CURVE",
"39 0 LINE",
"-25 -32 OFFCURVE",
"-66 -89 OFFCURVE",
"-66 -145 CURVE"
);
}
);
width = 287;
},
{
components = (
{
name = elem.ogonekunder;
transform = "{1, 0, 0, 1, -96, 0}";
},
{
name = i;
transform = "{1, 0, 0, 1, 15, 0}";
}
);
layerId = "005AA5DB-9C20-42D5-964E-7DFE1013E61C";
name = "Bold Italic";
paths = (
{
closed = 1;
nodes = (
"56 -85 LINE",
"56 -43 OFFCURVE",
"103 0 OFFCURVE",
"191 0 CURVE",
"12 0 LINE",
"-39 -43 OFFCURVE",
"-67 -89 OFFCURVE",
"-67 -139 CURVE"
);
}
);
width = 315;
}
);
leftKerningGroup = i;
rightKerningGroup = i;
rightMetricsKey = i;
unicode = 012F;
},
{
glyphname = dotlessj;
lastChange = "2015-06-30 14:02:59 +0000";
layers = (
{
anchors = (
{
name = top;
position = "{163, 520}";
}
);
layerId = "D0F50BF8-B137-4291-8B58-E185C78D1B48";
rightMetricsKey = "=l";
name = "Light Italic";
paths = (
{
closed = 1;
nodes = (
"-3 -190 OFFCURVE",
"28 -143 OFFCURVE",
"47 -73 CURVE SMOOTH",
"56 -41 OFFCURVE",
"66 3 OFFCURVE",
"78 60 CURVE SMOOTH",
"177 528 LINE",
"152 522 LINE",
"37 -20 LINE SMOOTH",
"14 -127 OFFCURVE",
"-15 -171 OFFCURVE",
"-99 -199 CURVE",
"-93 -220 LINE"
);
}
);
width = 213;
},
{
anchors = (
{
name = top;
position = "{191, 520}";
}
);
layerId = "284DCAF7-AB20-402F-AEDF-E1CEEB9773D4";
rightMetricsKey = "=l";
name = "Regular Italic";
paths = (
{
closed = 1;
nodes = (
"34 -197 OFFCURVE",
"89 -144 OFFCURVE",
"113 -53 CURVE SMOOTH",
"119 -31 OFFCURVE",
"126 3 OFFCURVE",
"132 30 CURVE SMOOTH",
"238 530 LINE",
"147 520 LINE",
"39 10 LINE SMOOTH",
"17 -92 OFFCURVE",
"-9 -134 OFFCURVE",
"-88 -152 CURVE",
"-66 -220 LINE"
);
}
);
width = 263;
},
{
anchors = (
{
name = top;
position = "{187, 520}";
}
);
layerId = "005AA5DB-9C20-42D5-964E-7DFE1013E61C";
rightMetricsKey = "=l";
name = "Bold Italic";
paths = (
{
closed = 1;
nodes = (
"48 -221 OFFCURVE",
"141 -146 OFFCURVE",
"170 -33 CURVE SMOOTH",
"181 9 OFFCURVE",
"188 43 OFFCURVE",
"198 90 CURVE SMOOTH",
"291 529 LINE",
"109 519 LINE",
"7 40 LINE SMOOTH",
"-13 -52 OFFCURVE",
"-35 -84 OFFCURVE",
"-114 -102 CURVE",
"-103 -220 LINE"
);
}
);
width = 286;
}
);
leftKerningGroup = j;
rightKerningGroup = j;
rightMetricsKey = l;
unicode = 0237;
},
{
glyphname = k;
lastChange = "2016-02-25 13:00:02 +0000";
layers = (
{
anchors = (
{
name = bottom;
position = "{206, 0}";
}
);
components = (
{
name = elem.smallstem01;
transform = "{1, 0, 0, 1, 72, 0}";
}
);
layerId = "284DCAF7-AB20-402F-AEDF-E1CEEB9773D4";
leftMetricsKey = "=l";
name = "Regular Italic";
paths = (
{
closed = 1;
nodes = (
"449 0 LINE",
"273 294 LINE",
"271 277 LINE",
"557 520 LINE",
"460 534 LINE",
"177 288 LINE",
"341 0 LINE"
);
}
);
width = 541;
},
{
anchors = (
{
name = bottom;
position = "{247, 0}";
}
);
components = (
{
name = elem.smallstem01;
transform = "{1, 0, 0, 1, 42, 0}";
}
);
layerId = "005AA5DB-9C20-42D5-964E-7DFE1013E61C";
leftMetricsKey = "=l";
name = "Bold Italic";
paths = (
{
closed = 1;
nodes = (
"574 0 LINE",
"388 329 LINE",
"405 278 LINE",
"667 520 LINE",
"477 534 LINE",
"216 279 LINE",
"347 0 LINE"
);
}
);
width = 628;
},
{
anchors = (
{
name = bottom;
position = "{188, 0}";
}
);
components = (
{
name = elem.smallstem01;
transform = "{1, 0, 0, 1, 82, 0}";
}
);
layerId = "D0F50BF8-B137-4291-8B58-E185C78D1B48";
leftMetricsKey = "=l";
name = "Light Italic";
paths = (
{
closed = 1;
nodes = (
"394 0 LINE",
"173 292 LINE",
"176 277 LINE",
"472 516 LINE",
"442 520 LINE",
"149 283 LINE",
"364 0 LINE"
);
}
);
width = 468;
}
);
leftKerningGroup = h;
leftMetricsKey = h;
rightKerningGroup = k;
unicode = 006B;
},
{
glyphname = m;
lastChange = "2016-03-13 11:16:44 +0000";
layers = (
{
layerId = "284DCAF7-AB20-402F-AEDF-E1CEEB9773D4";
rightMetricsKey = "=n";
name = "Regular Italic";
paths = (
{
closed = 1;
nodes = (
"749 0 LINE",
"811 290 LINE SMOOTH",
"823 347 OFFCURVE",
"827 373 OFFCURVE",
"827 405 CURVE SMOOTH",
"827 474 OFFCURVE",
"777 534 OFFCURVE",
"682 534 CURVE SMOOTH",
"617 534 OFFCURVE",
"559 513 OFFCURVE",
"485 470 CURVE",
"494 408 LINE",
"553 448 OFFCURVE",
"600 464 OFFCURVE",
"650 464 CURVE SMOOTH",
"706 464 OFFCURVE",
"734 439 OFFCURVE",
"734 375 CURVE SMOOTH",
"734 352 OFFCURVE",
"730 325 OFFCURVE",
"723 291 CURVE SMOOTH",
"661 0 LINE"
);
},
{
closed = 1;
nodes = (
"115 0 LINE",
"229 530 LINE",
"138 520 LINE",
"27 0 LINE"
);
},
{
closed = 1;
nodes = (
"432 0 LINE",
"494 290 LINE SMOOTH",
"506 347 OFFCURVE",
"510 373 OFFCURVE",
"510 405 CURVE SMOOTH",
"510 474 OFFCURVE",
"470 534 OFFCURVE",
"365 534 CURVE SMOOTH",
"305 534 OFFCURVE",
"234 510 OFFCURVE",
"168 462 CURVE",
"177 405 LINE",
"234 448 OFFCURVE",
"281 464 OFFCURVE",
"333 464 CURVE SMOOTH",
"393 464 OFFCURVE",
"418 441 OFFCURVE",
"418 382 CURVE SMOOTH",
"418 358 OFFCURVE",
"414 328 OFFCURVE",
"406 291 CURVE SMOOTH",
"344 0 LINE"
);
}
);
width = 876;
},
{
layerId = "005AA5DB-9C20-42D5-964E-7DFE1013E61C";
leftMetricsKey = "=l";
rightMetricsKey = "=n";
name = "Bold Italic";
paths = (
{
closed = 1;
nodes = (
"834 0 LINE",
"894 284 LINE SMOOTH",
"903 329 OFFCURVE",
"911 368 OFFCURVE",
"911 402 CURVE SMOOTH",
"911 486 OFFCURVE",
"857 538 OFFCURVE",
"754 538 CURVE SMOOTH",
"670 538 OFFCURVE",
"578 485 OFFCURVE",
"481 375 CURVE",
"482 277 LINE",
"540 362 OFFCURVE",
"597 402 OFFCURVE",
"653 402 CURVE SMOOTH",
"700 402 OFFCURVE",
"721 383 OFFCURVE",
"721 336 CURVE SMOOTH",
"721 322 OFFCURVE",
"718 301 OFFCURVE",
"715 284 CURVE SMOOTH",
"654 0 LINE"
);
},
{
closed = 1;
nodes = (
"177 0 LINE",
"290 529 LINE",
"107 519 LINE",
"-3 0 LINE"
);
},
{
closed = 1;
nodes = (
"506 0 LINE",
"566 284 LINE SMOOTH",
"575 329 OFFCURVE",
"582 368 OFFCURVE",
"582 402 CURVE SMOOTH",
"582 486 OFFCURVE",
"528 538 OFFCURVE",
"426 538 CURVE SMOOTH",
"341 538 OFFCURVE",
"250 485 OFFCURVE",
"153 375 CURVE",
"154 277 LINE",
"211 362 OFFCURVE",
"269 402 OFFCURVE",
"325 402 CURVE SMOOTH",
"372 402 OFFCURVE",
"393 383 OFFCURVE",
"393 337 CURVE SMOOTH",
"393 323 OFFCURVE",
"390 301 OFFCURVE",
"387 284 CURVE SMOOTH",
"326 0 LINE"
);
}
);
width = 938;
},
{
layerId = "D0F50BF8-B137-4291-8B58-E185C78D1B48";
leftMetricsKey = "=n";
rightMetricsKey = "=n";
name = "Light Italic";
paths = (
{
closed = 1;
nodes = (
"659 0 LINE",
"727 321 LINE SMOOTH",
"734 355 OFFCURVE",
"739 382 OFFCURVE",
"739 406 CURVE SMOOTH",
"739 481 OFFCURVE",
"705 530 OFFCURVE",
"613 530 CURVE SMOOTH",
"555 530 OFFCURVE",
"499 514 OFFCURVE",
"419 477 CURVE",
"415 453 LINE",
"488 489 OFFCURVE",
"550 507 OFFCURVE",
"601 507 CURVE SMOOTH",
"675 507 OFFCURVE",
"715 482 OFFCURVE",
"715 405 CURVE SMOOTH",
"715 384 OFFCURVE",
"711 358 OFFCURVE",
"705 328 CURVE SMOOTH",
"635 0 LINE"
);
},
{
closed = 1;
nodes = (
"61 0 LINE",
"171 519 LINE",
"146 513 LINE",
"37 0 LINE"
);
},
{
closed = 1;
nodes = (
"360 0 LINE",
"428 321 LINE SMOOTH",
"435 355 OFFCURVE",
"440 384 OFFCURVE",
"440 407 CURVE SMOOTH",
"440 481 OFFCURVE",
"406 530 OFFCURVE",
"314 530 CURVE SMOOTH",
"257 530 OFFCURVE",
"214 519 OFFCURVE",
"154 490 CURVE",
"150 468 LINE",
"217 501 OFFCURVE",
"251 507 OFFCURVE",
"302 507 CURVE SMOOTH",
"376 507 OFFCURVE",
"416 482 OFFCURVE",
"416 405 CURVE SMOOTH",
"416 384 OFFCURVE",
"412 358 OFFCURVE",
"406 328 CURVE SMOOTH",
"336 0 LINE"
);
}
);
width = 797;
}
);
leftKerningGroup = n;
leftMetricsKey = l;
rightKerningGroup = n;
rightMetricsKey = n;
unicode = 006D;
},
{
glyphname = n;
lastChange = "2016-02-25 12:59:14 +0000";
layers = (
{
anchors = (
{
name = bottom;
position = "{246, 0}";
},
{
name = top;
position = "{351, 520}";
}
);
layerId = "284DCAF7-AB20-402F-AEDF-E1CEEB9773D4";
leftMetricsKey = "=l";
name = "Regular Italic";
paths = (
{
closed = 1;
nodes = (
"444 0 LINE",
"505 290 LINE SMOOTH",
"517 347 OFFCURVE",
"521 373 OFFCURVE",
"521 405 CURVE SMOOTH",
"521 474 OFFCURVE",
"481 534 OFFCURVE",
"376 534 CURVE SMOOTH",
"308 534 OFFCURVE",
"235 505 OFFCURVE",
"169 455 CURVE",
"184 401 LINE",
"238 443 OFFCURVE",
"289 464 OFFCURVE",
"341 464 CURVE SMOOTH",
"402 464 OFFCURVE",
"429 440 OFFCURVE",
"429 378 CURVE SMOOTH",
"429 354 OFFCURVE",
"425 326 OFFCURVE",
"418 291 CURVE SMOOTH",
"356 0 LINE"
);
},
{
closed = 1;
nodes = (
"115 0 LINE",
"229 530 LINE",
"138 520 LINE",
"27 0 LINE"
);
}
);
width = 570;
},
{
anchors = (
{
name = bottom;
position = "{254, 0}";
},
{
name = top;
position = "{360, 520}";
}
);
layerId = "005AA5DB-9C20-42D5-964E-7DFE1013E61C";
leftMetricsKey = "=l";
name = "Bold Italic";
paths = (
{
closed = 1;
nodes = (
"508 0 LINE",
"568 284 LINE SMOOTH",
"579 334 OFFCURVE",
"584 361 OFFCURVE",
"584 392 CURVE SMOOTH",
"584 476 OFFCURVE",
"535 538 OFFCURVE",
"430 538 CURVE SMOOTH",
"356 538 OFFCURVE",
"255 485 OFFCURVE",
"157 385 CURVE",
"199 327 LINE",
"226 374 OFFCURVE",
"275 402 OFFCURVE",
"330 402 CURVE SMOOTH",
"371 402 OFFCURVE",
"396 382 OFFCURVE",
"396 336 CURVE SMOOTH",
"396 323 OFFCURVE",
"393 309 OFFCURVE",
"390 294 CURVE SMOOTH",
"328 0 LINE"
);
},
{
closed = 1;
nodes = (
"176 0 LINE",
"289 529 LINE",
"107 519 LINE",
"-3 0 LINE"
);
}
);
width = 612;
},
{
anchors = (
{
name = bottom;
position = "{227, 0}";
},
{
name = top;
position = "{312, 520}";
}
);
layerId = "D0F50BF8-B137-4291-8B58-E185C78D1B48";
leftMetricsKey = "=l";
name = "Light Italic";
paths = (
{
closed = 1;
nodes = (
"389 0 LINE",
"458 321 LINE SMOOTH",
"468 368 OFFCURVE",
"471 392 OFFCURVE",
"471 412 CURVE SMOOTH",
"471 491 OFFCURVE",
"423 530 OFFCURVE",
"331 530 CURVE SMOOTH",
"272 530 OFFCURVE",
"207 510 OFFCURVE",
"147 477 CURVE",
"141 451 LINE",
"216 490 OFFCURVE",
"272 507 OFFCURVE",
"327 507 CURVE SMOOTH",
"407 507 OFFCURVE",
"447 475 OFFCURVE",
"447 412 CURVE SMOOTH",
"447 390 OFFCURVE",
"442 359 OFFCURVE",
"435 327 CURVE SMOOTH",
"365 0 LINE"
);
},
{
closed = 1;
nodes = (
"61 0 LINE",
"171 519 LINE",
"146 513 LINE",
"37 0 LINE"
);
}
);
width = 528;
}
);
leftKerningGroup = n;
leftMetricsKey = h;
rightKerningGroup = n;
unicode = 006E;
},
{
glyphname = eng;
lastChange = "2015-10-31 11:26:45 +0000";
layers = (
{
layerId = "D0F50BF8-B137-4291-8B58-E185C78D1B48";
leftMetricsKey = "=n";
rightMetricsKey = "=n";
name = "Light Italic";
paths = (
{
closed = 1;
nodes = (
"294 -223 OFFCURVE",
"342 -176 OFFCURVE",
"365 -98 CURVE SMOOTH",
"375 -64 OFFCURVE",
"382 -35 OFFCURVE",
"389 0 CURVE SMOOTH",
"458 321 LINE SMOOTH",
"468 368 OFFCURVE",
"471 394 OFFCURVE",
"471 418 CURVE SMOOTH",
"471 493 OFFCURVE",
"423 530 OFFCURVE",
"334 530 CURVE SMOOTH",
"272 530 OFFCURVE",
"207 510 OFFCURVE",
"147 477 CURVE",
"142 454 LINE",
"216 493 OFFCURVE",
"272 507 OFFCURVE",
"327 507 CURVE SMOOTH",
"431 507 OFFCURVE",
"465 467 OFFCURVE",
"435 327 CURVE SMOOTH",
"358 -30 LINE SMOOTH",
"332 -151 OFFCURVE",
"301 -195 OFFCURVE",
"203 -201 CURVE",
"199 -223 LINE"
);
},
{
closed = 1;
nodes = (
"61 0 LINE",
"171 519 LINE",
"146 513 LINE",
"37 0 LINE"
);
}
);
width = 528;
},
{
layerId = "284DCAF7-AB20-402F-AEDF-E1CEEB9773D4";
name = "Regular Italic";
paths = (
{
closed = 1;
nodes = (
"347 -229 OFFCURVE",
"401 -157 OFFCURVE",
"422 -88 CURVE SMOOTH",
"432 -54 OFFCURVE",
"437 -35 OFFCURVE",
"444 0 CURVE SMOOTH",
"505 290 LINE SMOOTH",
"517 347 OFFCURVE",
"521 373 OFFCURVE",
"521 405 CURVE SMOOTH",
"521 474 OFFCURVE",
"481 534 OFFCURVE",
"386 534 CURVE SMOOTH",
"308 534 OFFCURVE",
"235 498 OFFCURVE",
"169 428 CURVE",
"184 381 LINE",
"241 441 OFFCURVE",
"292 464 OFFCURVE",
"344 464 CURVE SMOOTH",
"428 464 OFFCURVE",
"445 418 OFFCURVE",
"418 291 CURVE SMOOTH",
"353 -13 LINE SMOOTH",
"331 -114 OFFCURVE",
"304 -153 OFFCURVE",
"208 -153 CURVE",
"194 -223 LINE"
);
},
{
closed = 1;
nodes = (
"115 0 LINE",
"229 530 LINE",
"138 520 LINE",
"27 0 LINE"
);
}
);
width = 570;
},
{
layerId = "005AA5DB-9C20-42D5-964E-7DFE1013E61C";
name = "Bold Italic";
paths = (
{
closed = 1;
nodes = (
"411 -231 OFFCURVE",
"492 -177 OFFCURVE",
"524 -68 CURVE SMOOTH",
"531 -44 OFFCURVE",
"534 -27 OFFCURVE",
"540 0 CURVE SMOOTH",
"601 284 LINE SMOOTH",
"611 333 OFFCURVE",
"616 360 OFFCURVE",
"616 391 CURVE SMOOTH",
"616 476 OFFCURVE",
"574 538 OFFCURVE",
"468 538 CURVE SMOOTH",
"382 538 OFFCURVE",
"280 485 OFFCURVE",
"182 365 CURVE",
"224 307 LINE",
"253 354 OFFCURVE",
"303 402 OFFCURVE",
"349 402 CURVE SMOOTH",
"415 402 OFFCURVE",
"439 371 OFFCURVE",
"423 294 CURVE SMOOTH",
"360 -4 LINE SMOOTH",
"345 -65 OFFCURVE",
"313 -83 OFFCURVE",
"247 -83 CURVE",
"218 -223 LINE"
);
},
{
closed = 1;
nodes = (
"176 0 LINE",
"289 529 LINE",
"107 519 LINE",
"-3 0 LINE"
);
}
);
width = 644;
}
);
leftKerningGroup = n;
leftMetricsKey = n;
rightKerningGroup = j;
rightMetricsKey = n;
unicode = 014B;
},
{
glyphname = oslash;
lastChange = "2015-10-31 11:26:45 +0000";
layers = (
{
components = (
{
name = o;
}
);
layerId = "D0F50BF8-B137-4291-8B58-E185C78D1B48";
name = "Light Italic";
paths = (
{
closed = 1;
nodes = (
"529 526 LINE",
"510 536 LINE",
"29 -10 LINE",
"48 -20 LINE"
);
}
);
width = 559;
},
{
components = (
{
name = o;
}
);
layerId = "284DCAF7-AB20-402F-AEDF-E1CEEB9773D4";
leftMetricsKey = "=o";
rightMetricsKey = "=o";
name = "Regular Italic";
paths = (
{
closed = 1;
nodes = (
"577 517 LINE",
"521 552 LINE",
"12 3 LINE",
"67 -32 LINE"
);
}
);
width = 583;
},
{
components = (
{
name = o;
}
);
layerId = "005AA5DB-9C20-42D5-964E-7DFE1013E61C";
name = "Bold Italic";
paths = (
{
closed = 1;
nodes = (
"596 530 LINE",
"506 560 LINE",
"21 -10 LINE",
"110 -40 LINE"
);
}
);
width = 633;
}
);
leftKerningGroup = o;
leftMetricsKey = o;
rightKerningGroup = o;
rightMetricsKey = o;
unicode = 00F8;
},
{
glyphname = oe;
lastChange = "2015-10-31 11:26:45 +0000";
layers = (
{
components = (
{
name = elem.ohalf;
transform = "{1, 0, 0, 1, -4, 0}";
},
{
name = e;
transform = "{1, 0, 0, 1, 424, 0}";
}
);
layerId = "D0F50BF8-B137-4291-8B58-E185C78D1B48";
leftMetricsKey = "=o";
rightMetricsKey = "=e";
name = "Light Italic";
paths = (
{
closed = 1;
nodes = (
"403 -14 OFFCURVE",
"477 140 OFFCURVE",
"502 257 CURVE SMOOTH",
"527 374 OFFCURVE",
"499 530 OFFCURVE",
"337 530 CURVE",
"332 507 LINE",
"442 507 OFFCURVE",
"514 412 OFFCURVE",
"481 257 CURVE SMOOTH",
"448 102 OFFCURVE",
"356 9 OFFCURVE",
"226 9 CURVE",
"221 -14 LINE"
);
}
);
width = 874;
},
{
components = (
{
name = elem.ohalf;
transform = "{1, 0, 0, 1, -31, 0}";
},
{
name = e;
transform = "{1, 0, 0, 1, 402, 0}";
}
);
layerId = "284DCAF7-AB20-402F-AEDF-E1CEEB9773D4";
leftMetricsKey = "=o";
rightMetricsKey = "=e";
name = "Regular Italic";
paths = (
{
closed = 1;
nodes = (
"370 -14 OFFCURVE",
"474 77 OFFCURVE",
"513 260 CURVE SMOOTH",
"552 443 OFFCURVE",
"467 534 OFFCURVE",
"340 534 CURVE",
"326 464 LINE",
"425 464 OFFCURVE",
"480 393 OFFCURVE",
"451 260 CURVE SMOOTH",
"423 127 OFFCURVE",
"356 56 OFFCURVE",
"257 56 CURVE",
"243 -14 LINE"
);
}
);
width = 889;
},
{
components = (
{
name = elem.ohalf;
transform = "{1, 0, 0, 1, -6, 0}";
},
{
name = e;
transform = "{1, 0, 0, 1, 400, 0}";
}
);
layerId = "005AA5DB-9C20-42D5-964E-7DFE1013E61C";
leftMetricsKey = "=o";
rightMetricsKey = "=e";
name = "Bold Italic";
paths = (
{
closed = 1;
nodes = (
"405 -14 OFFCURVE",
"579 97 OFFCURVE",
"579 324 CURVE SMOOTH",
"579 457 OFFCURVE",
"488 538 OFFCURVE",
"367 538 CURVE",
"341 402 LINE",
"398 402 OFFCURVE",
"433 364 OFFCURVE",
"433 304 CURVE SMOOTH",
"433 179 OFFCURVE",
"361 122 OFFCURVE",
"293 122 CURVE",
"267 -14 LINE"
);
}
);
width = 949;
}
);
leftKerningGroup = o;
leftMetricsKey = o;
rightKerningGroup = e;
rightMetricsKey = e;
unicode = 0153;
},
{
glyphname = p;
lastChange = "2016-03-13 11:16:54 +0000";
layers = (
{
components = (
{
name = _part.smallbowl;
transform = "{-1, 0, 0, -1, 540, 520}";
}
);
layerId = "284DCAF7-AB20-402F-AEDF-E1CEEB9773D4";
leftMetricsKey = "=l";
rightMetricsKey = "=o";
name = "Regular Italic";
paths = (
{
closed = 1;
nodes = (
"72 -200 LINE",
"219 489 LINE",
"131 489 LINE",
"-18 -210 LINE"
);
}
);
width = 573;
},
{
components = (
{
name = _part.smallbowl;
transform = "{-1, 0, 0, -1, 586, 524}";
}
);
layerId = "005AA5DB-9C20-42D5-964E-7DFE1013E61C";
leftMetricsKey = "=l";
rightMetricsKey = "=o";
name = "Bold Italic";
paths = (
{
closed = 1;
nodes = (
"134 -201 LINE",
"284 502 LINE",
"104 502 LINE",
"-48 -211 LINE"
);
}
);
width = 603;
},
{
components = (
{
name = _part.smallbowl;
transform = "{-1, 0, 0, -1, 477, 516}";
}
);
layerId = "D0F50BF8-B137-4291-8B58-E185C78D1B48";
leftMetricsKey = "=n";
name = "Light Italic";
paths = (
{
closed = 1;
nodes = (
"18 -201 LINE",
"168 499 LINE",
"144 499 LINE",
"-7 -207 LINE"
);
}
);
width = 529;
}
);
leftKerningGroup = p;
leftMetricsKey = n;
rightKerningGroup = o;
rightMetricsKey = b;
unicode = 0070;
},
{
glyphname = q;
lastChange = "2016-03-13 11:16:57 +0000";
layers = (
{
components = (
{
name = _part.smallbowl;
transform = "{1, 0, 0, 1, 33, 0}";
}
);
layerId = "284DCAF7-AB20-402F-AEDF-E1CEEB9773D4";
leftMetricsKey = "=o";
rightMetricsKey = "=l";
name = "Regular Italic";
paths = (
{
closed = 1;
nodes = (
"392 -200 LINE",
"541 498 LINE",
"453 498 LINE",
"302 -210 LINE"
);
}
);
width = 573;
},
{
components = (
{
name = _part.smallbowl;
transform = "{1, 0, 0, 1, 18, 0}";
}
);
layerId = "005AA5DB-9C20-42D5-964E-7DFE1013E61C";
leftMetricsKey = "=o";
rightMetricsKey = "=l";
name = "Bold Italic";
paths = (
{
closed = 1;
nodes = (
"453 -201 LINE",
"602 503 LINE",
"422 503 LINE",
"271 -211 LINE"
);
}
);
width = 603;
},
{
components = (
{
name = _part.smallbowl;
transform = "{1, 0, 0, 1, 51, 0}";
}
);
layerId = "D0F50BF8-B137-4291-8B58-E185C78D1B48";
rightMetricsKey = "=d";
name = "Light Italic";
paths = (
{
closed = 1;
nodes = (
"338 -201 LINE",
"488 503 LINE",
"464 503 LINE",
"313 -207 LINE"
);
}
);
width = 528;
}
);
leftKerningGroup = o;
leftMetricsKey = d;
rightKerningGroup = q;
rightMetricsKey = d;
unicode = 0071;
},
{
glyphname = r;
lastChange = "2016-03-13 11:17:02 +0000";
layers = (
{
anchors = (
{
name = bottom;
position = "{69, 0}";
},
{
name = top;
position = "{260, 520}";
}
);
layerId = "284DCAF7-AB20-402F-AEDF-E1CEEB9773D4";
leftMetricsKey = "=l";
name = "Regular Italic";
paths = (
{
closed = 1;
nodes = (
"115 0 LINE",
"229 530 LINE",
"138 520 LINE",
"27 0 LINE"
);
},
{
closed = 1;
nodes = (
"214 425 OFFCURVE",
"255 451 OFFCURVE",
"312 451 CURVE SMOOTH",
"337 451 OFFCURVE",
"352 449 OFFCURVE",
"371 444 CURVE",
"393 518 LINE",
"382 528 OFFCURVE",
"367 534 OFFCURVE",
"339 534 CURVE SMOOTH",
"289 534 OFFCURVE",
"230 507 OFFCURVE",
"192 424 CURVE",
"176 359 LINE"
);
}
);
width = 368;
},
{
anchors = (
{
name = bottom;
position = "{87, 0}";
},
{
name = top;
position = "{287, 520}";
}
);
layerId = "005AA5DB-9C20-42D5-964E-7DFE1013E61C";
leftMetricsKey = "=n";
name = "Bold Italic";
paths = (
{
closed = 1;
nodes = (
"176 0 LINE",
"289 529 LINE",
"107 519 LINE",
"-3 0 LINE"
);
},
{
closed = 1;
nodes = (
"250 346 OFFCURVE",
"302 362 OFFCURVE",
"344 362 CURVE SMOOTH",
"372 362 OFFCURVE",
"396 360 OFFCURVE",
"414 355 CURVE",
"464 516 LINE",
"452 528 OFFCURVE",
"430 538 OFFCURVE",
"399 538 CURVE SMOOTH",
"341 538 OFFCURVE",
"272 492 OFFCURVE",
"249 356 CURVE",
"215 297 LINE"
);
}
);
width = 427;
},
{
anchors = (
{
name = bottom;
position = "{49, 0}";
},
{
name = top;
position = "{220, 520}";
}
);
layerId = "D0F50BF8-B137-4291-8B58-E185C78D1B48";
name = "Light Italic";
paths = (
{
closed = 1;
nodes = (
"61 0 LINE",
"171 519 LINE",
"146 513 LINE",
"37 0 LINE"
);
},
{
closed = 1;
nodes = (
"170 463 OFFCURVE",
"218 507 OFFCURVE",
"262 507 CURVE SMOOTH",
"281 507 OFFCURVE",
"292 503 OFFCURVE",
"301 497 CURVE",
"313 517 LINE",
"303 526 OFFCURVE",
"291 530 OFFCURVE",
"269 530 CURVE SMOOTH",
"230 530 OFFCURVE",
"190 507 OFFCURVE",
"150 451 CURVE",
"146 412 LINE"
);
}
);
width = 286;
}
);
leftKerningGroup = n;
leftMetricsKey = n;
rightKerningGroup = r;
unicode = 0072;
},
{
glyphname = s;
lastChange = "2016-03-13 11:17:05 +0000";
layers = (
{
anchors = (
{
name = bottom;
position = "{159, 0}";
},
{
name = top;
position = "{281, 520}";
}
);
layerId = "284DCAF7-AB20-402F-AEDF-E1CEEB9773D4";
name = "Regular Italic";
paths = (
{
closed = 1;
nodes = (
"269 -14 OFFCURVE",
"375 41 OFFCURVE",
"375 158 CURVE SMOOTH",
"375 220 OFFCURVE",
"330 259 OFFCURVE",
"258 298 CURVE SMOOTH",
"208 325 OFFCURVE",
"175 350 OFFCURVE",
"175 389 CURVE SMOOTH",
"175 432 OFFCURVE",
"217 464 OFFCURVE",
"267 464 CURVE SMOOTH",
"319 464 OFFCURVE",
"354 451 OFFCURVE",
"384 430 CURVE",
"423 485 LINE",
"391 515 OFFCURVE",
"349 534 OFFCURVE",
"287 534 CURVE SMOOTH",
"170 534 OFFCURVE",
"86 467 OFFCURVE",
"86 374 CURVE SMOOTH",
"86 312 OFFCURVE",
"135 277 OFFCURVE",
"189 243 CURVE SMOOTH",
"258 200 OFFCURVE",
"286 179 OFFCURVE",
"286 137 CURVE SMOOTH",
"286 90 OFFCURVE",
"241 56 OFFCURVE",
"171 56 CURVE SMOOTH",
"116 56 OFFCURVE",
"79 69 OFFCURVE",
"42 105 CURVE",
"-4 50 LINE",
"30 10 OFFCURVE",
"83 -14 OFFCURVE",
"160 -14 CURVE SMOOTH"
);
}
);
width = 439;
},
{
anchors = (
{
name = bottom;
position = "{157, 0}";
},
{
name = top;
position = "{277, 520}";
}
);
layerId = "005AA5DB-9C20-42D5-964E-7DFE1013E61C";
name = "Bold Italic";
paths = (
{
closed = 1;
nodes = (
"276 -14 OFFCURVE",
"393 49 OFFCURVE",
"393 173 CURVE SMOOTH",
"393 234 OFFCURVE",
"360 276 OFFCURVE",
"295 315 CURVE SMOOTH",
"255 339 OFFCURVE",
"232 355 OFFCURVE",
"232 376 CURVE SMOOTH",
"232 395 OFFCURVE",
"258 412 OFFCURVE",
"287 412 CURVE SMOOTH",
"328 412 OFFCURVE",
"362 401 OFFCURVE",
"385 385 CURVE",
"446 495 LINE",
"414 520 OFFCURVE",
"359 538 OFFCURVE",
"286 538 CURVE SMOOTH",
"182 538 OFFCURVE",
"55 478 OFFCURVE",
"55 353 CURVE SMOOTH",
"55 284 OFFCURVE",
"92 247 OFFCURVE",
"152 214 CURVE SMOOTH",
"199 188 OFFCURVE",
"214 170 OFFCURVE",
"214 150 CURVE SMOOTH",
"214 127 OFFCURVE",
"195 112 OFFCURVE",
"159 112 CURVE SMOOTH",
"117 112 OFFCURVE",
"77 123 OFFCURVE",
"34 147 CURVE",
"-30 44 LINE",
"5 6 OFFCURVE",
"70 -14 OFFCURVE",
"151 -14 CURVE SMOOTH"
);
}
);
width = 439;
},
{
anchors = (
{
name = bottom;
position = "{163, 0}";
},
{
name = top;
position = "{262, 520}";
}
);
layerId = "D0F50BF8-B137-4291-8B58-E185C78D1B48";
name = "Light Italic";
paths = (
{
closed = 1;
nodes = (
"241 -14 OFFCURVE",
"328 49 OFFCURVE",
"328 140 CURVE SMOOTH",
"328 203 OFFCURVE",
"299 235 OFFCURVE",
"220 278 CURVE SMOOTH",
"154 313 OFFCURVE",
"123 332 OFFCURVE",
"123 391 CURVE SMOOTH",
"123 461 OFFCURVE",
"189 511 OFFCURVE",
"269 511 CURVE SMOOTH",
"307 511 OFFCURVE",
"346 500 OFFCURVE",
"376 477 CURVE",
"390 496 LINE",
"367 517 OFFCURVE",
"324 534 OFFCURVE",
"272 534 CURVE SMOOTH",
"175 534 OFFCURVE",
"98 469 OFFCURVE",
"98 390 CURVE SMOOTH",
"98 329 OFFCURVE",
"132 299 OFFCURVE",
"201 261 CURVE SMOOTH",
"276 219 OFFCURVE",
"303 196 OFFCURVE",
"303 137 CURVE SMOOTH",
"303 61 OFFCURVE",
"224 9 OFFCURVE",
"140 9 CURVE SMOOTH",
"95 9 OFFCURVE",
"49 23 OFFCURVE",
"18 52 CURVE",
"4 34 LINE",
"40 0 OFFCURVE",
"90 -14 OFFCURVE",
"136 -14 CURVE SMOOTH"
);
}
);
width = 408;
}
);
leftKerningGroup = s;
rightKerningGroup = s;
unicode = 0073;
},
{
glyphname = germandbls;
lastChange = "2015-10-31 11:26:45 +0000";
layers = (
{
layerId = "D0F50BF8-B137-4291-8B58-E185C78D1B48";
leftMetricsKey = "=h";
name = "Light Italic";
paths = (
{
closed = 1;
nodes = (
"384 -14 OFFCURVE",
"478 69 OFFCURVE",
"478 177 CURVE SMOOTH",
"478 229 OFFCURVE",
"458 275 OFFCURVE",
"419 330 CURVE SMOOTH",
"387 375 OFFCURVE",
"375 400 OFFCURVE",
"375 419 CURVE SMOOTH",
"375 459 OFFCURVE",
"401 488 OFFCURVE",
"476 496 CURVE",
"507 534 OFFCURVE",
"521 576 OFFCURVE",
"521 627 CURVE SMOOTH",
"521 699 OFFCURVE",
"469 764 OFFCURVE",
"383 764 CURVE SMOOTH",
"274 764 OFFCURVE",
"206 694 OFFCURVE",
"169 586 CURVE SMOOTH",
"155 546 OFFCURVE",
"142 495 OFFCURVE",
"134 457 CURVE SMOOTH",
"37 0 LINE",
"61 0 LINE",
"165 485 LINE SMOOTH",
"209 688 OFFCURVE",
"290 741 OFFCURVE",
"381 741 CURVE SMOOTH",
"446 741 OFFCURVE",
"495 696 OFFCURVE",
"495 627 CURVE SMOOTH",
"495 581 OFFCURVE",
"484 543 OFFCURVE",
"457 509 CURVE",
"480 516 LINE",
"400 515 OFFCURVE",
"349 471 OFFCURVE",
"349 419 CURVE SMOOTH",
"349 396 OFFCURVE",
"363 365 OFFCURVE",
"398 316 CURVE SMOOTH",
"436 262 OFFCURVE",
"452 226 OFFCURVE",
"452 177 CURVE SMOOTH",
"452 71 OFFCURVE",
"360 9 OFFCURVE",
"266 9 CURVE SMOOTH",
"230 9 OFFCURVE",
"204 15 OFFCURVE",
"177 36 CURVE",
"165 17 LINE",
"186 -3 OFFCURVE",
"217 -14 OFFCURVE",
"266 -14 CURVE SMOOTH"
);
}
);
width = 570;
},
{
layerId = "284DCAF7-AB20-402F-AEDF-E1CEEB9773D4";
leftMetricsKey = "=h";
name = "Regular Italic";
paths = (
{
closed = 1;
nodes = (
"428 -14 OFFCURVE",
"539 66 OFFCURVE",
"539 188 CURVE SMOOTH",
"539 237 OFFCURVE",
"517 291 OFFCURVE",
"469 352 CURVE SMOOTH",
"435 396 OFFCURVE",
"428 409 OFFCURVE",
"428 426 CURVE SMOOTH",
"428 445 OFFCURVE",
"451 462 OFFCURVE",
"529 486 CURVE",
"557 521 OFFCURVE",
"574 564 OFFCURVE",
"574 609 CURVE SMOOTH",
"574 699 OFFCURVE",
"512 764 OFFCURVE",
"400 764 CURVE SMOOTH",
"270 764 OFFCURVE",
"194 690 OFFCURVE",
"159 586 CURVE SMOOTH",
"145 546 OFFCURVE",
"133 495 OFFCURVE",
"125 457 CURVE SMOOTH",
"27 0 LINE",
"115 0 LINE",
"228 524 LINE SMOOTH",
"255 651 OFFCURVE",
"316 694 OFFCURVE",
"391 694 CURVE SMOOTH",
"454 694 OFFCURVE",
"489 662 OFFCURVE",
"489 599 CURVE SMOOTH",
"489 569 OFFCURVE",
"477 536 OFFCURVE",
"450 505 CURVE",
"525 549 LINE",
"383 515 OFFCURVE",
"341 473 OFFCURVE",
"341 422 CURVE SMOOTH",
"341 389 OFFCURVE",
"355 361 OFFCURVE",
"400 306 CURVE SMOOTH",
"430 270 OFFCURVE",
"444 226 OFFCURVE",
"444 194 CURVE SMOOTH",
"444 116 OFFCURVE",
"399 56 OFFCURVE",
"312 56 CURVE SMOOTH",
"279 56 OFFCURVE",
"254 62 OFFCURVE",
"233 74 CURVE",
"196 18 LINE",
"217 -2 OFFCURVE",
"257 -14 OFFCURVE",
"313 -14 CURVE SMOOTH"
);
}
);
width = 620;
},
{
layerId = "005AA5DB-9C20-42D5-964E-7DFE1013E61C";
leftMetricsKey = "=h";
name = "Bold Italic";
paths = (
{
closed = 1;
nodes = (
"482 -14 OFFCURVE",
"608 62 OFFCURVE",
"608 209 CURVE SMOOTH",
"608 251 OFFCURVE",
"592 300 OFFCURVE",
"548 352 CURVE SMOOTH",
"520 385 OFFCURVE",
"505 408 OFFCURVE",
"505 427 CURVE SMOOTH",
"505 452 OFFCURVE",
"542 472 OFFCURVE",
"579 478 CURVE",
"613 522 OFFCURVE",
"628 566 OFFCURVE",
"628 613 CURVE SMOOTH",
"628 704 OFFCURVE",
"560 766 OFFCURVE",
"419 766 CURVE SMOOTH",
"262 766 OFFCURVE",
"162 682 OFFCURVE",
"127 578 CURVE SMOOTH",
"113 537 OFFCURVE",
"102 489 OFFCURVE",
"87 419 CURVE SMOOTH",
"-3 0 LINE",
"177 0 LINE",
"290 526 LINE SMOOTH",
"306 601 OFFCURVE",
"345 626 OFFCURVE",
"388 626 CURVE SMOOTH",
"423 626 OFFCURVE",
"443 604 OFFCURVE",
"443 568 CURVE SMOOTH",
"443 537 OFFCURVE",
"435 512 OFFCURVE",
"412 475 CURVE",
"553 525 LINE",
"404 512 OFFCURVE",
"337 453 OFFCURVE",
"337 391 CURVE SMOOTH",
"337 360 OFFCURVE",
"357 329 OFFCURVE",
"400 279 CURVE SMOOTH",
"420 256 OFFCURVE",
"428 231 OFFCURVE",
"428 206 CURVE SMOOTH",
"428 155 OFFCURVE",
"392 126 OFFCURVE",
"340 126 CURVE SMOOTH",
"323 126 OFFCURVE",
"307 130 OFFCURVE",
"294 138 CURVE",
"223 18 LINE",
"252 -2 OFFCURVE",
"287 -14 OFFCURVE",
"341 -14 CURVE SMOOTH"
);
}
);
width = 655;
}
);
leftKerningGroup = h;
leftMetricsKey = h;
rightKerningGroup = germandbls;
unicode = 00DF;
},
{
glyphname = t;
lastChange = "2016-03-13 11:17:09 +0000";
layers = (
{
anchors = (
{
name = bottom;
position = "{185, 0}";
},
{
name = center;
position = "{182, 290}";
}
);
layerId = "284DCAF7-AB20-402F-AEDF-E1CEEB9773D4";
name = "Regular Italic";
paths = (
{
closed = 1;
nodes = (
"227 -14 OFFCURVE",
"271 -3 OFFCURVE",
"300 13 CURVE",
"297 69 LINE",
"270 61 OFFCURVE",
"251 58 OFFCURVE",
"234 58 CURVE SMOOTH",
"173 58 OFFCURVE",
"162 83 OFFCURVE",
"180 169 CURVE SMOOTH",
"282 650 LINE",
"191 636 LINE",
"93 174 LINE SMOOTH",
"83 126 OFFCURVE",
"80 103 OFFCURVE",
"80 74 CURVE SMOOTH",
"80 25 OFFCURVE",
"106 -14 OFFCURVE",
"180 -14 CURVE SMOOTH"
);
},
{
closed = 1;
nodes = (
"371 454 LINE",
"394 520 LINE",
"81 520 LINE",
"67 454 LINE"
);
}
);
width = 383;
},
{
anchors = (
{
name = bottom;
position = "{184, 0}";
},
{
name = center;
position = "{193, 270}";
}
);
layerId = "005AA5DB-9C20-42D5-964E-7DFE1013E61C";
name = "Bold Italic";
paths = (
{
closed = 1;
nodes = (
"243 -15 OFFCURVE",
"297 -6 OFFCURVE",
"354 13 CURVE",
"353 127 LINE",
"335 123 OFFCURVE",
"319 121 OFFCURVE",
"300 121 CURVE SMOOTH",
"251 121 OFFCURVE",
"239 146 OFFCURVE",
"256 224 CURVE SMOOTH",
"353 680 LINE",
"161 629 LINE",
"79 233 LINE SMOOTH",
"64 160 OFFCURVE",
"58 128 OFFCURVE",
"58 88 CURVE SMOOTH",
"58 26 OFFCURVE",
"99 -15 OFFCURVE",
"176 -15 CURVE SMOOTH"
);
},
{
closed = 1;
nodes = (
"417 394 LINE",
"464 524 LINE",
"78 524 LINE",
"49 394 LINE"
);
}
);
width = 426;
},
{
anchors = (
{
name = bottom;
position = "{156, 0}";
},
{
name = center;
position = "{145, 320}";
}
);
layerId = "D0F50BF8-B137-4291-8B58-E185C78D1B48";
name = "Light Italic";
paths = (
{
closed = 1;
nodes = (
"192 -14 OFFCURVE",
"218 -4 OFFCURVE",
"244 8 CURVE",
"237 27 LINE",
"213 15 OFFCURVE",
"191 9 OFFCURVE",
"164 9 CURVE SMOOTH",
"99 9 OFFCURVE",
"78 38 OFFCURVE",
"104 162 CURVE SMOOTH",
"213 675 LINE",
"188 669 LINE",
"85 184 LINE SMOOTH",
"75 136 OFFCURVE",
"69 103 OFFCURVE",
"69 69 CURVE SMOOTH",
"69 22 OFFCURVE",
"88 -14 OFFCURVE",
"156 -14 CURVE SMOOTH"
);
},
{
closed = 1;
nodes = (
"321 494 LINE",
"331 516 LINE",
"64 516 LINE",
"59 494 LINE"
);
}
);
width = 331;
}
);
leftKerningGroup = t;
rightKerningGroup = t;
unicode = 0074;
},
{
glyphname = u;
lastChange = "2016-03-13 11:17:13 +0000";
layers = (
{
anchors = (
{
name = top;
position = "{330, 520}";
}
);
layerId = "284DCAF7-AB20-402F-AEDF-E1CEEB9773D4";
leftMetricsKey = "=|n-6";
rightMetricsKey = "=l";
name = "Regular Italic";
paths = (
{
closed = 1;
nodes = (
"266 -12 OFFCURVE",
"332 19 OFFCURVE",
"405 79 CURVE",
"390 129 LINE",
"331 78 OFFCURVE",
"280 58 OFFCURVE",
"228 58 CURVE SMOOTH",
"169 58 OFFCURVE",
"136 85 OFFCURVE",
"136 154 CURVE SMOOTH",
"136 175 OFFCURVE",
"139 201 OFFCURVE",
"146 231 CURVE SMOOTH",
"211 530 LINE",
"120 520 LINE",
"61 242 LINE SMOOTH",
"49 185 OFFCURVE",
"45 159 OFFCURVE",
"45 127 CURVE SMOOTH",
"45 45 OFFCURVE",
"93 -12 OFFCURVE",
"188 -12 CURVE SMOOTH"
);
},
{
closed = 1;
nodes = (
"426 0 LINE",
"540 530 LINE",
"449 520 LINE",
"338 0 LINE"
);
}
);
width = 565;
},
{
anchors = (
{
name = top;
position = "{370, 520}";
}
);
layerId = "005AA5DB-9C20-42D5-964E-7DFE1013E61C";
leftMetricsKey = "=|n-6";
rightMetricsKey = "=d";
name = "Bold Italic";
paths = (
{
closed = 1;
nodes = (
"271 -10 OFFCURVE",
"362 39 OFFCURVE",
"460 159 CURVE",
"428 227 LINE",
"369 150 OFFCURVE",
"334 126 OFFCURVE",
"286 126 CURVE SMOOTH",
"244 126 OFFCURVE",
"219 146 OFFCURVE",
"219 192 CURVE SMOOTH",
"219 205 OFFCURVE",
"221 219 OFFCURVE",
"224 234 CURVE SMOOTH",
"290 527 LINE",
"108 521 LINE",
"48 244 LINE SMOOTH",
"37 194 OFFCURVE",
"33 167 OFFCURVE",
"33 136 CURVE SMOOTH",
"33 51 OFFCURVE",
"73 -10 OFFCURVE",
"177 -10 CURVE SMOOTH"
);
},
{
closed = 1;
nodes = (
"508 0 LINE",
"621 529 LINE",
"439 519 LINE",
"329 0 LINE"
);
}
);
width = 616;
},
{
anchors = (
{
name = top;
position = "{313, 520}";
}
);
layerId = "D0F50BF8-B137-4291-8B58-E185C78D1B48";
rightMetricsKey = "=l";
name = "Light Italic";
paths = (
{
closed = 1;
nodes = (
"256 -13 OFFCURVE",
"321 8 OFFCURVE",
"381 44 CURVE",
"386 67 LINE",
"312 25 OFFCURVE",
"256 10 OFFCURVE",
"201 10 CURVE SMOOTH",
"121 10 OFFCURVE",
"82 41 OFFCURVE",
"82 108 CURVE SMOOTH",
"82 130 OFFCURVE",
"86 158 OFFCURVE",
"93 190 CURVE SMOOTH",
"164 520 LINE",
"139 514 LINE",
"72 206 LINE SMOOTH",
"60 149 OFFCURVE",
"58 127 OFFCURVE",
"58 107 CURVE SMOOTH",
"58 24 OFFCURVE",
"105 -13 OFFCURVE",
"194 -13 CURVE SMOOTH"
);
},
{
closed = 1;
nodes = (
"381 0 LINE",
"491 519 LINE",
"466 513 LINE",
"357 0 LINE"
);
}
);
width = 528;
}
);
leftKerningGroup = u;
leftMetricsKey = "=|n";
rightKerningGroup = u;
rightMetricsKey = d;
unicode = 0075;
},
{
glyphname = v;
lastChange = "2016-02-25 12:59:28 +0000";
layers = (
{
layerId = "284DCAF7-AB20-402F-AEDF-E1CEEB9773D4";
name = "Regular Italic";
paths = (
{
closed = 1;
nodes = (
"219 1 LINE",
"552 520 LINE",
"453 520 LINE",
"175 48 LINE",
"212 48 LINE",
"152 520 LINE",
"58 520 LINE",
"145 1 LINE"
);
}
);
width = 508;
},
{
layerId = "005AA5DB-9C20-42D5-964E-7DFE1013E61C";
name = "Bold Italic";
paths = (
{
closed = 1;
nodes = (
"295 0 LINE",
"627 524 LINE",
"428 524 LINE",
"203 58 LINE",
"265 58 LINE",
"262 524 LINE",
"53 524 LINE",
"141 0 LINE"
);
}
);
width = 561;
},
{
layerId = "D0F50BF8-B137-4291-8B58-E185C78D1B48";
name = "Light Italic";
paths = (
{
closed = 1;
nodes = (
"172 0 LINE",
"499 516 LINE",
"470 516 LINE",
"157 17 LINE",
"171 13 LINE",
"102 516 LINE",
"77 516 LINE",
"151 0 LINE"
);
}
);
width = 466;
}
);
leftKerningGroup = v;
rightKerningGroup = v;
unicode = 0076;
},
{
glyphname = w;
lastChange = "2016-02-25 12:59:28 +0000";
layers = (
{
anchors = (
{
name = top;
position = "{421, 520}";
}
);
layerId = "284DCAF7-AB20-402F-AEDF-E1CEEB9773D4";
leftMetricsKey = "=v+3";
rightMetricsKey = "=v+3";
name = "Regular Italic";
paths = (
{
closed = 1;
nodes = (
"186 0 LINE",
"425 444 LINE",
"384 444 LINE",
"445 0 LINE",
"520 0 LINE",
"801 520 LINE",
"707 520 LINE",
"478 51 LINE",
"510 52 LINE",
"452 512 LINE",
"389 512 LINE",
"144 59 LINE",
"181 58 LINE",
"152 520 LINE",
"61 520 LINE",
"112 0 LINE"
);
}
);
width = 760;
},
{
anchors = (
{
name = top;
position = "{458, 520}";
}
);
layerId = "005AA5DB-9C20-42D5-964E-7DFE1013E61C";
leftMetricsKey = "=v+4";
rightMetricsKey = "=v+4";
name = "Bold Italic";
paths = (
{
closed = 1;
nodes = (
"268 0 LINE",
"470 439 LINE",
"404 439 LINE",
"437 0 LINE",
"616 0 LINE",
"892 524 LINE",
"706 524 LINE",
"521 57 LINE",
"575 58 LINE",
"529 516 LINE",
"384 516 LINE",
"181 65 LINE",
"226 64 LINE",
"241 524 LINE",
"57 524 LINE",
"103 0 LINE"
);
}
);
width = 830;
},
{
anchors = (
{
name = top;
position = "{411, 520}";
}
);
layerId = "D0F50BF8-B137-4291-8B58-E185C78D1B48";
leftMetricsKey = "=v+8";
rightMetricsKey = "=v+8";
name = "Light Italic";
paths = (
{
closed = 1;
nodes = (
"155 0 LINE",
"420 496 LINE",
"401 497 LINE",
"454 0 LINE",
"480 0 LINE",
"770 516 LINE",
"742 516 LINE",
"462 12 LINE",
"475 14 LINE",
"422 510 LINE",
"404 510 LINE",
"142 21 LINE",
"153 18 LINE",
"108 516 LINE",
"85 516 LINE",
"132 0 LINE"
);
}
);
width = 745;
}
);
leftKerningGroup = w;
leftMetricsKey = "=v+8";
rightKerningGroup = w;
rightMetricsKey = "=v+8";
unicode = 0077;
},
{
glyphname = x;
lastChange = "2016-03-13 11:17:20 +0000";
layers = (
{
layerId = "284DCAF7-AB20-402F-AEDF-E1CEEB9773D4";
name = "Regular Italic";
paths = (
{
closed = 1;
nodes = (
"67 0 LINE",
"268 244 LINE",
"218 244 LINE",
"332 0 LINE",
"430 0 LINE",
"273 302 LINE",
"270 237 LINE",
"534 520 LINE",
"426 520 LINE",
"229 282 LINE",
"277 282 LINE",
"178 520 LINE",
"76 520 LINE",
"222 227 LINE",
"229 299 LINE",
"-37 0 LINE"
);
}
);
width = 502;
},
{
layerId = "005AA5DB-9C20-42D5-964E-7DFE1013E61C";
name = "Bold Italic";
paths = (
{
closed = 1;
nodes = (
"149 0 LINE",
"328 229 LINE",
"220 239 LINE",
"316 0 LINE",
"515 0 LINE",
"340 346 LINE",
"343 216 LINE",
"623 524 LINE",
"412 524 LINE",
"260 302 LINE",
"349 292 LINE",
"284 524 LINE",
"71 524 LINE",
"231 198 LINE",
"244 333 LINE",
"-59 0 LINE"
);
}
);
width = 575;
},
{
layerId = "D0F50BF8-B137-4291-8B58-E185C78D1B48";
name = "Light Italic";
paths = (
{
closed = 1;
nodes = (
"17 0 LINE",
"230 259 LINE",
"213 258 LINE",
"328 0 LINE",
"355 0 LINE",
"232 267 LINE",
"230 258 LINE",
"453 516 LINE",
"420 516 LINE",
"214 270 LINE",
"229 272 LINE",
"129 516 LINE",
"102 516 LINE",
"210 262 LINE",
"211 272 LINE",
"-14 0 LINE"
);
}
);
width = 456;
}
);
leftKerningGroup = x;
rightKerningGroup = x;
unicode = 0078;
},
{
glyphname = y;
lastChange = "2016-03-13 11:17:22 +0000";
layers = (
{
anchors = (
{
name = top;
position = "{307, 520}";
}
);
layerId = "284DCAF7-AB20-402F-AEDF-E1CEEB9773D4";
leftMetricsKey = "=v";
rightMetricsKey = "=v";
name = "Regular Italic";
paths = (
{
closed = 1;
nodes = (
"89 -179 OFFCURVE",
"167 -107 OFFCURVE",
"279 72 CURVE SMOOTH",
"560 520 LINE",
"456 520 LINE",
"194 56 LINE",
"231 56 LINE",
"160 520 LINE",
"58 520 LINE",
"170 -7 LINE",
"167 34 LINE",
"107 -55 OFFCURVE",
"35 -114 OFFCURVE",
"-53 -151 CURVE",
"-20 -220 LINE"
);
}
);
width = 516;
},
{
anchors = (
{
name = top;
position = "{354, 520}";
}
);
layerId = "005AA5DB-9C20-42D5-964E-7DFE1013E61C";
leftMetricsKey = "=v";
rightMetricsKey = "=v";
name = "Bold Italic";
paths = (
{
closed = 1;
nodes = (
"138 -201 OFFCURVE",
"257 -109 OFFCURVE",
"363 64 CURVE SMOOTH",
"644 524 LINE",
"448 524 LINE",
"228 68 LINE",
"292 68 LINE",
"255 524 LINE",
"53 524 LINE",
"174 -37 LINE",
"176 48 LINE",
"123 -21 OFFCURVE",
"69 -57 OFFCURVE",
"-26 -71 CURVE",
"2 -220 LINE"
);
}
);
width = 578;
},
{
anchors = (
{
name = top;
position = "{291, 520}";
}
);
layerId = "D0F50BF8-B137-4291-8B58-E185C78D1B48";
leftMetricsKey = "=v";
rightMetricsKey = "=v";
name = "Light Italic";
paths = (
{
closed = 1;
nodes = (
"38 -187 OFFCURVE",
"125 -114 OFFCURVE",
"244 76 CURVE SMOOTH",
"520 516 LINE",
"492 516 LINE",
"174 8 LINE",
"188 8 LINE",
"101 516 LINE",
"77 516 LINE",
"170 -13 LINE",
"182 22 LINE",
"113 -87 OFFCURVE",
"23 -171 OFFCURVE",
"-72 -200 CURVE",
"-59 -219 LINE"
);
}
);
width = 487;
}
);
leftKerningGroup = y;
leftMetricsKey = v;
rightKerningGroup = y;
rightMetricsKey = v;
unicode = 0079;
},
{
glyphname = z;
lastChange = "2016-03-13 11:17:27 +0000";
layers = (
{
anchors = (
{
name = top;
position = "{275, 520}";
}
);
layerId = "284DCAF7-AB20-402F-AEDF-E1CEEB9773D4";
name = "Regular Italic";
paths = (
{
closed = 1;
nodes = (
"401 0 LINE",
"424 66 LINE",
"87 66 LINE",
"96 34 LINE",
"457 474 LINE",
"467 520 LINE",
"114 520 LINE",
"100 454 LINE",
"383 454 LINE",
"367 485 LINE",
"9 48 LINE",
"-1 0 LINE"
);
}
);
width = 495;
},
{
anchors = (
{
name = top;
position = "{284, 520}";
}
);
layerId = "005AA5DB-9C20-42D5-964E-7DFE1013E61C";
name = "Bold Italic";
paths = (
{
closed = 1;
nodes = (
"421 0 LINE",
"468 130 LINE",
"71 130 LINE",
"137 34 LINE",
"477 432 LINE",
"497 524 LINE",
"94 524 LINE",
"66 394 LINE",
"356 394 LINE",
"336 489 LINE",
"-10 84 LINE",
"-28 0 LINE"
);
}
);
width = 503;
},
{
anchors = (
{
name = top;
position = "{265, 520}";
}
);
layerId = "D0F50BF8-B137-4291-8B58-E185C78D1B48";
name = "Light Italic";
paths = (
{
closed = 1;
nodes = (
"355 0 LINE",
"370 22 LINE",
"15 22 LINE",
"25 14 LINE",
"432 502 LINE",
"435 516 LINE",
"124 516 LINE",
"119 494 LINE",
"413 494 LINE",
"401 501 LINE",
"-2 17 LINE",
"-6 0 LINE"
);
}
);
width = 444;
}
);
leftKerningGroup = z;
rightKerningGroup = z;
unicode = 007A;
},
{
glyphname = zero;
lastChange = "2016-02-25 13:03:24 +0000";
layers = (
{
layerId = "284DCAF7-AB20-402F-AEDF-E1CEEB9773D4";
name = "Regular Italic";
paths = (
{
closed = 1;
nodes = (
"448 -14 OFFCURVE",
"570 255 OFFCURVE",
"570 524 CURVE SMOOTH",
"570 649 OFFCURVE",
"514 754 OFFCURVE",
"381 754 CURVE SMOOTH",
"179 754 OFFCURVE",
"57 485 OFFCURVE",
"57 216 CURVE SMOOTH",
"57 91 OFFCURVE",
"113 -14 OFFCURVE",
"247 -14 CURVE SMOOTH"
);
},
{
closed = 1;
nodes = (
"186 62 OFFCURVE",
"151 119 OFFCURVE",
"151 249 CURVE SMOOTH",
"151 393 OFFCURVE",
"223 678 OFFCURVE",
"371 678 CURVE SMOOTH",
"440 678 OFFCURVE",
"476 621 OFFCURVE",
"476 491 CURVE SMOOTH",
"476 347 OFFCURVE",
"404 62 OFFCURVE",
"257 62 CURVE SMOOTH"
);
}
);
width = 580;
},
{
layerId = "005AA5DB-9C20-42D5-964E-7DFE1013E61C";
name = "Bold Italic";
paths = (
{
closed = 1;
nodes = (
"556 -14 OFFCURVE",
"647 282 OFFCURVE",
"647 482 CURVE SMOOTH",
"647 688 OFFCURVE",
"542 754 OFFCURVE",
"406 754 CURVE SMOOTH",
"139 754 OFFCURVE",
"49 458 OFFCURVE",
"49 258 CURVE SMOOTH",
"49 52 OFFCURVE",
"153 -14 OFFCURVE",
"288 -14 CURVE SMOOTH"
);
},
{
closed = 1;
nodes = (
"246 126 OFFCURVE",
"233 176 OFFCURVE",
"233 244 CURVE SMOOTH",
"233 397 OFFCURVE",
"290 614 OFFCURVE",
"398 614 CURVE SMOOTH",
"449 614 OFFCURVE",
"462 564 OFFCURVE",
"462 496 CURVE SMOOTH",
"462 343 OFFCURVE",
"405 126 OFFCURVE",
"297 126 CURVE SMOOTH"
);
}
);
width = 650;
},
{
layerId = "D0F50BF8-B137-4291-8B58-E185C78D1B48";
name = "Light Italic";
paths = (
{
closed = 1;
nodes = (
"416 -14 OFFCURVE",
"526 306 OFFCURVE",
"526 530 CURVE SMOOTH",
"526 692 OFFCURVE",
"452 754 OFFCURVE",
"363 754 CURVE SMOOTH",
"168 754 OFFCURVE",
"59 434 OFFCURVE",
"59 210 CURVE SMOOTH",
"59 48 OFFCURVE",
"132 -14 OFFCURVE",
"221 -14 CURVE SMOOTH"
);
},
{
closed = 1;
nodes = (
"147 9 OFFCURVE",
"85 69 OFFCURVE",
"85 210 CURVE SMOOTH",
"85 421 OFFCURVE",
"191 731 OFFCURVE",
"361 731 CURVE SMOOTH",
"437 731 OFFCURVE",
"500 671 OFFCURVE",
"500 530 CURVE SMOOTH",
"500 319 OFFCURVE",
"393 9 OFFCURVE",
"224 9 CURVE SMOOTH"
);
}
);
width = 539;
}
);
leftKerningGroup = zero;
rightKerningGroup = zero;
unicode = 0030;
},
{
glyphname = one;
lastChange = "2016-03-13 11:05:35 +0000";
layers = (
{
layerId = "284DCAF7-AB20-402F-AEDF-E1CEEB9773D4";
name = "Regular Italic";
paths = (
{
closed = 1;
nodes = (
"350 0 LINE",
"510 750 LINE",
"437 750 LINE",
"176 633 LINE",
"193 571 LINE",
"434 664 LINE",
"407 688 LINE",
"260 0 LINE"
);
}
);
width = 580;
},
{
layerId = "005AA5DB-9C20-42D5-964E-7DFE1013E61C";
name = "Bold Italic";
paths = (
{
closed = 1;
nodes = (
"458 0 LINE",
"615 740 LINE",
"447 740 LINE",
"131 592 LINE",
"149 469 LINE",
"424 569 LINE",
"393 569 LINE",
"274 0 LINE"
);
}
);
width = 650;
},
{
layerId = "D0F50BF8-B137-4291-8B58-E185C78D1B48";
name = "Light Italic";
paths = (
{
closed = 1;
nodes = (
"292 0 LINE",
"449 740 LINE",
"428 740 LINE",
"178 633 LINE",
"183 613 LINE",
"432 716 LINE",
"420 716 LINE",
"268 0 LINE"
);
}
);
width = 539;
}
);
leftKerningGroup = one;
rightKerningGroup = one;
unicode = 0031;
},
{
glyphname = two;
lastChange = "2016-02-25 13:03:03 +0000";
layers = (
{
layerId = "284DCAF7-AB20-402F-AEDF-E1CEEB9773D4";
name = "Regular Italic";
paths = (
{
closed = 1;
nodes = (
"469 0 LINE",
"495 74 LINE",
"131 75 LINE",
"135 45 LINE",
"314 223 LINE SMOOTH",
"532 439 OFFCURVE",
"564 509 OFFCURVE",
"564 604 CURVE SMOOTH",
"564 696 OFFCURVE",
"497 754 OFFCURVE",
"386 754 CURVE SMOOTH",
"304 754 OFFCURVE",
"236 725 OFFCURVE",
"172 677 CURVE",
"195 624 LINE",
"258 662 OFFCURVE",
"301 678 OFFCURVE",
"352 678 CURVE SMOOTH",
"420 678 OFFCURVE",
"463 648 OFFCURVE",
"463 578 CURVE SMOOTH",
"463 503 OFFCURVE",
"425 438 OFFCURVE",
"245 261 CURVE SMOOTH",
"18 39 LINE",
"10 0 LINE"
);
}
);
width = 580;
},
{
layerId = "005AA5DB-9C20-42D5-964E-7DFE1013E61C";
name = "Bold Italic";
paths = (
{
closed = 1;
nodes = (
"521 0 LINE",
"570 136 LINE",
"196 137 LINE",
"191 49 LINE",
"352 193 LINE SMOOTH",
"574 391 OFFCURVE",
"615 470 OFFCURVE",
"615 577 CURVE SMOOTH",
"615 680 OFFCURVE",
"533 754 OFFCURVE",
"405 754 CURVE SMOOTH",
"312 754 OFFCURVE",
"235 733 OFFCURVE",
"164 686 CURVE",
"162 567 LINE",
"222 600 OFFCURVE",
"273 614 OFFCURVE",
"319 614 CURVE SMOOTH",
"379 614 OFFCURVE",
"422 588 OFFCURVE",
"422 529 CURVE SMOOTH",
"422 468 OFFCURVE",
"380 400 OFFCURVE",
"238 271 CURVE SMOOTH",
"14 68 LINE",
"-1 0 LINE"
);
}
);
width = 650;
},
{
layerId = "D0F50BF8-B137-4291-8B58-E185C78D1B48";
name = "Light Italic";
paths = (
{
closed = 1;
nodes = (
"417 0 LINE",
"427 23 LINE",
"35 24 LINE",
"46 19 LINE",
"334 328 LINE SMOOTH",
"449 451 OFFCURVE",
"488 525 OFFCURVE",
"488 603 CURVE SMOOTH",
"488 695 OFFCURVE",
"421 754 OFFCURVE",
"324 754 CURVE SMOOTH",
"266 754 OFFCURVE",
"208 734 OFFCURVE",
"158 698 CURVE",
"165 681 LINE",
"216 714 OFFCURVE",
"265 731 OFFCURVE",
"324 731 CURVE SMOOTH",
"398 731 OFFCURVE",
"462 687 OFFCURVE",
"462 603 CURVE SMOOTH",
"462 524 OFFCURVE",
"430 465 OFFCURVE",
"315 342 CURVE SMOOTH",
"7 11 LINE",
"5 0 LINE"
);
}
);
width = 539;
}
);
leftKerningGroup = two;
rightKerningGroup = two;
unicode = 0032;
},
{
glyphname = three;
lastChange = "2016-03-13 11:17:32 +0000";
layers = (
{
layerId = "284DCAF7-AB20-402F-AEDF-E1CEEB9773D4";
name = "Regular Italic";
paths = (
{
closed = 1;
nodes = (
"329 -14 OFFCURVE",
"501 75 OFFCURVE",
"501 262 CURVE SMOOTH",
"501 334 OFFCURVE",
"458 412 OFFCURVE",
"304 418 CURVE",
"358 396 LINE",
"490 418 OFFCURVE",
"566 508 OFFCURVE",
"566 605 CURVE SMOOTH",
"566 703 OFFCURVE",
"499 754 OFFCURVE",
"395 754 CURVE SMOOTH",
"322 754 OFFCURVE",
"257 733 OFFCURVE",
"196 694 CURVE",
"211 637 LINE",
"265 667 OFFCURVE",
"317 678 OFFCURVE",
"359 678 CURVE SMOOTH",
"420 678 OFFCURVE",
"465 653 OFFCURVE",
"465 586 CURVE SMOOTH",
"465 515 OFFCURVE",
"399 435 OFFCURVE",
"321 435 CURVE SMOOTH",
"207 435 LINE",
"191 361 LINE",
"284 361 LINE SMOOTH",
"363 361 OFFCURVE",
"401 321 OFFCURVE",
"401 257 CURVE SMOOTH",
"401 141 OFFCURVE",
"314 62 OFFCURVE",
"179 62 CURVE SMOOTH",
"132 62 OFFCURVE",
"83 72 OFFCURVE",
"47 96 CURVE",
"4 40 LINE",
"32 4 OFFCURVE",
"102 -14 OFFCURVE",
"174 -14 CURVE SMOOTH"
);
}
);
width = 580;
},
{
layerId = "005AA5DB-9C20-42D5-964E-7DFE1013E61C";
name = "Bold Italic";
paths = (
{
closed = 1;
nodes = (
"418 -14 OFFCURVE",
"565 91 OFFCURVE",
"565 253 CURVE SMOOTH",
"565 332 OFFCURVE",
"516 399 OFFCURVE",
"380 399 CURVE",
"376 381 LINE",
"499 381 OFFCURVE",
"629 451 OFFCURVE",
"629 595 CURVE SMOOTH",
"629 689 OFFCURVE",
"556 754 OFFCURVE",
"421 754 CURVE SMOOTH",
"332 754 OFFCURVE",
"243 727 OFFCURVE",
"189 695 CURVE",
"186 577 LINE",
"236 602 OFFCURVE",
"300 614 OFFCURVE",
"346 614 CURVE SMOOTH",
"407 614 OFFCURVE",
"437 592 OFFCURVE",
"437 552 CURVE SMOOTH",
"437 499 OFFCURVE",
"393 458 OFFCURVE",
"329 456 CURVE SMOOTH",
"242 453 LINE",
"214 325 LINE",
"285 323 LINE SMOOTH",
"351 321 OFFCURVE",
"378 289 OFFCURVE",
"378 247 CURVE SMOOTH",
"378 177 OFFCURVE",
"324 126 OFFCURVE",
"214 126 CURVE SMOOTH",
"169 126 OFFCURVE",
"113 135 OFFCURVE",
"70 155 CURVE",
"17 30 LINE",
"53 2 OFFCURVE",
"125 -14 OFFCURVE",
"211 -14 CURVE SMOOTH"
);
}
);
width = 650;
},
{
layerId = "D0F50BF8-B137-4291-8B58-E185C78D1B48";
name = "Light Italic";
paths = (
{
closed = 1;
nodes = (
"324 -14 OFFCURVE",
"466 88 OFFCURVE",
"466 250 CURVE SMOOTH",
"466 316 OFFCURVE",
"432 399 OFFCURVE",
"318 407 CURVE",
"330 393 LINE",
"455 415 OFFCURVE",
"533 523 OFFCURVE",
"533 611 CURVE SMOOTH",
"533 705 OFFCURVE",
"467 754 OFFCURVE",
"377 754 CURVE SMOOTH",
"316 754 OFFCURVE",
"257 735 OFFCURVE",
"200 698 CURVE",
"207 681 LINE",
"267 716 OFFCURVE",
"319 731 OFFCURVE",
"376 731 CURVE SMOOTH",
"455 731 OFFCURVE",
"507 685 OFFCURVE",
"507 611 CURVE SMOOTH",
"507 511 OFFCURVE",
"411 409 OFFCURVE",
"289 409 CURVE SMOOTH",
"221 409 LINE",
"216 386 LINE",
"284 386 LINE SMOOTH",
"399 386 OFFCURVE",
"440 321 OFFCURVE",
"440 250 CURVE SMOOTH",
"440 94 OFFCURVE",
"306 9 OFFCURVE",
"169 9 CURVE SMOOTH",
"108 9 OFFCURVE",
"69 18 OFFCURVE",
"22 43 CURVE",
"11 22 LINE",
"56 -6 OFFCURVE",
"106 -14 OFFCURVE",
"168 -14 CURVE SMOOTH"
);
}
);
width = 539;
}
);
leftKerningGroup = three;
rightKerningGroup = three;
unicode = 0033;
},
{
glyphname = four;
lastChange = "2016-02-25 13:02:53 +0000";
layers = (
{
layerId = "284DCAF7-AB20-402F-AEDF-E1CEEB9773D4";
name = "Regular Italic";
paths = (
{
closed = 1;
nodes = (
"404 0 LINE",
"562 740 LINE",
"484 740 LINE",
"35 243 LINE",
"27 205 LINE",
"368 206 LINE",
"384 280 LINE",
"128 280 LINE",
"130 246 LINE",
"483 643 LINE",
"451 643 LINE",
"365 239 LINE",
"314 0 LINE"
);
},
{
closed = 1;
nodes = (
"537 206 LINE",
"563 280 LINE",
"454 280 LINE",
"438 206 LINE"
);
}
);
width = 580;
},
{
layerId = "005AA5DB-9C20-42D5-964E-7DFE1013E61C";
name = "Bold Italic";
paths = (
{
closed = 1;
nodes = (
"484 0 LINE",
"654 740 LINE",
"447 740 LINE",
"27 244 LINE",
"12 176 LINE",
"352 176 LINE",
"384 312 LINE",
"160 312 LINE",
"187 247 LINE",
"511 639 LINE",
"453 637 LINE",
"354 244 LINE",
"299 0 LINE"
);
},
{
closed = 1;
nodes = (
"596 176 LINE",
"637 312 LINE",
"545 312 LINE",
"514 176 LINE"
);
}
);
width = 650;
},
{
layerId = "D0F50BF8-B137-4291-8B58-E185C78D1B48";
name = "Light Italic";
paths = (
{
closed = 1;
nodes = (
"350 0 LINE",
"507 742 LINE",
"482 742 LINE",
"38 243 LINE",
"36 232 LINE",
"379 233 LINE",
"384 256 LINE",
"66 256 LINE",
"72 247 LINE",
"489 716 LINE",
"478 716 LINE",
"378 245 LINE",
"326 0 LINE"
);
},
{
closed = 1;
nodes = (
"502 233 LINE",
"512 256 LINE",
"400 256 LINE",
"395 233 LINE"
);
}
);
width = 539;
}
);
leftKerningGroup = four;
rightKerningGroup = four;
unicode = 0034;
},
{
glyphname = five;
lastChange = "2016-02-25 13:03:07 +0000";
layers = (
{
layerId = "284DCAF7-AB20-402F-AEDF-E1CEEB9773D4";
name = "Regular Italic";
paths = (
{
closed = 1;
nodes = (
"336 -14 OFFCURVE",
"498 79 OFFCURVE",
"498 261 CURVE SMOOTH",
"498 398 OFFCURVE",
"397 452 OFFCURVE",
"273 452 CURVE SMOOTH",
"197 452 LINE",
"229 412 LINE",
"303 666 LINE",
"568 666 LINE",
"594 740 LINE",
"243 740 LINE",
"139 397 LINE",
"156 377 LINE",
"229 377 LINE SMOOTH",
"358 377 OFFCURVE",
"402 327 OFFCURVE",
"402 244 CURVE SMOOTH",
"402 121 OFFCURVE",
"292 62 OFFCURVE",
"195 62 CURVE SMOOTH",
"136 62 OFFCURVE",
"93 74 OFFCURVE",
"55 98 CURVE",
"13 41 LINE",
"46 7 OFFCURVE",
"103 -14 OFFCURVE",
"193 -14 CURVE SMOOTH"
);
}
);
width = 580;
},
{
layerId = "005AA5DB-9C20-42D5-964E-7DFE1013E61C";
name = "Bold Italic";
paths = (
{
closed = 1;
nodes = (
"397 -14 OFFCURVE",
"574 90 OFFCURVE",
"574 286 CURVE SMOOTH",
"574 412 OFFCURVE",
"481 478 OFFCURVE",
"351 478 CURVE SMOOTH",
"249 478 LINE",
"294 387 LINE",
"374 604 LINE",
"620 604 LINE",
"668 740 LINE",
"257 740 LINE",
"121 381 LINE",
"150 342 LINE",
"243 342 LINE SMOOTH",
"337 342 OFFCURVE",
"383 307 OFFCURVE",
"383 251 CURVE SMOOTH",
"383 173 OFFCURVE",
"322 126 OFFCURVE",
"236 126 CURVE SMOOTH",
"177 126 OFFCURVE",
"131 134 OFFCURVE",
"72 162 CURVE",
"14 40 LINE",
"66 3 OFFCURVE",
"128 -14 OFFCURVE",
"222 -14 CURVE SMOOTH"
);
}
);
width = 650;
},
{
layerId = "D0F50BF8-B137-4291-8B58-E185C78D1B48";
name = "Light Italic";
paths = (
{
closed = 1;
nodes = (
"318 -14 OFFCURVE",
"453 103 OFFCURVE",
"453 263 CURVE SMOOTH",
"453 380 OFFCURVE",
"374 447 OFFCURVE",
"233 447 CURVE SMOOTH",
"169 447 LINE",
"175 434 LINE",
"269 719 LINE",
"548 719 LINE",
"557 742 LINE",
"253 742 LINE",
"150 431 LINE",
"157 424 LINE",
"224 424 LINE SMOOTH",
"362 424 OFFCURVE",
"427 359 OFFCURVE",
"427 263 CURVE SMOOTH",
"427 127 OFFCURVE",
"312 9 OFFCURVE",
"163 9 CURVE SMOOTH",
"110 9 OFFCURVE",
"72 16 OFFCURVE",
"24 39 CURVE",
"13 20 LINE",
"59 -7 OFFCURVE",
"107 -14 OFFCURVE",
"160 -14 CURVE SMOOTH"
);
}
);
width = 539;
}
);
leftKerningGroup = five;
rightKerningGroup = five;
unicode = 0035;
},
{
glyphname = six;
lastChange = "2016-02-25 13:02:47 +0000";
layers = (
{
layerId = "284DCAF7-AB20-402F-AEDF-E1CEEB9773D4";
name = "Regular Italic";
paths = (
{
closed = 1;
nodes = (
"398 -14 OFFCURVE",
"527 97 OFFCURVE",
"527 264 CURVE SMOOTH",
"527 375 OFFCURVE",
"465 453 OFFCURVE",
"339 453 CURVE SMOOTH",
"278 453 OFFCURVE",
"216 434 OFFCURVE",
"165 382 CURVE",
"172 381 LINE",
"208 571 OFFCURVE",
"324 678 OFFCURVE",
"450 678 CURVE SMOOTH",
"503 678 OFFCURVE",
"536 673 OFFCURVE",
"572 658 CURVE",
"611 714 LINE",
"586 739 OFFCURVE",
"537 754 OFFCURVE",
"453 754 CURVE SMOOTH",
"166 754 OFFCURVE",
"61 423 OFFCURVE",
"61 224 CURVE SMOOTH",
"61 62 OFFCURVE",
"135 -14 OFFCURVE",
"258 -14 CURVE SMOOTH"
);
},
{
closed = 1;
nodes = (
"195 62 OFFCURVE",
"154 129 OFFCURVE",
"154 223 CURVE SMOOTH",
"154 261 OFFCURVE",
"156 288 OFFCURVE",
"163 324 CURVE",
"213 364 OFFCURVE",
"274 377 OFFCURVE",
"322 377 CURVE SMOOTH",
"387 377 OFFCURVE",
"432 337 OFFCURVE",
"432 259 CURVE SMOOTH",
"432 150 OFFCURVE",
"362 62 OFFCURVE",
"264 62 CURVE SMOOTH"
);
}
);
width = 580;
},
{
layerId = "005AA5DB-9C20-42D5-964E-7DFE1013E61C";
name = "Bold Italic";
paths = (
{
closed = 1;
nodes = (
"443 -15 OFFCURVE",
"612 95 OFFCURVE",
"612 306 CURVE SMOOTH",
"612 416 OFFCURVE",
"541 499 OFFCURVE",
"433 499 CURVE SMOOTH",
"376 499 OFFCURVE",
"306 482 OFFCURVE",
"265 434 CURVE",
"263 399 LINE",
"279 510 OFFCURVE",
"350 613 OFFCURVE",
"485 613 CURVE SMOOTH",
"532 613 OFFCURVE",
"579 605 OFFCURVE",
"609 590 CURVE",
"664 707 LINE",
"631 738 OFFCURVE",
"570 754 OFFCURVE",
"481 754 CURVE SMOOTH",
"196 754 OFFCURVE",
"51 491 OFFCURVE",
"51 232 CURVE SMOOTH",
"51 56 OFFCURVE",
"135 -15 OFFCURVE",
"290 -15 CURVE SMOOTH"
);
},
{
closed = 1;
nodes = (
"261 126 OFFCURVE",
"233 165 OFFCURVE",
"233 229 CURVE SMOOTH",
"233 262 OFFCURVE",
"236 290 OFFCURVE",
"248 339 CURVE",
"274 353 OFFCURVE",
"299 358 OFFCURVE",
"333 358 CURVE SMOOTH",
"383 358 OFFCURVE",
"422 326 OFFCURVE",
"422 265 CURVE SMOOTH",
"422 182 OFFCURVE",
"367 126 OFFCURVE",
"313 126 CURVE SMOOTH"
);
}
);
width = 650;
},
{
layerId = "D0F50BF8-B137-4291-8B58-E185C78D1B48";
name = "Light Italic";
paths = (
{
closed = 1;
nodes = (
"359 -14 OFFCURVE",
"481 116 OFFCURVE",
"481 275 CURVE SMOOTH",
"481 381 OFFCURVE",
"414 457 OFFCURVE",
"315 457 CURVE SMOOTH",
"242 457 OFFCURVE",
"157 433 OFFCURVE",
"102 388 CURVE",
"104 383 LINE",
"152 584 OFFCURVE",
"264 731 OFFCURVE",
"436 731 CURVE SMOOTH",
"482 731 OFFCURVE",
"516 722 OFFCURVE",
"555 698 CURVE",
"567 716 LINE",
"538 740 OFFCURVE",
"493 754 OFFCURVE",
"441 754 CURVE SMOOTH",
"169 754 OFFCURVE",
"60 432 OFFCURVE",
"60 210 CURVE SMOOTH",
"60 59 OFFCURVE",
"118 -14 OFFCURVE",
"234 -14 CURVE SMOOTH"
);
},
{
closed = 1;
nodes = (
"138 9 OFFCURVE",
"85 70 OFFCURVE",
"85 211 CURVE SMOOTH",
"85 273 OFFCURVE",
"90 322 OFFCURVE",
"99 365 CURVE",
"155 405 OFFCURVE",
"229 434 OFFCURVE",
"306 434 CURVE SMOOTH",
"399 434 OFFCURVE",
"455 369 OFFCURVE",
"455 275 CURVE SMOOTH",
"455 110 OFFCURVE",
"331 9 OFFCURVE",
"234 9 CURVE SMOOTH"
);
}
);
width = 539;
}
);
leftKerningGroup = six;
rightKerningGroup = six;
unicode = 0036;
},
{
glyphname = seven;
lastChange = "2016-03-13 11:17:41 +0000";
layers = (
{
layerId = "284DCAF7-AB20-402F-AEDF-E1CEEB9773D4";
name = "Regular Italic";
paths = (
{
closed = 1;
nodes = (
"163 0 LINE",
"264 238 OFFCURVE",
"414 458 OFFCURVE",
"631 697 CURVE",
"640 740 LINE",
"163 740 LINE",
"138 666 LINE",
"567 666 LINE",
"538 695 LINE",
"334 479 OFFCURVE",
"186 262 OFFCURVE",
"62 0 CURVE"
);
}
);
width = 580;
},
{
layerId = "005AA5DB-9C20-42D5-964E-7DFE1013E61C";
name = "Bold Italic";
paths = (
{
closed = 1;
nodes = (
"275 0 LINE",
"363 252 OFFCURVE",
"493 461 OFFCURVE",
"711 675 CURVE",
"725 740 LINE",
"161 740 LINE",
"110 599 LINE",
"566 599 LINE",
"573 692 LINE",
"320 469 OFFCURVE",
"194 278 OFFCURVE",
"83 0 CURVE"
);
}
);
width = 650;
},
{
layerId = "D0F50BF8-B137-4291-8B58-E185C78D1B48";
name = "Light Italic";
paths = (
{
closed = 1;
nodes = (
"107 0 LINE",
"200 241 OFFCURVE",
"407 551 OFFCURVE",
"595 729 CURVE",
"597 740 LINE",
"155 740 LINE",
"145 717 LINE",
"555 717 LINE",
"556 721 LINE",
"362 522 OFFCURVE",
"203 288 OFFCURVE",
"80 0 CURVE"
);
}
);
width = 539;
}
);
leftKerningGroup = seven;
rightKerningGroup = seven;
unicode = 0037;
},
{
glyphname = eight;
lastChange = "2016-02-25 13:02:47 +0000";
layers = (
{
layerId = "284DCAF7-AB20-402F-AEDF-E1CEEB9773D4";
name = "Regular Italic";
paths = (
{
closed = 1;
nodes = (
"379 -14 OFFCURVE",
"513 80 OFFCURVE",
"513 218 CURVE SMOOTH",
"513 310 OFFCURVE",
"460 363 OFFCURVE",
"385 403 CURVE",
"283 438 OFFCURVE",
"251 494 OFFCURVE",
"251 545 CURVE SMOOTH",
"251 623 OFFCURVE",
"309 680 OFFCURVE",
"384 680 CURVE SMOOTH",
"453 680 OFFCURVE",
"483 641 OFFCURVE",
"483 588 CURVE SMOOTH",
"483 518 OFFCURVE",
"438 448 OFFCURVE",
"309 406 CURVE",
"370 375 LINE",
"499 419 OFFCURVE",
"581 500 OFFCURVE",
"581 606 CURVE SMOOTH",
"581 688 OFFCURVE",
"525 754 OFFCURVE",
"399 754 CURVE SMOOTH",
"262 754 OFFCURVE",
"155 656 OFFCURVE",
"155 530 CURVE SMOOTH",
"155 460 OFFCURVE",
"195 405 OFFCURVE",
"258 376 CURVE",
"377 313 OFFCURVE",
"417 269 OFFCURVE",
"417 212 CURVE SMOOTH",
"417 123 OFFCURVE",
"343 60 OFFCURVE",
"248 60 CURVE SMOOTH",
"180 60 OFFCURVE",
"133 102 OFFCURVE",
"133 170 CURVE SMOOTH",
"133 277 OFFCURVE",
"210 337 OFFCURVE",
"338 387 CURVE",
"284 413 LINE",
"142 373 OFFCURVE",
"35 281 OFFCURVE",
"35 156 CURVE SMOOTH",
"35 45 OFFCURVE",
"117 -14 OFFCURVE",
"241 -14 CURVE SMOOTH"
);
}
);
width = 580;
},
{
layerId = "005AA5DB-9C20-42D5-964E-7DFE1013E61C";
name = "Bold Italic";
paths = (
{
closed = 1;
nodes = (
"448 -15 OFFCURVE",
"588 76 OFFCURVE",
"588 239 CURVE SMOOTH",
"588 344 OFFCURVE",
"504 405 OFFCURVE",
"417 438 CURVE",
"357 457 OFFCURVE",
"324 498 OFFCURVE",
"324 539 CURVE SMOOTH",
"324 582 OFFCURVE",
"355 614 OFFCURVE",
"395 614 CURVE SMOOTH",
"430 614 OFFCURVE",
"453 589 OFFCURVE",
"453 553 CURVE SMOOTH",
"453 504 OFFCURVE",
"423 451 OFFCURVE",
"341 430 CURVE",
"428 382 LINE",
"541 398 OFFCURVE",
"637 463 OFFCURVE",
"637 585 CURVE SMOOTH",
"637 672 OFFCURVE",
"574 754 OFFCURVE",
"421 754 CURVE SMOOTH",
"253 754 OFFCURVE",
"142 650 OFFCURVE",
"142 520 CURVE SMOOTH",
"142 438 OFFCURVE",
"191 369 OFFCURVE",
"242 352 CURVE",
"366 291 OFFCURVE",
"399 255 OFFCURVE",
"399 215 CURVE SMOOTH",
"399 163 OFFCURVE",
"361 126 OFFCURVE",
"300 126 CURVE SMOOTH",
"254 126 OFFCURVE",
"229 160 OFFCURVE",
"229 205 CURVE SMOOTH",
"229 283 OFFCURVE",
"277 328 OFFCURVE",
"394 373 CURVE",
"287 390 LINE",
"154 380 OFFCURVE",
"38 302 OFFCURVE",
"38 169 CURVE SMOOTH",
"38 45 OFFCURVE",
"129 -15 OFFCURVE",
"284 -15 CURVE SMOOTH"
);
}
);
width = 650;
},
{
layerId = "D0F50BF8-B137-4291-8B58-E185C78D1B48";
name = "Light Italic";
paths = (
{
closed = 1;
nodes = (
"346 -14 OFFCURVE",
"471 81 OFFCURVE",
"471 214 CURVE SMOOTH",
"471 292 OFFCURVE",
"419 354 OFFCURVE",
"335 385 CURVE",
"233 423 OFFCURVE",
"183 472 OFFCURVE",
"183 546 CURVE SMOOTH",
"183 642 OFFCURVE",
"273 731 OFFCURVE",
"382 731 CURVE SMOOTH",
"470 731 OFFCURVE",
"513 671 OFFCURVE",
"513 605 CURVE SMOOTH",
"513 513 OFFCURVE",
"430 427 OFFCURVE",
"306 390 CURVE",
"338 381 LINE",
"464 425 OFFCURVE",
"538 514 OFFCURVE",
"538 610 CURVE SMOOTH",
"538 689 OFFCURVE",
"487 754 OFFCURVE",
"386 754 CURVE SMOOTH",
"264 754 OFFCURVE",
"157 659 OFFCURVE",
"157 542 CURVE SMOOTH",
"157 477 OFFCURVE",
"192 428 OFFCURVE",
"265 390 CURVE",
"385 346 OFFCURVE",
"445 292 OFFCURVE",
"445 213 CURVE SMOOTH",
"445 72 OFFCURVE",
"316 9 OFFCURVE",
"213 9 CURVE SMOOTH",
"131 9 OFFCURVE",
"60 54 OFFCURVE",
"60 150 CURVE SMOOTH",
"60 270 OFFCURVE",
"156 353 OFFCURVE",
"290 389 CURVE",
"258 398 LINE",
"137 367 OFFCURVE",
"33 268 OFFCURVE",
"33 143 CURVE SMOOTH",
"33 36 OFFCURVE",
"111 -14 OFFCURVE",
"208 -14 CURVE SMOOTH"
);
}
);
width = 539;
}
);
leftKerningGroup = eight;
rightKerningGroup = eight;
unicode = 0038;
},
{
glyphname = fraction;
lastChange = "2016-03-13 11:17:47 +0000";
layers = (
{
layerId = "284DCAF7-AB20-402F-AEDF-E1CEEB9773D4";
name = "Regular Italic";
paths = (
{
closed = 1;
nodes = (
"31 -30 LINE",
"684 750 LINE",
"593 750 LINE",
"-60 -30 LINE"
);
}
);
width = 624;
},
{
layerId = "005AA5DB-9C20-42D5-964E-7DFE1013E61C";
name = "Bold Italic";
paths = (
{
closed = 1;
nodes = (
"86 -30 LINE",
"739 750 LINE",
"593 750 LINE",
"-60 -30 LINE"
);
}
);
width = 679;
},
{
layerId = "D0F50BF8-B137-4291-8B58-E185C78D1B48";
name = "Light Italic";
paths = (
{
closed = 1;
nodes = (
"-29 -30 LINE",
"624 750 LINE",
"593 750 LINE",
"-60 -30 LINE"
);
}
);
width = 564;
}
);
leftKerningGroup = fraction;
rightKerningGroup = fraction;
unicode = 2044;
},
{
glyphname = asterisk;
lastChange = "2016-03-13 11:17:50 +0000";
layers = (
{
layerId = "284DCAF7-AB20-402F-AEDF-E1CEEB9773D4";
name = "Regular Italic";
paths = (
{
closed = 1;
nodes = (
"407 112 LINE",
"296 288 LINE",
"278 245 LINE",
"483 294 LINE",
"470 365 LINE",
"271 291 LINE",
"295 263 LINE",
"353 481 LINE",
"279 481 LINE",
"245 262 LINE",
"290 281 LINE",
"113 361 LINE",
"79 296 LINE",
"264 243 LINE",
"252 282 LINE",
"83 120 LINE",
"136 73 LINE",
"292 259 LINE",
"251 265 LINE",
"340 71 LINE"
);
}
);
width = 547;
},
{
layerId = "005AA5DB-9C20-42D5-964E-7DFE1013E61C";
name = "Bold Italic";
paths = (
{
closed = 1;
nodes = (
"409 161 LINE",
"284 344 LINE",
"252 262 LINE",
"479 314 LINE",
"467 421 LINE",
"247 331 LINE",
"293 282 LINE",
"365 509 LINE",
"251 509 LINE",
"222 279 LINE",
"305 318 LINE",
"106 411 LINE",
"56 312 LINE",
"276 260 LINE",
"256 334 LINE",
"72 168 LINE",
"150 101 LINE",
"303 294 LINE",
"221 306 LINE",
"306 98 LINE"
);
}
);
width = 513;
},
{
layerId = "D0F50BF8-B137-4291-8B58-E185C78D1B48";
name = "Light Italic";
paths = (
{
closed = 1;
nodes = (
"364 110 LINE",
"278 267 LINE",
"274 258 LINE",
"474 316 LINE",
"471 341 LINE",
"272 277 LINE",
"279 269 LINE",
"325 467 LINE",
"299 467 LINE",
"260 269 LINE",
"270 275 LINE",
"97 339 LINE",
"86 316 LINE",
"262 258 LINE",
"260 269 LINE",
"108 114 LINE",
"127 98 LINE",
"273 258 LINE",
"261 260 LINE",
"341 98 LINE"
);
}
);
width = 536;
}
);
leftKerningGroup = asterisk;
rightKerningGroup = asterisk;
unicode = 002A;
},
{
glyphname = backslash;
lastChange = "2016-03-13 11:17:52 +0000";
layers = (
{
layerId = "284DCAF7-AB20-402F-AEDF-E1CEEB9773D4";
leftMetricsKey = "=|slash";
rightMetricsKey = "=|slash";
name = "Regular Italic";
paths = (
{
closed = 1;
nodes = (
"357 -30 LINE",
"198 750 LINE",
"134 750 LINE",
"293 -30 LINE"
);
}
);
width = 449;
},
{
layerId = "005AA5DB-9C20-42D5-964E-7DFE1013E61C";
rightMetricsKey = "=|slash";
name = "Bold Italic";
paths = (
{
closed = 1;
nodes = (
"415 -30 LINE",
"246 750 LINE",
"144 750 LINE",
"313 -30 LINE"
);
}
);
width = 517;
},
{
layerId = "D0F50BF8-B137-4291-8B58-E185C78D1B48";
leftMetricsKey = "=|slash";
rightMetricsKey = "=|slash";
name = "Light Italic";
paths = (
{
closed = 1;
nodes = (
"334 -30 LINE",
"165 750 LINE",
"144 750 LINE",
"313 -30 LINE"
);
}
);
width = 436;
}
);
leftKerningGroup = backslash;
leftMetricsKey = "=|slash";
rightKerningGroup = backslash;
rightMetricsKey = "=|slash";
unicode = 005C;
},
{
glyphname = bullet;
lastChange = "2015-06-30 14:02:59 +0000";
layers = (
{
layerId = "284DCAF7-AB20-402F-AEDF-E1CEEB9773D4";
name = "Regular Italic";
paths = (
{
closed = 1;
nodes = (
"106 220 OFFCURVE",
"174 220 OFFCURVE",
"209 228 CURVE",
"242 383 LINE",
"210 391 OFFCURVE",
"142 391 OFFCURVE",
"106 383 CURVE",
"73 228 LINE"
);
}
);
width = 296;
},
{
layerId = "005AA5DB-9C20-42D5-964E-7DFE1013E61C";
name = "Bold Italic";
paths = (
{
closed = 1;
nodes = (
"114 257 OFFCURVE",
"230 257 OFFCURVE",
"284 268 CURVE",
"327 472 LINE",
"278 483 OFFCURVE",
"162 483 OFFCURVE",
"107 472 CURVE",
"64 268 LINE"
);
}
);
width = 344;
},
{
layerId = "D0F50BF8-B137-4291-8B58-E185C78D1B48";
name = "Light Italic";
paths = (
{
closed = 1;
nodes = (
"82 215 OFFCURVE",
"94 215 OFFCURVE",
"105 218 CURVE",
"143 393 LINE",
"132 396 OFFCURVE",
"120 396 OFFCURVE",
"109 393 CURVE",
"71 218 LINE"
);
}
);
width = 195;
}
);
leftKerningGroup = period;
rightKerningGroup = period;
unicode = 2022;
},
{
glyphname = comma;
lastChange = "2015-06-30 14:02:59 +0000";
layers = (
{
layerId = "284DCAF7-AB20-402F-AEDF-E1CEEB9773D4";
name = "Regular Italic";
paths = (
{
closed = 1;
nodes = (
"-13 -164 LINE",
"64 -89 OFFCURVE",
"122 -3 OFFCURVE",
"147 115 CURVE",
"124 116 OFFCURVE",
"78 110 OFFCURVE",
"54 101 CURVE",
"22 -6 OFFCURVE",
"-16 -77 OFFCURVE",
"-82 -164 CURVE"
);
}
);
width = 304;
},
{
layerId = "005AA5DB-9C20-42D5-964E-7DFE1013E61C";
name = "Bold Italic";
paths = (
{
closed = 1;
nodes = (
"25 -206 LINE",
"122 -113 OFFCURVE",
"195 -2 OFFCURVE",
"222 164 CURVE",
"185 165 OFFCURVE",
"80 150 OFFCURVE",
"37 134 CURVE",
"20 22 OFFCURVE",
"-18 -81 OFFCURVE",
"-110 -206 CURVE"
);
}
);
width = 340;
},
{
layerId = "D0F50BF8-B137-4291-8B58-E185C78D1B48";
name = "Light Italic";
paths = (
{
closed = 1;
nodes = (
"-80 -165 LINE",
"-20 -95 OFFCURVE",
"29 0 OFFCURVE",
"57 115 CURVE",
"48 115 OFFCURVE",
"36 111 OFFCURVE",
"29 106 CURVE",
"6 12 OFFCURVE",
"-36 -80 OFFCURVE",
"-102 -165 CURVE"
);
}
);
width = 162;
}
);
leftKerningGroup = period;
rightKerningGroup = period;
unicode = 002C;
},
{
glyphname = exclam;
lastChange = "2016-03-13 11:18:00 +0000";
layers = (
{
components = (
{
name = period;
transform = "{1, 0, 0, 1, 2, 0}";
}
);
layerId = "284DCAF7-AB20-402F-AEDF-E1CEEB9773D4";
name = "Regular Italic";
paths = (
{
closed = 1;
nodes = (
"158 210 LINE",
"284 740 LINE",
"182 740 LINE",
"76 210 LINE"
);
}
);
width = 262;
},
{
components = (
{
name = period;
transform = "{1, 0, 0, 1, -15, 0}";
}
);
layerId = "005AA5DB-9C20-42D5-964E-7DFE1013E61C";
name = "Bold Italic";
paths = (
{
closed = 1;
nodes = (
"217 250 LINE",
"337 740 LINE",
"155 740 LINE",
"55 250 LINE"
);
}
);
width = 280;
},
{
components = (
{
name = period;
transform = "{1, 0, 0, 1, 40, 0}";
}
);
layerId = "D0F50BF8-B137-4291-8B58-E185C78D1B48";
name = "Light Italic";
paths = (
{
closed = 1;
nodes = (
"110 210 LINE",
"230 740 LINE",
"204 740 LINE",
"90 210 LINE"
);
}
);
width = 228;
}
);
leftKerningGroup = exclam;
rightKerningGroup = exclam;
unicode = 0021;
},
{
glyphname = numbersign;
lastChange = "2016-03-13 11:18:03 +0000";
layers = (
{
layerId = "284DCAF7-AB20-402F-AEDF-E1CEEB9773D4";
name = "Regular Italic";
paths = (
{
closed = 1;
nodes = (
"274 0 LINE",
"564 690 LINE",
"491 690 LINE",
"382 431 LINE",
"378 421 LINE",
"319 280 LINE",
"312 264 LINE",
"201 0 LINE"
);
},
{
closed = 1;
nodes = (
"478 239 LINE",
"491 301 LINE",
"80 301 LINE",
"67 239 LINE"
);
},
{
closed = 1;
nodes = (
"117 0 LINE",
"230 269 LINE",
"236 284 LINE",
"290 413 LINE",
"300 436 LINE",
"407 690 LINE",
"334 690 LINE",
"44 0 LINE"
);
},
{
closed = 1;
nodes = (
"535 389 LINE",
"548 451 LINE",
"137 451 LINE",
"124 389 LINE"
);
}
);
width = 580;
},
{
layerId = "005AA5DB-9C20-42D5-964E-7DFE1013E61C";
name = "Bold Italic";
paths = (
{
closed = 1;
nodes = (
"342 0 LINE",
"632 690 LINE",
"518 690 LINE",
"423 463 LINE",
"410 417 LINE",
"346 267 LINE",
"327 235 LINE",
"228 0 LINE"
);
},
{
closed = 1;
nodes = (
"532 198 LINE",
"554 302 LINE",
"94 302 LINE",
"72 198 LINE"
);
},
{
closed = 1;
nodes = (
"167 0 LINE",
"265 233 LINE",
"274 268 LINE",
"348 444 LINE",
"361 461 LINE",
"457 690 LINE",
"343 690 LINE",
"53 0 LINE"
);
},
{
closed = 1;
nodes = (
"597 388 LINE",
"620 492 LINE",
"160 492 LINE",
"137 388 LINE"
);
}
);
width = 658;
},
{
layerId = "D0F50BF8-B137-4291-8B58-E185C78D1B48";
name = "Light Italic";
paths = (
{
closed = 1;
nodes = (
"220 0 LINE",
"510 690 LINE",
"486 690 LINE",
"375 425 LINE",
"372 419 LINE",
"312 276 LINE",
"310 270 LINE",
"196 0 LINE"
);
},
{
closed = 1;
nodes = (
"438 260 LINE",
"443 282 LINE",
"80 282 LINE",
"75 260 LINE"
);
},
{
closed = 1;
nodes = (
"82 0 LINE",
"195 268 LINE",
"198 276 LINE",
"258 419 LINE",
"261 425 LINE",
"372 690 LINE",
"348 690 LINE",
"58 0 LINE"
);
},
{
closed = 1;
nodes = (
"495 409 LINE",
"500 431 LINE",
"137 431 LINE",
"132 409 LINE"
);
}
);
width = 539;
}
);
leftKerningGroup = numbersign;
rightKerningGroup = numbersign;
unicode = 0023;
},
{
glyphname = period;
lastChange = "2016-03-13 11:18:04 +0000";
layers = (
{
anchors = (
{
name = _dot;
position = "{85, 57}";
}
);
layerId = "284DCAF7-AB20-402F-AEDF-E1CEEB9773D4";
name = "Regular Italic";
paths = (
{
closed = 1;
nodes = (
"48 -7 OFFCURVE",
"96 -7 OFFCURVE",
"121 -1 CURVE",
"145 114 LINE",
"123 120 OFFCURVE",
"75 120 OFFCURVE",
"49 114 CURVE",
"25 -1 LINE"
);
}
);
width = 304;
},
{
anchors = (
{
name = _dot;
position = "{112, 82}";
}
);
layerId = "005AA5DB-9C20-42D5-964E-7DFE1013E61C";
name = "Bold Italic";
paths = (
{
closed = 1;
nodes = (
"46 -7 OFFCURVE",
"142 -7 OFFCURVE",
"185 0 CURVE",
"220 164 LINE",
"179 171 OFFCURVE",
"83 171 OFFCURVE",
"40 164 CURVE",
"5 0 LINE"
);
}
);
width = 340;
},
{
anchors = (
{
name = _dot;
position = "{29, 57}";
}
);
layerId = "D0F50BF8-B137-4291-8B58-E185C78D1B48";
name = "Light Italic";
paths = (
{
closed = 1;
nodes = (
"11 -2 OFFCURVE",
"23 -2 OFFCURVE",
"29 0 CURVE",
"53 115 LINE",
"48 117 OFFCURVE",
"36 117 OFFCURVE",
"29 115 CURVE",
"5 0 LINE"
);
}
);
width = 162;
}
);
leftKerningGroup = period;
rightKerningGroup = period;
unicode = 002E;
},
{
glyphname = question;
lastChange = "2015-06-30 14:02:59 +0000";
layers = (
{
components = (
{
name = period;
transform = "{1, 0, 0, 1, 92, 0}";
}
);
layerId = "284DCAF7-AB20-402F-AEDF-E1CEEB9773D4";
name = "Regular Italic";
paths = (
{
closed = 1;
nodes = (
"250 210 LINE",
"285 375 LINE",
"242 305 LINE",
"393 328 OFFCURVE",
"519 438 OFFCURVE",
"519 570 CURVE SMOOTH",
"519 694 OFFCURVE",
"438 754 OFFCURVE",
"314 754 CURVE SMOOTH",
"237 754 OFFCURVE",
"167 725 OFFCURVE",
"109 678 CURVE",
"133 618 LINE",
"183 656 OFFCURVE",
"242 678 OFFCURVE",
"297 678 CURVE SMOOTH",
"360 678 OFFCURVE",
"424 646 OFFCURVE",
"424 570 CURVE SMOOTH",
"424 436 OFFCURVE",
"303 377 OFFCURVE",
"195 369 CURVE",
"162 210 LINE"
);
}
);
width = 495;
},
{
components = (
{
name = period;
transform = "{1, 0, 0, 1, 77, 0}";
}
);
layerId = "005AA5DB-9C20-42D5-964E-7DFE1013E61C";
name = "Bold Italic";
paths = (
{
closed = 1;
nodes = (
"309 250 LINE",
"346 408 LINE",
"258 308 LINE",
"442 308 OFFCURVE",
"559 438 OFFCURVE",
"559 567 CURVE SMOOTH",
"559 666 OFFCURVE",
"497 759 OFFCURVE",
"336 759 CURVE SMOOTH",
"249 759 OFFCURVE",
"168 737 OFFCURVE",
"94 682 CURVE",
"133 568 LINE",
"185 603 OFFCURVE",
"231 619 OFFCURVE",
"276 619 CURVE SMOOTH",
"332 619 OFFCURVE",
"369 590 OFFCURVE",
"369 537 CURVE SMOOTH",
"369 474 OFFCURVE",
"325 394 OFFCURVE",
"167 381 CURVE",
"139 250 LINE"
);
}
);
width = 525;
},
{
components = (
{
name = period;
transform = "{1, 0, 0, 1, 131, 0}";
}
);
layerId = "D0F50BF8-B137-4291-8B58-E185C78D1B48";
name = "Light Italic";
paths = (
{
closed = 1;
nodes = (
"201 210 LINE",
"236 376 LINE",
"226 360 LINE",
"352 393 OFFCURVE",
"463 484 OFFCURVE",
"463 607 CURVE SMOOTH",
"463 699 OFFCURVE",
"404 754 OFFCURVE",
"299 754 CURVE SMOOTH",
"237 754 OFFCURVE",
"181 731 OFFCURVE",
"128 691 CURVE",
"138 674 LINE",
"189 710 OFFCURVE",
"238 731 OFFCURVE",
"299 731 CURVE SMOOTH",
"381 731 OFFCURVE",
"437 687 OFFCURVE",
"437 607 CURVE SMOOTH",
"437 494 OFFCURVE",
"338 413 OFFCURVE",
"215 381 CURVE",
"179 210 LINE"
);
}
);
width = 452;
}
);
leftKerningGroup = question;
rightKerningGroup = question;
unicode = 003F;
},
{
glyphname = quotesingle;
lastChange = "2016-03-13 11:18:11 +0000";
layers = (
{
layerId = "284DCAF7-AB20-402F-AEDF-E1CEEB9773D4";
name = "Regular Italic";
paths = (
{
closed = 1;
nodes = (
"113 455 LINE",
"176 720 LINE",
"154 726 OFFCURVE",
"114 726 OFFCURVE",
"88 720 CURVE",
"39 455 LINE"
);
}
);
width = 215;
},
{
layerId = "005AA5DB-9C20-42D5-964E-7DFE1013E61C";
name = "Bold Italic";
paths = (
{
closed = 1;
nodes = (
"205 422 LINE",
"275 720 LINE",
"253 726 OFFCURVE",
"121 726 OFFCURVE",
"95 720 CURVE",
"39 422 LINE"
);
}
);
width = 314;
},
{
layerId = "D0F50BF8-B137-4291-8B58-E185C78D1B48";
name = "Light Italic";
paths = (
{
closed = 1;
nodes = (
"59 455 LINE",
"117 720 LINE",
"112 722 OFFCURVE",
"100 722 OFFCURVE",
"93 720 CURVE",
"39 455 LINE"
);
}
);
width = 156;
}
);
leftKerningGroup = quotesingle;
rightKerningGroup = quotesingle;
unicode = 0027;
},
{
glyphname = slash;
lastChange = "2016-03-13 11:18:19 +0000";
layers = (
{
layerId = "284DCAF7-AB20-402F-AEDF-E1CEEB9773D4";
name = "Regular Italic";
paths = (
{
closed = 1;
nodes = (
"40 -30 LINE",
"429 750 LINE",
"357 750 LINE",
"-32 -30 LINE"
);
}
);
width = 355;
},
{
layerId = "005AA5DB-9C20-42D5-964E-7DFE1013E61C";
name = "Bold Italic";
paths = (
{
closed = 1;
nodes = (
"94 -30 LINE",
"483 750 LINE",
"367 750 LINE",
"-22 -30 LINE"
);
}
);
width = 419;
},
{
layerId = "D0F50BF8-B137-4291-8B58-E185C78D1B48";
name = "Light Italic";
paths = (
{
closed = 1;
nodes = (
"2 -30 LINE",
"391 750 LINE",
"367 750 LINE",
"-22 -30 LINE"
);
}
);
width = 327;
}
);
leftKerningGroup = slash;
rightKerningGroup = slash;
unicode = 002F;
},
{
glyphname = underscore;
lastChange = "2016-03-13 11:18:21 +0000";
layers = (
{
layerId = "284DCAF7-AB20-402F-AEDF-E1CEEB9773D4";
name = "Regular Italic";
paths = (
{
closed = 1;
nodes = (
"333 -92 LINE",
"347 -26 LINE",
"31 -26 LINE",
"17 -92 LINE"
);
}
);
width = 500;
},
{
layerId = "005AA5DB-9C20-42D5-964E-7DFE1013E61C";
name = "Bold Italic";
paths = (
{
closed = 1;
nodes = (
"408 -134 LINE",
"430 -30 LINE",
"114 -30 LINE",
"92 -134 LINE"
);
}
);
width = 522;
},
{
layerId = "D0F50BF8-B137-4291-8B58-E185C78D1B48";
name = "Light Italic";
paths = (
{
closed = 1;
nodes = (
"341 -52 LINE",
"346 -30 LINE",
"30 -30 LINE",
"25 -52 LINE"
);
}
);
width = 500;
}
);
leftKerningGroup = underscore;
rightKerningGroup = underscore;
unicode = 005F;
},
{
glyphname = braceleft;
lastChange = "2016-03-13 11:18:23 +0000";
layers = (
{
layerId = "284DCAF7-AB20-402F-AEDF-E1CEEB9773D4";
name = "Regular Italic";
paths = (
{
closed = 1;
nodes = (
"141 332 LINE",
"249 327 OFFCURVE",
"264 396 OFFCURVE",
"279 558 CURVE SMOOTH",
"289 661 OFFCURVE",
"301 689 OFFCURVE",
"372 689 CURVE SMOOTH",
"384 689 LINE",
"398 755 LINE",
"387 755 LINE SMOOTH",
"291 755 OFFCURVE",
"238 721 OFFCURVE",
"222 644 CURVE SMOOTH",
"217 619 OFFCURVE",
"214 599 OFFCURVE",
"209 548 CURVE SMOOTH",
"198 422 OFFCURVE",
"191 375 OFFCURVE",
"99 366 CURVE",
"85 300 LINE"
);
},
{
closed = 1;
nodes = (
"218 -89 LINE",
"232 -23 LINE",
"220 -23 LINE SMOOTH",
"186 -23 OFFCURVE",
"162 -9 OFFCURVE",
"162 21 CURVE SMOOTH",
"162 38 OFFCURVE",
"167 56 OFFCURVE",
"184 108 CURVE SMOOTH",
"204 170 OFFCURVE",
"217 223 OFFCURVE",
"217 252 CURVE SMOOTH",
"217 308 OFFCURVE",
"192 336 OFFCURVE",
"141 334 CURVE",
"99 366 LINE",
"85 300 LINE",
"132 295 OFFCURVE",
"143 278 OFFCURVE",
"143 244 CURVE SMOOTH",
"143 208 OFFCURVE",
"135 173 OFFCURVE",
"117 118 CURVE SMOOTH",
"100 67 OFFCURVE",
"91 27 OFFCURVE",
"91 -4 CURVE SMOOTH",
"91 -62 OFFCURVE",
"126 -89 OFFCURVE",
"207 -89 CURVE SMOOTH"
);
}
);
width = 328;
},
{
layerId = "005AA5DB-9C20-42D5-964E-7DFE1013E61C";
name = "Bold Italic";
paths = (
{
closed = 1;
nodes = (
"202 332 LINE",
"312 327 OFFCURVE",
"324 409 OFFCURVE",
"337 538 CURVE SMOOTH",
"345 627 OFFCURVE",
"358 651 OFFCURVE",
"425 651 CURVE SMOOTH",
"437 651 LINE",
"459 755 LINE",
"443 755 LINE SMOOTH",
"317 755 OFFCURVE",
"255 731 OFFCURVE",
"234 634 CURVE SMOOTH",
"231 619 OFFCURVE",
"228 599 OFFCURVE",
"223 548 CURVE SMOOTH",
"211 416 OFFCURVE",
"202 392 OFFCURVE",
"117 385 CURVE",
"95 281 LINE"
);
},
{
closed = 1;
nodes = (
"279 -89 LINE",
"301 15 LINE",
"289 15 LINE SMOOTH",
"240 15 OFFCURVE",
"225 26 OFFCURVE",
"225 49 CURVE SMOOTH",
"225 64 OFFCURVE",
"229 82 OFFCURVE",
"246 137 CURVE SMOOTH",
"261 187 OFFCURVE",
"274 235 OFFCURVE",
"274 261 CURVE SMOOTH",
"274 306 OFFCURVE",
"255 337 OFFCURVE",
"202 334 CURVE",
"117 385 LINE",
"95 281 LINE",
"145 276 OFFCURVE",
"157 262 OFFCURVE",
"157 233 CURVE SMOOTH",
"157 212 OFFCURVE",
"148 182 OFFCURVE",
"127 118 CURVE SMOOTH",
"110 67 OFFCURVE",
"102 37 OFFCURVE",
"102 12 CURVE SMOOTH",
"102 -70 OFFCURVE",
"155 -89 OFFCURVE",
"263 -89 CURVE SMOOTH"
);
}
);
width = 400;
},
{
layerId = "D0F50BF8-B137-4291-8B58-E185C78D1B48";
name = "Light Italic";
paths = (
{
closed = 1;
nodes = (
"120 332 LINE",
"224 335 OFFCURVE",
"242 419 OFFCURVE",
"252 548 CURVE SMOOTH",
"260 654 OFFCURVE",
"280 733 OFFCURVE",
"355 733 CURVE SMOOTH",
"367 733 LINE",
"371 755 LINE",
"360 755 LINE SMOOTH",
"310 755 OFFCURVE",
"260 731 OFFCURVE",
"239 634 CURVE SMOOTH",
"236 619 OFFCURVE",
"233 599 OFFCURVE",
"228 548 CURVE SMOOTH",
"217 425 OFFCURVE",
"207 354 OFFCURVE",
"114 345 CURVE",
"109 321 LINE"
);
},
{
closed = 1;
nodes = (
"192 -89 LINE",
"197 -67 LINE",
"185 -67 LINE SMOOTH",
"148 -67 OFFCURVE",
"130 -47 OFFCURVE",
"130 -4 CURVE SMOOTH",
"130 26 OFFCURVE",
"137 53 OFFCURVE",
"158 108 CURVE SMOOTH",
"181 167 OFFCURVE",
"196 214 OFFCURVE",
"196 254 CURVE SMOOTH",
"196 301 OFFCURVE",
"173 332 OFFCURVE",
"121 334 CURVE",
"114 345 LINE",
"109 321 LINE",
"154 316 OFFCURVE",
"172 291 OFFCURVE",
"172 253 CURVE SMOOTH",
"172 220 OFFCURVE",
"161 182 OFFCURVE",
"137 118 CURVE SMOOTH",
"114 57 OFFCURVE",
"106 26 OFFCURVE",
"106 -6 CURVE SMOOTH",
"106 -71 OFFCURVE",
"140 -89 OFFCURVE",
"181 -89 CURVE SMOOTH"
);
}
);
width = 447;
}
);
leftKerningGroup = braceleft;
rightKerningGroup = braceleft;
unicode = 007B;
},
{
glyphname = bracketleft;
lastChange = "2016-03-13 11:18:29 +0000";
layers = (
{
layerId = "284DCAF7-AB20-402F-AEDF-E1CEEB9773D4";
name = "Regular Italic";
paths = (
{
closed = 1;
nodes = (
"120 -80 LINE",
"296 746 LINE",
"226 746 LINE",
"50 -80 LINE"
);
},
{
closed = 1;
nodes = (
"244 -80 LINE",
"258 -14 LINE",
"74 -14 LINE",
"50 -80 LINE"
);
},
{
closed = 1;
nodes = (
"406 680 LINE",
"420 746 LINE",
"226 746 LINE",
"222 680 LINE"
);
}
);
width = 369;
},
{
layerId = "005AA5DB-9C20-42D5-964E-7DFE1013E61C";
name = "Bold Italic";
paths = (
{
closed = 1;
nodes = (
"162 -80 LINE",
"338 746 LINE",
"226 746 LINE",
"50 -80 LINE"
);
},
{
closed = 1;
nodes = (
"334 -80 LINE",
"356 24 LINE",
"82 24 LINE",
"50 -80 LINE"
);
},
{
closed = 1;
nodes = (
"487 642 LINE",
"510 746 LINE",
"226 746 LINE",
"213 642 LINE"
);
}
);
width = 451;
},
{
layerId = "D0F50BF8-B137-4291-8B58-E185C78D1B48";
name = "Light Italic";
paths = (
{
closed = 1;
nodes = (
"146 -80 LINE",
"322 746 LINE",
"298 746 LINE",
"122 -80 LINE"
);
},
{
closed = 1;
nodes = (
"254 -80 LINE",
"259 -58 LINE",
"138 -58 LINE",
"122 -80 LINE"
);
},
{
closed = 1;
nodes = (
"425 724 LINE",
"430 746 LINE",
"298 746 LINE",
"304 724 LINE"
);
}
);
width = 428;
}
);
leftKerningGroup = bracketleft;
rightKerningGroup = bracketleft;
unicode = 005B;
},
{
glyphname = parenleft;
lastChange = "2016-03-13 11:18:33 +0000";
layers = (
{
layerId = "284DCAF7-AB20-402F-AEDF-E1CEEB9773D4";
name = "Regular Italic";
paths = (
{
closed = 1;
nodes = (
"251 -45 LINE",
"208 14 OFFCURVE",
"176 103 OFFCURVE",
"176 214 CURVE SMOOTH",
"176 402 OFFCURVE",
"268 591 OFFCURVE",
"415 725 CURVE",
"366 760 LINE",
"192 616 OFFCURVE",
"102 411 OFFCURVE",
"102 204 CURVE SMOOTH",
"102 69 OFFCURVE",
"137 -14 OFFCURVE",
"188 -80 CURVE"
);
}
);
width = 370;
},
{
layerId = "005AA5DB-9C20-42D5-964E-7DFE1013E61C";
name = "Bold Italic";
paths = (
{
closed = 1;
nodes = (
"282 -15 LINE",
"236 31 OFFCURVE",
"206 107 OFFCURVE",
"206 220 CURVE SMOOTH",
"206 451 OFFCURVE",
"297 599 OFFCURVE",
"433 695 CURVE",
"366 760 LINE",
"240 695 OFFCURVE",
"89 483 OFFCURVE",
"89 213 CURVE SMOOTH",
"89 78 OFFCURVE",
"130 -12 OFFCURVE",
"188 -80 CURVE"
);
}
);
width = 385;
},
{
layerId = "D0F50BF8-B137-4291-8B58-E185C78D1B48";
name = "Light Italic";
paths = (
{
closed = 1;
nodes = (
"203 -65 LINE",
"151 0 OFFCURVE",
"121 90 OFFCURVE",
"121 200 CURVE SMOOTH",
"121 394 OFFCURVE",
"214 603 OFFCURVE",
"377 743 CURVE",
"362 760 LINE",
"196 622 OFFCURVE",
"97 401 OFFCURVE",
"97 198 CURVE SMOOTH",
"97 76 OFFCURVE",
"133 -15 OFFCURVE",
"184 -80 CURVE"
);
}
);
width = 382;
}
);
leftKerningGroup = parenleft;
rightKerningGroup = parenleft;
unicode = 0028;
},
{
glyphname = emdash;
lastChange = "2016-03-13 11:18:36 +0000";
layers = (
{
layerId = "284DCAF7-AB20-402F-AEDF-E1CEEB9773D4";
name = "Regular Italic";
paths = (
{
closed = 1;
nodes = (
"907 257 LINE",
"921 323 LINE",
"105 323 LINE",
"91 257 LINE"
);
}
);
width = 1000;
},
{
layerId = "005AA5DB-9C20-42D5-964E-7DFE1013E61C";
name = "Bold Italic";
paths = (
{
closed = 1;
nodes = (
"903 238 LINE",
"925 342 LINE",
"109 342 LINE",
"87 238 LINE"
);
}
);
width = 1000;
},
{
layerId = "D0F50BF8-B137-4291-8B58-E185C78D1B48";
name = "Light Italic";
paths = (
{
closed = 1;
nodes = (
"908 280 LINE",
"913 302 LINE",
"97 302 LINE",
"92 280 LINE"
);
}
);
width = 1005;
}
);
leftKerningGroup = hyphen;
rightKerningGroup = hyphen;
unicode = 2014;
},
{
glyphname = endash;
lastChange = "2016-03-13 11:18:39 +0000";
layers = (
{
layerId = "284DCAF7-AB20-402F-AEDF-E1CEEB9773D4";
name = "Regular Italic";
paths = (
{
closed = 1;
nodes = (
"407 257 LINE",
"421 323 LINE",
"105 323 LINE",
"91 257 LINE"
);
}
);
width = 500;
},
{
layerId = "005AA5DB-9C20-42D5-964E-7DFE1013E61C";
name = "Bold Italic";
paths = (
{
closed = 1;
nodes = (
"403 238 LINE",
"425 342 LINE",
"109 342 LINE",
"87 238 LINE"
);
}
);
width = 500;
},
{
layerId = "D0F50BF8-B137-4291-8B58-E185C78D1B48";
name = "Light Italic";
paths = (
{
closed = 1;
nodes = (
"408 280 LINE",
"413 302 LINE",
"97 302 LINE",
"92 280 LINE"
);
}
);
width = 505;
}
);
leftKerningGroup = hyphen;
rightKerningGroup = hyphen;
unicode = 2013;
},
{
glyphname = hyphen;
lastChange = "2016-03-13 11:18:41 +0000";
layers = (
{
layerId = "284DCAF7-AB20-402F-AEDF-E1CEEB9773D4";
name = "Regular Italic";
paths = (
{
closed = 1;
nodes = (
"301 257 LINE",
"315 323 LINE",
"111 323 LINE",
"97 257 LINE"
);
}
);
width = 400;
},
{
layerId = "005AA5DB-9C20-42D5-964E-7DFE1013E61C";
name = "Bold Italic";
paths = (
{
closed = 1;
nodes = (
"326 238 LINE",
"348 342 LINE",
"114 342 LINE",
"92 238 LINE"
);
}
);
width = 428;
},
{
layerId = "D0F50BF8-B137-4291-8B58-E185C78D1B48";
name = "Light Italic";
paths = (
{
closed = 1;
nodes = (
"296 280 LINE",
"301 302 LINE",
"97 302 LINE",
"92 280 LINE"
);
}
);
width = 393;
}
);
leftKerningGroup = hyphen;
rightKerningGroup = hyphen;
unicode = 002D;
},
{
glyphname = guilsinglleft;
lastChange = "2016-03-13 11:18:47 +0000";
layers = (
{
layerId = "284DCAF7-AB20-402F-AEDF-E1CEEB9773D4";
name = "Regular Italic";
paths = (
{
closed = 1;
nodes = (
"237 110 LINE",
"127 281 LINE",
"125 217 LINE",
"298 380 LINE",
"257 414 LINE",
"64 243 LINE",
"190 82 LINE"
);
}
);
width = 318;
},
{
layerId = "005AA5DB-9C20-42D5-964E-7DFE1013E61C";
name = "Bold Italic";
paths = (
{
closed = 1;
nodes = (
"298 120 LINE",
"189 292 LINE",
"192 217 LINE",
"356 372 LINE",
"299 424 LINE",
"91 243 LINE",
"225 72 LINE"
);
}
);
width = 386;
},
{
layerId = "D0F50BF8-B137-4291-8B58-E185C78D1B48";
name = "Light Italic";
paths = (
{
closed = 1;
nodes = (
"212 101 LINE",
"91 256 LINE",
"92 240 LINE",
"276 393 LINE",
"263 409 LINE",
"68 248 LINE",
"195 88 LINE"
);
}
);
width = 315;
}
);
leftKerningGroup = guilsinglleft;
rightKerningGroup = guilsinglleft;
unicode = 2039;
},
{
glyphname = quoteright;
lastChange = "2016-03-13 11:18:58 +0000";
layers = (
{
layerId = "284DCAF7-AB20-402F-AEDF-E1CEEB9773D4";
name = "Regular Italic";
paths = (
{
closed = 1;
nodes = (
"142 475 LINE",
"219 550 OFFCURVE",
"277 636 OFFCURVE",
"302 754 CURVE",
"279 755 OFFCURVE",
"233 749 OFFCURVE",
"209 740 CURVE",
"177 633 OFFCURVE",
"139 562 OFFCURVE",
"73 475 CURVE"
);
}
);
width = 296;
},
{
layerId = "005AA5DB-9C20-42D5-964E-7DFE1013E61C";
name = "Bold Italic";
paths = (
{
closed = 1;
nodes = (
"189 385 LINE",
"286 478 OFFCURVE",
"359 589 OFFCURVE",
"386 755 CURVE",
"349 756 OFFCURVE",
"244 741 OFFCURVE",
"201 725 CURVE",
"184 613 OFFCURVE",
"146 510 OFFCURVE",
"54 385 CURVE"
);
}
);
width = 370;
},
{
layerId = "D0F50BF8-B137-4291-8B58-E185C78D1B48";
name = "Light Italic";
paths = (
{
closed = 1;
nodes = (
"112 474 LINE",
"172 544 OFFCURVE",
"221 639 OFFCURVE",
"249 754 CURVE",
"240 754 OFFCURVE",
"228 750 OFFCURVE",
"221 745 CURVE",
"198 651 OFFCURVE",
"156 559 OFFCURVE",
"90 474 CURVE"
);
}
);
width = 223;
}
);
leftKerningGroup = quotedblleft;
rightKerningGroup = quotedblleft;
unicode = 2019;
},
{
glyphname = cent;
lastChange = "2015-06-30 14:02:59 +0000";
layers = (
{
layerId = "D0F50BF8-B137-4291-8B58-E185C78D1B48";
name = "Light Italic";
paths = (
{
closed = 1;
nodes = (
"292 22 OFFCURVE",
"333 32 OFFCURVE",
"387 58 CURVE",
"382 77 LINE",
"333 55 OFFCURVE",
"288 45 OFFCURVE",
"237 45 CURVE SMOOTH",
"151 45 OFFCURVE",
"106 99 OFFCURVE",
"106 200 CURVE SMOOTH",
"106 379 OFFCURVE",
"194 507 OFFCURVE",
"356 507 CURVE SMOOTH",
"400 507 OFFCURVE",
"443 501 OFFCURVE",
"472 487 CURVE",
"482 506 LINE",
"453 520 OFFCURVE",
"411 530 OFFCURVE",
"361 530 CURVE SMOOTH",
"187 530 OFFCURVE",
"80 400 OFFCURVE",
"80 200 CURVE SMOOTH",
"80 84 OFFCURVE",
"136 22 OFFCURVE",
"232 22 CURVE SMOOTH"
);
},
{
closed = 1;
nodes = (
"227 -64 LINE",
"247 32 LINE",
"223 32 LINE",
"203 -64 LINE"
);
},
{
closed = 1;
nodes = (
"350 518 LINE",
"372 620 LINE",
"348 620 LINE",
"326 518 LINE"
);
}
);
width = 539;
},
{
layerId = "284DCAF7-AB20-402F-AEDF-E1CEEB9773D4";
name = "Regular Italic";
paths = (
{
closed = 1;
nodes = (
"327 22 OFFCURVE",
"374 30 OFFCURVE",
"431 54 CURVE",
"430 118 LINE",
"372 98 OFFCURVE",
"335 92 OFFCURVE",
"294 92 CURVE SMOOTH",
"214 92 OFFCURVE",
"171 138 OFFCURVE",
"171 222 CURVE SMOOTH",
"171 376 OFFCURVE",
"254 464 OFFCURVE",
"386 464 CURVE SMOOTH",
"427 464 OFFCURVE",
"461 461 OFFCURVE",
"503 449 CURVE",
"528 511 LINE",
"494 525 OFFCURVE",
"452 534 OFFCURVE",
"398 534 CURVE SMOOTH",
"203 534 OFFCURVE",
"76 404 OFFCURVE",
"76 214 CURVE SMOOTH",
"76 78 OFFCURVE",
"155 22 OFFCURVE",
"261 22 CURVE SMOOTH"
);
},
{
closed = 1;
nodes = (
"279 -64 LINE",
"301 40 LINE",
"231 40 LINE",
"209 -64 LINE"
);
},
{
closed = 1;
nodes = (
"406 510 LINE",
"430 620 LINE",
"360 620 LINE",
"336 510 LINE"
);
}
);
width = 580;
},
{
layerId = "005AA5DB-9C20-42D5-964E-7DFE1013E61C";
name = "Bold Italic";
paths = (
{
closed = 1;
nodes = (
"365 22 OFFCURVE",
"418 31 OFFCURVE",
"489 63 CURVE",
"486 179 LINE",
"439 165 OFFCURVE",
"416 162 OFFCURVE",
"386 162 CURVE SMOOTH",
"322 162 OFFCURVE",
"286 187 OFFCURVE",
"286 251 CURVE SMOOTH",
"286 343 OFFCURVE",
"333 398 OFFCURVE",
"434 398 CURVE SMOOTH",
"472 398 OFFCURVE",
"501 394 OFFCURVE",
"532 384 CURVE",
"586 505 LINE",
"555 524 OFFCURVE",
"506 538 OFFCURVE",
"431 538 CURVE SMOOTH",
"253 538 OFFCURVE",
"101 429 OFFCURVE",
"101 219 CURVE SMOOTH",
"101 87 OFFCURVE",
"186 22 OFFCURVE",
"300 22 CURVE SMOOTH"
);
},
{
closed = 1;
nodes = (
"328 -64 LINE",
"350 40 LINE",
"238 40 LINE",
"216 -64 LINE"
);
},
{
closed = 1;
nodes = (
"455 510 LINE",
"479 620 LINE",
"367 620 LINE",
"343 510 LINE"
);
}
);
width = 658;
}
);
leftKerningGroup = o;
rightKerningGroup = c;
unicode = 00A2;
},
{
glyphname = currency;
lastChange = "2015-06-30 14:06:05 +0000";
layers = (
{
layerId = "D0F50BF8-B137-4291-8B58-E185C78D1B48";
name = "Light Italic";
paths = (
{
closed = 1;
nodes = (
"380 121 OFFCURVE",
"456 197 OFFCURVE",
"456 301 CURVE SMOOTH",
"456 405 OFFCURVE",
"380 481 OFFCURVE",
"280 481 CURVE SMOOTH",
"180 481 OFFCURVE",
"104 405 OFFCURVE",
"104 301 CURVE SMOOTH",
"104 197 OFFCURVE",
"180 121 OFFCURVE",
"280 121 CURVE SMOOTH"
);
},
{
closed = 1;
nodes = (
"167 168 LINE",
"151 184 LINE",
"90 123 LINE",
"106 107 LINE"
);
},
{
closed = 1;
nodes = (
"191 143 OFFCURVE",
"128 211 OFFCURVE",
"128 301 CURVE SMOOTH",
"128 391 OFFCURVE",
"191 459 OFFCURVE",
"280 459 CURVE SMOOTH",
"369 459 OFFCURVE",
"432 391 OFFCURVE",
"432 301 CURVE SMOOTH",
"432 211 OFFCURVE",
"369 143 OFFCURVE",
"280 143 CURVE SMOOTH"
);
},
{
closed = 1;
nodes = (
"167 434 LINE",
"106 495 LINE",
"90 479 LINE",
"151 418 LINE"
);
},
{
closed = 1;
nodes = (
"470 123 LINE",
"409 184 LINE",
"393 168 LINE",
"454 107 LINE"
);
},
{
closed = 1;
nodes = (
"470 479 LINE",
"454 495 LINE",
"393 434 LINE",
"409 418 LINE"
);
}
);
width = 539;
},
{
layerId = "284DCAF7-AB20-402F-AEDF-E1CEEB9773D4";
name = "Regular Italic";
paths = (
{
closed = 1;
nodes = (
"390 121 OFFCURVE",
"470 201 OFFCURVE",
"470 301 CURVE SMOOTH",
"470 401 OFFCURVE",
"390 481 OFFCURVE",
"290 481 CURVE SMOOTH",
"190 481 OFFCURVE",
"110 401 OFFCURVE",
"110 301 CURVE SMOOTH",
"110 201 OFFCURVE",
"190 121 OFFCURVE",
"290 121 CURVE SMOOTH"
);
},
{
closed = 1;
nodes = (
"201 171 LINE",
"160 212 LINE",
"84 137 LINE",
"125 96 LINE"
);
},
{
closed = 1;
nodes = (
"223 179 OFFCURVE",
"172 230 OFFCURVE",
"172 301 CURVE SMOOTH",
"172 372 OFFCURVE",
"223 423 OFFCURVE",
"290 423 CURVE SMOOTH",
"357 423 OFFCURVE",
"408 372 OFFCURVE",
"408 301 CURVE",
"408 230 OFFCURVE",
"357 179 OFFCURVE",
"290 179 CURVE SMOOTH"
);
},
{
closed = 1;
nodes = (
"201 432 LINE",
"125 508 LINE",
"84 467 LINE",
"160 391 LINE"
);
},
{
closed = 1;
nodes = (
"497 136 LINE",
"421 212 LINE",
"380 171 LINE",
"456 95 LINE"
);
},
{
closed = 1;
nodes = (
"497 467 LINE",
"456 508 LINE",
"380 432 LINE",
"421 391 LINE"
);
}
);
width = 580;
},
{
layerId = "005AA5DB-9C20-42D5-964E-7DFE1013E61C";
name = "Bold Italic";
paths = (
{
closed = 1;
nodes = (
"424 121 OFFCURVE",
"504 201 OFFCURVE",
"504 301 CURVE SMOOTH",
"504 401 OFFCURVE",
"424 481 OFFCURVE",
"324 481 CURVE SMOOTH",
"224 481 OFFCURVE",
"144 401 OFFCURVE",
"144 301 CURVE SMOOTH",
"144 201 OFFCURVE",
"224 121 OFFCURVE",
"324 121 CURVE SMOOTH"
);
},
{
closed = 1;
nodes = (
"246 167 LINE",
"189 224 LINE",
"119 154 LINE",
"176 97 LINE"
);
},
{
closed = 1;
nodes = (
"278 215 OFFCURVE",
"248 249 OFFCURVE",
"248 301 CURVE SMOOTH",
"248 353 OFFCURVE",
"278 387 OFFCURVE",
"324 387 CURVE SMOOTH",
"370 387 OFFCURVE",
"400 353 OFFCURVE",
"400 301 CURVE SMOOTH",
"400 249 OFFCURVE",
"370 215 OFFCURVE",
"324 215 CURVE SMOOTH"
);
},
{
closed = 1;
nodes = (
"246 435 LINE",
"176 505 LINE",
"119 448 LINE",
"189 378 LINE"
);
},
{
closed = 1;
nodes = (
"529 154 LINE",
"459 224 LINE",
"402 167 LINE",
"472 97 LINE"
);
},
{
closed = 1;
nodes = (
"529 448 LINE",
"472 505 LINE",
"402 435 LINE",
"459 378 LINE"
);
}
);
width = 658;
}
);
leftKerningGroup = currency;
rightKerningGroup = currency;
unicode = 00A4;
},
{
glyphname = dollar;
lastChange = "2015-06-30 14:02:59 +0000";
layers = (
{
layerId = "D0F50BF8-B137-4291-8B58-E185C78D1B48";
name = "Light Italic";
paths = (
{
closed = 1;
nodes = (
"328 23 OFFCURVE",
"443 93 OFFCURVE",
"443 207 CURVE SMOOTH",
"443 269 OFFCURVE",
"406 315 OFFCURVE",
"318 373 CURVE SMOOTH",
"233 429 OFFCURVE",
"196 473 OFFCURVE",
"196 529 CURVE SMOOTH",
"196 630 OFFCURVE",
"288 686 OFFCURVE",
"376 686 CURVE SMOOTH",
"433 686 OFFCURVE",
"477 675 OFFCURVE",
"514 651 CURVE",
"528 671 LINE",
"488 699 OFFCURVE",
"434 710 OFFCURVE",
"381 710 CURVE SMOOTH",
"283 710 OFFCURVE",
"170 647 OFFCURVE",
"170 530 CURVE SMOOTH",
"170 454 OFFCURVE",
"218 409 OFFCURVE",
"301 355 CURVE SMOOTH",
"383 301 OFFCURVE",
"417 260 OFFCURVE",
"417 207 CURVE SMOOTH",
"417 101 OFFCURVE",
"316 47 OFFCURVE",
"220 47 CURVE SMOOTH",
"154 47 OFFCURVE",
"102 66 OFFCURVE",
"62 95 CURVE",
"48 75 LINE",
"87 42 OFFCURVE",
"157 23 OFFCURVE",
"218 23 CURVE SMOOTH"
);
},
{
closed = 1;
nodes = (
"215 -68 LINE",
"238 42 LINE",
"214 42 LINE",
"191 -68 LINE"
);
},
{
closed = 1;
nodes = (
"382 690 LINE",
"405 801 LINE",
"380 801 LINE",
"357 690 LINE"
);
}
);
width = 539;
},
{
layerId = "284DCAF7-AB20-402F-AEDF-E1CEEB9773D4";
name = "Regular Italic";
paths = (
{
closed = 1;
nodes = (
"353 23 OFFCURVE",
"474 101 OFFCURVE",
"474 218 CURVE SMOOTH",
"474 297 OFFCURVE",
"437 340 OFFCURVE",
"332 404 CURVE SMOOTH",
"278 437 OFFCURVE",
"252 469 OFFCURVE",
"252 521 CURVE SMOOTH",
"252 587 OFFCURVE",
"315 630 OFFCURVE",
"397 630 CURVE SMOOTH",
"449 630 OFFCURVE",
"478 623 OFFCURVE",
"521 608 CURVE",
"563 671 LINE",
"532 694 OFFCURVE",
"479 710 OFFCURVE",
"400 710 CURVE SMOOTH",
"270 710 OFFCURVE",
"157 630 OFFCURVE",
"157 507 CURVE SMOOTH",
"157 429 OFFCURVE",
"200 389 OFFCURVE",
"274 336 CURVE SMOOTH",
"353 280 OFFCURVE",
"379 256 OFFCURVE",
"379 207 CURVE SMOOTH",
"379 146 OFFCURVE",
"313 104 OFFCURVE",
"225 104 CURVE SMOOTH",
"170 104 OFFCURVE",
"115 118 OFFCURVE",
"84 143 CURVE",
"38 75 LINE",
"80 40 OFFCURVE",
"138 23 OFFCURVE",
"217 23 CURVE SMOOTH"
);
},
{
closed = 1;
nodes = (
"241 -68 LINE",
"264 42 LINE",
"194 42 LINE",
"171 -68 LINE"
);
},
{
closed = 1;
nodes = (
"403 672 LINE",
"431 802 LINE",
"361 802 LINE",
"333 672 LINE"
);
}
);
width = 580;
},
{
layerId = "005AA5DB-9C20-42D5-964E-7DFE1013E61C";
name = "Bold Italic";
paths = (
{
closed = 1;
nodes = (
"408 22 OFFCURVE",
"571 108 OFFCURVE",
"571 268 CURVE SMOOTH",
"571 341 OFFCURVE",
"525 402 OFFCURVE",
"428 443 CURVE SMOOTH",
"377 465 OFFCURVE",
"351 486 OFFCURVE",
"351 516 CURVE SMOOTH",
"351 561 OFFCURVE",
"405 583 OFFCURVE",
"460 583 CURVE SMOOTH",
"517 583 OFFCURVE",
"556 577 OFFCURVE",
"590 565 CURVE",
"655 690 LINE",
"609 711 OFFCURVE",
"544 726 OFFCURVE",
"461 726 CURVE SMOOTH",
"301 726 OFFCURVE",
"161 629 OFFCURVE",
"161 486 CURVE SMOOTH",
"161 415 OFFCURVE",
"201 362 OFFCURVE",
"271 327 CURVE SMOOTH",
"353 286 OFFCURVE",
"377 265 OFFCURVE",
"377 233 CURVE SMOOTH",
"377 189 OFFCURVE",
"333 163 OFFCURVE",
"277 163 CURVE SMOOTH",
"211 163 OFFCURVE",
"160 173 OFFCURVE",
"101 195 CURVE",
"42 69 LINE",
"101 32 OFFCURVE",
"171 22 OFFCURVE",
"268 22 CURVE SMOOTH"
);
},
{
closed = 1;
nodes = (
"312 -73 LINE",
"337 41 LINE",
"223 41 LINE",
"198 -73 LINE"
);
},
{
closed = 1;
nodes = (
"475 684 LINE",
"504 819 LINE",
"390 819 LINE",
"361 684 LINE"
);
}
);
width = 658;
}
);
leftKerningGroup = dollar;
rightKerningGroup = dollar;
unicode = 0024;
},
{
glyphname = euro;
lastChange = "2015-06-30 14:02:59 +0000";
layers = (
{
layerId = "D0F50BF8-B137-4291-8B58-E185C78D1B48";
name = "Light Italic";
paths = (
{
closed = 1;
nodes = (
"337 -15 OFFCURVE",
"389 -5 OFFCURVE",
"444 25 CURVE",
"452 50 LINE",
"402 22 OFFCURVE",
"350 7 OFFCURVE",
"293 7 CURVE SMOOTH",
"196 7 OFFCURVE",
"136 74 OFFCURVE",
"136 233 CURVE SMOOTH",
"136 528 OFFCURVE",
"259 732 OFFCURVE",
"440 732 CURVE SMOOTH",
"505 732 OFFCURVE",
"551 706 OFFCURVE",
"577 669 CURVE",
"594 685 LINE",
"567 722 OFFCURVE",
"510 754 OFFCURVE",
"438 754 CURVE SMOOTH",
"248 754 OFFCURVE",
"112 544 OFFCURVE",
"112 230 CURVE SMOOTH",
"112 63 OFFCURVE",
"175 -15 OFFCURVE",
"283 -15 CURVE SMOOTH"
);
},
{
closed = 1;
nodes = (
"391 289 LINE",
"400 312 LINE",
"43 312 LINE",
"33 289 LINE"
);
},
{
closed = 1;
nodes = (
"438 429 LINE",
"448 451 LINE",
"90 451 LINE",
"81 429 LINE"
);
}
);
width = 539;
},
{
layerId = "284DCAF7-AB20-402F-AEDF-E1CEEB9773D4";
name = "Regular Italic";
paths = (
{
closed = 1;
nodes = (
"369 -15 OFFCURVE",
"423 -5 OFFCURVE",
"480 25 CURVE",
"501 99 LINE",
"450 75 OFFCURVE",
"392 61 OFFCURVE",
"340 61 CURVE SMOOTH",
"252 61 OFFCURVE",
"201 110 OFFCURVE",
"201 233 CURVE SMOOTH",
"201 466 OFFCURVE",
"276 677 OFFCURVE",
"473 677 CURVE SMOOTH",
"515 677 OFFCURVE",
"565 666 OFFCURVE",
"596 647 CURVE",
"635 709 LINE",
"606 736 OFFCURVE",
"549 753 OFFCURVE",
"484 753 CURVE SMOOTH",
"242 753 OFFCURVE",
"106 544 OFFCURVE",
"106 226 CURVE SMOOTH",
"106 62 OFFCURVE",
"185 -15 OFFCURVE",
"313 -15 CURVE SMOOTH"
);
},
{
closed = 1;
nodes = (
"431 268 LINE",
"454 334 LINE",
"56 334 LINE",
"32 268 LINE"
);
},
{
closed = 1;
nodes = (
"479 406 LINE",
"505 473 LINE",
"104 473 LINE",
"79 406 LINE"
);
}
);
width = 580;
},
{
layerId = "005AA5DB-9C20-42D5-964E-7DFE1013E61C";
name = "Bold Italic";
paths = (
{
closed = 1;
nodes = (
"446 -15 OFFCURVE",
"499 2 OFFCURVE",
"564 37 CURVE",
"598 172 LINE",
"546 143 OFFCURVE",
"490 126 OFFCURVE",
"432 126 CURVE SMOOTH",
"347 126 OFFCURVE",
"300 154 OFFCURVE",
"300 269 CURVE SMOOTH",
"300 463 OFFCURVE",
"368 613 OFFCURVE",
"548 613 CURVE SMOOTH",
"597 613 OFFCURVE",
"641 602 OFFCURVE",
"671 586 CURVE",
"726 703 LINE",
"680 739 OFFCURVE",
"624 754 OFFCURVE",
"541 754 CURVE SMOOTH",
"270 754 OFFCURVE",
"112 550 OFFCURVE",
"112 244 CURVE SMOOTH",
"112 34 OFFCURVE",
"230 -15 OFFCURVE",
"371 -15 CURVE SMOOTH"
);
},
{
closed = 1;
nodes = (
"498 233 LINE",
"530 339 LINE",
"68 339 LINE",
"36 233 LINE"
);
},
{
closed = 1;
nodes = (
"549 389 LINE",
"582 495 LINE",
"119 495 LINE",
"87 389 LINE"
);
}
);
width = 658;
}
);
leftKerningGroup = euro;
rightKerningGroup = euro;
unicode = 20AC;
},
{
glyphname = sterling;
lastChange = "2015-06-30 14:02:59 +0000";
layers = (
{
layerId = "D0F50BF8-B137-4291-8B58-E185C78D1B48";
name = "Light Italic";
paths = (
{
closed = 1;
nodes = (
"422 0 LINE",
"427 22 LINE",
"47 22 LINE",
"47 11 LINE",
"185 49 OFFCURVE",
"208 185 OFFCURVE",
"213 360 CURVE SMOOTH",
"219 585 OFFCURVE",
"275 731 OFFCURVE",
"433 731 CURVE SMOOTH",
"483 731 OFFCURVE",
"517 711 OFFCURVE",
"548 676 CURVE",
"563 690 LINE",
"532 731 OFFCURVE",
"490 754 OFFCURVE",
"435 754 CURVE SMOOTH",
"267 754 OFFCURVE",
"194 609 OFFCURVE",
"189 359 CURVE SMOOTH",
"185 175 OFFCURVE",
"156 41 OFFCURVE",
"10 19 CURVE",
"6 0 LINE"
);
},
{
closed = 1;
nodes = (
"422 342 LINE",
"427 365 LINE",
"93 365 LINE",
"88 342 LINE"
);
}
);
width = 539;
},
{
layerId = "284DCAF7-AB20-402F-AEDF-E1CEEB9773D4";
name = "Regular Italic";
paths = (
{
closed = 1;
nodes = (
"478 0 LINE",
"494 74 LINE",
"112 74 LINE",
"98 55 LINE",
"235 83 OFFCURVE",
"257 175 OFFCURVE",
"264 344 CURVE SMOOTH",
"272 542 OFFCURVE",
"298 677 OFFCURVE",
"451 677 CURVE SMOOTH",
"495 677 OFFCURVE",
"521 670 OFFCURVE",
"561 649 CURVE",
"600 706 LINE",
"563 737 OFFCURVE",
"524 753 OFFCURVE",
"462 753 CURVE SMOOTH",
"266 753 OFFCURVE",
"179 623 OFFCURVE",
"175 338 CURVE SMOOTH",
"173 150 OFFCURVE",
"153 98 OFFCURVE",
"6 38 CURVE",
"-2 0 LINE"
);
},
{
closed = 1;
nodes = (
"447 319 LINE",
"461 385 LINE",
"89 385 LINE",
"75 319 LINE"
);
}
);
width = 580;
},
{
layerId = "005AA5DB-9C20-42D5-964E-7DFE1013E61C";
name = "Bold Italic";
paths = (
{
closed = 1;
nodes = (
"550 0 LINE",
"575 116 LINE",
"202 116 LINE",
"198 87 LINE",
"310 125 OFFCURVE",
"336 224 OFFCURVE",
"342 362 CURVE SMOOTH",
"350 523 OFFCURVE",
"384 620 OFFCURVE",
"529 620 CURVE SMOOTH",
"555 620 OFFCURVE",
"583 615 OFFCURVE",
"621 597 CURVE",
"671 710 LINE",
"636 738 OFFCURVE",
"583 754 OFFCURVE",
"507 754 CURVE SMOOTH",
"284 754 OFFCURVE",
"178 624 OFFCURVE",
"170 355 CURVE SMOOTH",
"166 205 OFFCURVE",
"143 113 OFFCURVE",
"18 58 CURVE",
"6 0 LINE"
);
},
{
closed = 1;
nodes = (
"535 299 LINE",
"557 405 LINE",
"89 405 LINE",
"67 299 LINE"
);
}
);
width = 658;
}
);
leftKerningGroup = sterling;
rightKerningGroup = sterling;
unicode = 00A3;
},
{
glyphname = yen;
lastChange = "2015-06-30 14:02:59 +0000";
layers = (
{
layerId = "D0F50BF8-B137-4291-8B58-E185C78D1B48";
name = "Light Italic";
paths = (
{
closed = 1;
nodes = (
"211 0 LINE",
"282 331 LINE",
"272 318 LINE",
"614 740 LINE SMOOTH",
"583 740 LINE SMOOTH",
"261 337 LINE",
"281 338 LINE",
"153 740 LINE SMOOTH",
"128 740 LINE SMOOTH",
"264 318 LINE",
"261 347 LINE",
"187 0 LINE"
);
},
{
closed = 1;
nodes = (
"433 220 LINE",
"438 242 LINE",
"74 242 LINE",
"69 220 LINE"
);
},
{
closed = 1;
nodes = (
"456 330 LINE",
"461 352 LINE",
"289 352 LINE",
"277 334 LINE",
"273 352 LINE",
"97 352 LINE",
"92 330 LINE"
);
}
);
width = 539;
},
{
layerId = "284DCAF7-AB20-402F-AEDF-E1CEEB9773D4";
name = "Regular Italic";
paths = (
{
closed = 1;
nodes = (
"270 0 LINE",
"349 369 LINE",
"316 294 LINE",
"654 740 LINE",
"556 740 LINE",
"284 345 LINE",
"322 345 LINE",
"238 740 LINE",
"130 740 LINE",
"260 296 LINE",
"259 371 LINE",
"180 0 LINE"
);
},
{
closed = 1;
nodes = (
"452 177 LINE",
"466 244 LINE",
"94 244 LINE",
"80 177 LINE"
);
},
{
closed = 1;
nodes = (
"483 324 LINE",
"497 390 LINE",
"339 390 LINE",
"302 352 LINE",
"281 390 LINE",
"125 390 LINE",
"111 324 LINE"
);
}
);
width = 580;
},
{
layerId = "005AA5DB-9C20-42D5-964E-7DFE1013E61C";
name = "Bold Italic";
paths = (
{
closed = 1;
nodes = (
"363 0 LINE",
"446 391 LINE",
"413 311 LINE",
"748 740 LINE",
"560 740 LINE",
"304 327 LINE",
"378 327 LINE",
"300 740 LINE",
"114 740 LINE",
"261 313 LINE",
"262 393 LINE",
"179 0 LINE"
);
},
{
closed = 1;
nodes = (
"525 137 LINE",
"548 243 LINE",
"104 243 LINE",
"81 137 LINE"
);
},
{
closed = 1;
nodes = (
"561 305 LINE",
"583 411 LINE",
"389 411 LINE",
"342 315 LINE",
"331 411 LINE",
"139 411 LINE",
"117 305 LINE"
);
}
);
width = 658;
}
);
leftKerningGroup = yen;
rightKerningGroup = yen;
unicode = 00A5;
},
{
glyphname = approxequal;
lastChange = "2016-03-13 11:19:06 +0000";
layers = (
{
layerId = "284DCAF7-AB20-402F-AEDF-E1CEEB9773D4";
name = "Regular Italic";
paths = (
{
closed = 1;
nodes = (
"435 290 OFFCURVE",
"461 312 OFFCURVE",
"485 379 CURVE",
"434 401 LINE",
"418 364 OFFCURVE",
"406 354 OFFCURVE",
"391 354 CURVE SMOOTH",
"376 354 OFFCURVE",
"351 363 OFFCURVE",
"313 386 CURVE SMOOTH",
"256 420 OFFCURVE",
"232 429 OFFCURVE",
"201 429 CURVE SMOOTH",
"157 429 OFFCURVE",
"131 407 OFFCURVE",
"107 340 CURVE",
"158 318 LINE",
"174 355 OFFCURVE",
"186 365 OFFCURVE",
"201 365 CURVE SMOOTH",
"216 365 OFFCURVE",
"241 356 OFFCURVE",
"279 333 CURVE SMOOTH",
"336 299 OFFCURVE",
"360 290 OFFCURVE",
"391 290 CURVE SMOOTH"
);
},
{
closed = 1;
nodes = (
"435 151 OFFCURVE",
"461 173 OFFCURVE",
"485 240 CURVE",
"434 262 LINE",
"418 225 OFFCURVE",
"406 215 OFFCURVE",
"391 215 CURVE SMOOTH",
"376 215 OFFCURVE",
"351 224 OFFCURVE",
"313 247 CURVE SMOOTH",
"256 281 OFFCURVE",
"232 290 OFFCURVE",
"201 290 CURVE SMOOTH",
"157 290 OFFCURVE",
"131 268 OFFCURVE",
"107 201 CURVE",
"158 179 LINE",
"174 216 OFFCURVE",
"186 226 OFFCURVE",
"201 226 CURVE SMOOTH",
"216 226 OFFCURVE",
"241 217 OFFCURVE",
"279 194 CURVE SMOOTH",
"336 160 OFFCURVE",
"360 151 OFFCURVE",
"391 151 CURVE SMOOTH"
);
}
);
width = 579;
},
{
layerId = "005AA5DB-9C20-42D5-964E-7DFE1013E61C";
name = "Bold Italic";
paths = (
{
closed = 1;
nodes = (
"465 313 OFFCURVE",
"501 345 OFFCURVE",
"535 452 CURVE",
"444 488 LINE",
"423 441 OFFCURVE",
"409 431 OFFCURVE",
"388 431 CURVE SMOOTH",
"373 431 OFFCURVE",
"351 440 OFFCURVE",
"313 463 CURVE SMOOTH",
"257 497 OFFCURVE",
"232 506 OFFCURVE",
"201 506 CURVE SMOOTH",
"127 506 OFFCURVE",
"91 474 OFFCURVE",
"57 367 CURVE",
"148 331 LINE",
"169 378 OFFCURVE",
"183 388 OFFCURVE",
"204 388 CURVE SMOOTH",
"219 388 OFFCURVE",
"241 379 OFFCURVE",
"279 356 CURVE SMOOTH",
"335 322 OFFCURVE",
"360 313 OFFCURVE",
"391 313 CURVE SMOOTH"
);
},
{
closed = 1;
nodes = (
"465 74 OFFCURVE",
"501 106 OFFCURVE",
"535 213 CURVE",
"444 249 LINE",
"423 202 OFFCURVE",
"409 192 OFFCURVE",
"388 192 CURVE SMOOTH",
"373 192 OFFCURVE",
"351 201 OFFCURVE",
"313 224 CURVE SMOOTH",
"257 258 OFFCURVE",
"232 267 OFFCURVE",
"201 267 CURVE SMOOTH",
"127 267 OFFCURVE",
"91 235 OFFCURVE",
"57 128 CURVE",
"148 92 LINE",
"169 139 OFFCURVE",
"183 149 OFFCURVE",
"204 149 CURVE SMOOTH",
"219 149 OFFCURVE",
"241 140 OFFCURVE",
"279 117 CURVE SMOOTH",
"335 83 OFFCURVE",
"360 74 OFFCURVE",
"391 74 CURVE SMOOTH"
);
}
);
width = 592;
},
{
layerId = "D0F50BF8-B137-4291-8B58-E185C78D1B48";
name = "Light Italic";
paths = (
{
closed = 1;
nodes = (
"436 332 OFFCURVE",
"456 365 OFFCURVE",
"462 389 CURVE",
"440 395 LINE",
"427 364 OFFCURVE",
"411 354 OFFCURVE",
"394 354 CURVE SMOOTH",
"371 354 OFFCURVE",
"348 365 OFFCURVE",
"303 390 CURVE SMOOTH",
"249 421 OFFCURVE",
"227 429 OFFCURVE",
"202 429 CURVE SMOOTH",
"156 429 OFFCURVE",
"136 396 OFFCURVE",
"130 372 CURVE",
"152 366 LINE",
"165 397 OFFCURVE",
"181 407 OFFCURVE",
"198 407 CURVE SMOOTH",
"221 407 OFFCURVE",
"244 396 OFFCURVE",
"289 371 CURVE SMOOTH",
"343 340 OFFCURVE",
"365 332 OFFCURVE",
"390 332 CURVE SMOOTH"
);
},
{
closed = 1;
nodes = (
"436 212 OFFCURVE",
"456 245 OFFCURVE",
"462 269 CURVE",
"440 275 LINE",
"427 244 OFFCURVE",
"411 234 OFFCURVE",
"394 234 CURVE SMOOTH",
"371 234 OFFCURVE",
"348 245 OFFCURVE",
"303 270 CURVE SMOOTH",
"249 301 OFFCURVE",
"227 309 OFFCURVE",
"202 309 CURVE SMOOTH",
"156 309 OFFCURVE",
"136 276 OFFCURVE",
"130 252 CURVE",
"152 246 LINE",
"165 277 OFFCURVE",
"181 287 OFFCURVE",
"198 287 CURVE SMOOTH",
"221 287 OFFCURVE",
"244 276 OFFCURVE",
"289 251 CURVE SMOOTH",
"343 220 OFFCURVE",
"365 212 OFFCURVE",
"390 212 CURVE SMOOTH"
);
}
);
width = 600;
}
);
leftKerningGroup = approxequal;
rightKerningGroup = approxequal;
unicode = 2248;
},
{
glyphname = asciitilde;
lastChange = "2016-03-13 11:19:08 +0000";
layers = (
{
layerId = "284DCAF7-AB20-402F-AEDF-E1CEEB9773D4";
name = "Regular Italic";
paths = (
{
closed = 1;
nodes = (
"466 218 OFFCURVE",
"502 247 OFFCURVE",
"502 353 CURVE",
"436 353 LINE",
"436 306 OFFCURVE",
"425 288 OFFCURVE",
"397 288 CURVE SMOOTH",
"372 288 OFFCURVE",
"350 299 OFFCURVE",
"309 321 CURVE SMOOTH",
"257 349 OFFCURVE",
"221 361 OFFCURVE",
"187 361 CURVE SMOOTH",
"113 361 OFFCURVE",
"77 332 OFFCURVE",
"77 226 CURVE",
"143 226 LINE",
"143 273 OFFCURVE",
"154 291 OFFCURVE",
"182 291 CURVE SMOOTH",
"207 291 OFFCURVE",
"229 281 OFFCURVE",
"270 258 CURVE SMOOTH",
"321 230 OFFCURVE",
"358 218 OFFCURVE",
"392 218 CURVE SMOOTH"
);
}
);
width = 600;
},
{
layerId = "005AA5DB-9C20-42D5-964E-7DFE1013E61C";
name = "Bold Italic";
paths = (
{
closed = 1;
nodes = (
"503 178 OFFCURVE",
"540 223 OFFCURVE",
"540 353 CURVE",
"436 353 LINE",
"436 306 OFFCURVE",
"425 290 OFFCURVE",
"397 290 CURVE SMOOTH",
"374 290 OFFCURVE",
"339 302 OFFCURVE",
"299 321 CURVE SMOOTH",
"234 351 OFFCURVE",
"201 361 OFFCURVE",
"157 361 CURVE SMOOTH",
"76 361 OFFCURVE",
"39 316 OFFCURVE",
"39 186 CURVE",
"143 186 LINE",
"143 233 OFFCURVE",
"154 249 OFFCURVE",
"182 249 CURVE SMOOTH",
"205 249 OFFCURVE",
"240 237 OFFCURVE",
"280 218 CURVE SMOOTH",
"345 188 OFFCURVE",
"378 178 OFFCURVE",
"422 178 CURVE SMOOTH"
);
}
);
width = 600;
},
{
layerId = "D0F50BF8-B137-4291-8B58-E185C78D1B48";
name = "Light Italic";
paths = (
{
closed = 1;
nodes = (
"450 242 OFFCURVE",
"482 271 OFFCURVE",
"482 329 CURVE",
"460 329 LINE",
"460 282 OFFCURVE",
"434 264 OFFCURVE",
"406 264 CURVE SMOOTH",
"381 264 OFFCURVE",
"352 274 OFFCURVE",
"301 297 CURVE SMOOTH",
"239 325 OFFCURVE",
"207 337 OFFCURVE",
"173 337 CURVE SMOOTH",
"129 337 OFFCURVE",
"97 308 OFFCURVE",
"97 250 CURVE",
"119 250 LINE",
"119 297 OFFCURVE",
"145 315 OFFCURVE",
"173 315 CURVE SMOOTH",
"198 315 OFFCURVE",
"227 305 OFFCURVE",
"278 282 CURVE SMOOTH",
"340 254 OFFCURVE",
"372 242 OFFCURVE",
"406 242 CURVE SMOOTH"
);
}
);
width = 579;
}
);
leftKerningGroup = asciitilde;
rightKerningGroup = asciitilde;
unicode = 007E;
},
{
glyphname = divide;
lastChange = "2016-03-13 11:19:10 +0000";
layers = (
{
layerId = "284DCAF7-AB20-402F-AEDF-E1CEEB9773D4";
name = "Regular Italic";
paths = (
{
closed = 1;
nodes = (
"500 266 LINE",
"500 332 LINE",
"80 332 LINE",
"80 266 LINE"
);
},
{
closed = 1;
nodes = (
"268 76 OFFCURVE",
"316 76 OFFCURVE",
"340 82 CURVE",
"340 177 LINE",
"316 183 OFFCURVE",
"268 183 OFFCURVE",
"244 177 CURVE",
"244 82 LINE"
);
},
{
closed = 1;
nodes = (
"268 415 OFFCURVE",
"316 415 OFFCURVE",
"340 421 CURVE",
"340 516 LINE",
"316 522 OFFCURVE",
"268 522 OFFCURVE",
"244 516 CURVE",
"244 421 LINE"
);
}
);
width = 600;
},
{
layerId = "005AA5DB-9C20-42D5-964E-7DFE1013E61C";
name = "Bold Italic";
paths = (
{
closed = 1;
nodes = (
"610 247 LINE",
"610 351 LINE",
"80 351 LINE",
"80 247 LINE"
);
},
{
closed = 1;
nodes = (
"287 2 OFFCURVE",
"403 2 OFFCURVE",
"435 8 CURVE",
"435 172 LINE",
"403 178 OFFCURVE",
"287 178 OFFCURVE",
"255 172 CURVE",
"255 8 LINE"
);
},
{
closed = 1;
nodes = (
"287 420 OFFCURVE",
"403 420 OFFCURVE",
"435 426 CURVE",
"435 590 LINE",
"403 596 OFFCURVE",
"287 596 OFFCURVE",
"255 590 CURVE",
"255 426 LINE"
);
}
);
width = 690;
},
{
layerId = "D0F50BF8-B137-4291-8B58-E185C78D1B48";
name = "Light Italic";
paths = (
{
closed = 1;
nodes = (
"500 288 LINE",
"500 310 LINE",
"80 310 LINE",
"80 288 LINE"
);
},
{
closed = 1;
nodes = (
"284 88 OFFCURVE",
"296 88 OFFCURVE",
"302 91 CURVE",
"302 206 LINE",
"296 209 OFFCURVE",
"284 209 OFFCURVE",
"278 206 CURVE",
"278 91 LINE"
);
},
{
closed = 1;
nodes = (
"284 389 OFFCURVE",
"296 389 OFFCURVE",
"302 392 CURVE",
"302 507 LINE",
"296 510 OFFCURVE",
"284 510 OFFCURVE",
"278 507 CURVE",
"278 392 LINE"
);
}
);
width = 600;
}
);
leftKerningGroup = divide;
rightKerningGroup = divide;
unicode = 00F7;
},
{
glyphname = emptyset;
lastChange = "2016-03-13 11:19:11 +0000";
layers = (
{
layerId = "284DCAF7-AB20-402F-AEDF-E1CEEB9773D4";
name = "Regular Italic";
paths = (
{
closed = 1;
nodes = (
"793 688 LINE",
"752 729 LINE",
"45 22 LINE",
"86 -19 LINE"
);
},
{
closed = 1;
nodes = (
"238 24 OFFCURVE",
"98 172 OFFCURVE",
"98 355 CURVE SMOOTH",
"98 537 OFFCURVE",
"238 686 OFFCURVE",
"419 686 CURVE SMOOTH",
"600 686 OFFCURVE",
"740 537 OFFCURVE",
"740 355 CURVE SMOOTH",
"740 172 OFFCURVE",
"600 24 OFFCURVE",
"419 24 CURVE SMOOTH"
);
},
{
closed = 1;
nodes = (
"634 -34 OFFCURVE",
"802 140 OFFCURVE",
"802 355 CURVE SMOOTH",
"802 570 OFFCURVE",
"634 744 OFFCURVE",
"419 744 CURVE SMOOTH",
"204 744 OFFCURVE",
"36 570 OFFCURVE",
"36 355 CURVE SMOOTH",
"36 140 OFFCURVE",
"204 -34 OFFCURVE",
"419 -34 CURVE SMOOTH"
);
}
);
width = 838;
},
{
layerId = "005AA5DB-9C20-42D5-964E-7DFE1013E61C";
name = "Bold Italic";
paths = (
{
closed = 1;
nodes = (
"847 674 LINE",
"778 743 LINE",
"31 -4 LINE",
"100 -73 LINE"
);
},
{
closed = 1;
nodes = (
"277 44 OFFCURVE",
"141 176 OFFCURVE",
"141 355 CURVE SMOOTH",
"141 534 OFFCURVE",
"277 666 OFFCURVE",
"439 666 CURVE SMOOTH",
"601 666 OFFCURVE",
"737 534 OFFCURVE",
"737 355 CURVE SMOOTH",
"737 176 OFFCURVE",
"601 44 OFFCURVE",
"439 44 CURVE SMOOTH"
);
},
{
closed = 1;
nodes = (
"659 -53 OFFCURVE",
"845 124 OFFCURVE",
"845 355 CURVE SMOOTH",
"845 586 OFFCURVE",
"659 762 OFFCURVE",
"439 762 CURVE SMOOTH",
"219 762 OFFCURVE",
"33 586 OFFCURVE",
"33 355 CURVE SMOOTH",
"33 124 OFFCURVE",
"219 -53 OFFCURVE",
"439 -53 CURVE SMOOTH"
);
}
);
width = 878;
},
{
layerId = "D0F50BF8-B137-4291-8B58-E185C78D1B48";
name = "Light Italic";
paths = (
{
closed = 1;
nodes = (
"761 680 LINE",
"744 697 LINE",
"77 30 LINE",
"94 13 LINE"
);
},
{
closed = 1;
nodes = (
"234 7 OFFCURVE",
"79 156 OFFCURVE",
"79 355 CURVE SMOOTH",
"79 554 OFFCURVE",
"234 703 OFFCURVE",
"419 703 CURVE SMOOTH",
"604 703 OFFCURVE",
"759 554 OFFCURVE",
"759 355 CURVE SMOOTH",
"759 156 OFFCURVE",
"604 7 OFFCURVE",
"419 7 CURVE SMOOTH"
);
},
{
closed = 1;
nodes = (
"617 -15 OFFCURVE",
"783 144 OFFCURVE",
"783 355 CURVE SMOOTH",
"783 566 OFFCURVE",
"617 725 OFFCURVE",
"419 725 CURVE SMOOTH",
"221 725 OFFCURVE",
"55 566 OFFCURVE",
"55 355 CURVE SMOOTH",
"55 144 OFFCURVE",
"221 -15 OFFCURVE",
"419 -15 CURVE SMOOTH"
);
}
);
width = 838;
}
);
leftKerningGroup = emptyset;
rightKerningGroup = emptyset;
unicode = 2205;
},
{
glyphname = equal;
lastChange = "2016-03-13 11:19:14 +0000";
layers = (
{
layerId = "284DCAF7-AB20-402F-AEDF-E1CEEB9773D4";
name = "Regular Italic";
paths = (
{
closed = 1;
nodes = (
"474 329 LINE",
"474 395 LINE",
"118 395 LINE",
"118 329 LINE"
);
},
{
closed = 1;
nodes = (
"474 185 LINE",
"474 251 LINE",
"118 251 LINE",
"118 185 LINE"
);
}
);
width = 579;
},
{
layerId = "005AA5DB-9C20-42D5-964E-7DFE1013E61C";
name = "Bold Italic";
paths = (
{
closed = 1;
nodes = (
"504 330 LINE",
"504 434 LINE",
"118 434 LINE",
"118 330 LINE"
);
},
{
closed = 1;
nodes = (
"504 146 LINE",
"504 250 LINE",
"118 250 LINE",
"118 146 LINE"
);
}
);
width = 609;
},
{
layerId = "D0F50BF8-B137-4291-8B58-E185C78D1B48";
name = "Light Italic";
paths = (
{
closed = 1;
nodes = (
"474 351 LINE",
"474 373 LINE",
"118 373 LINE",
"118 351 LINE"
);
},
{
closed = 1;
nodes = (
"474 207 LINE",
"474 229 LINE",
"118 229 LINE",
"118 207 LINE"
);
}
);
width = 579;
}
);
leftKerningGroup = equal;
rightKerningGroup = equal;
rightMetricsKey = "=|equal";
unicode = 003D;
},
{
glyphname = integral;
lastChange = "2016-03-13 11:19:30 +0000";
layers = (
{
layerId = "284DCAF7-AB20-402F-AEDF-E1CEEB9773D4";
name = "Regular Italic";
paths = (
{
closed = 1;
nodes = (
"186 -160 OFFCURVE",
"283 -80 OFFCURVE",
"283 107 CURVE SMOOTH",
"283 151 OFFCURVE",
"279 226 OFFCURVE",
"269 309 CURVE SMOOTH",
"259 394 OFFCURVE",
"254 462 OFFCURVE",
"254 505 CURVE SMOOTH",
"254 645 OFFCURVE",
"306 698 OFFCURVE",
"364 698 CURVE SMOOTH",
"388 698 OFFCURVE",
"403 696 OFFCURVE",
"422 687 CURVE",
"447 745 LINE",
"424 760 OFFCURVE",
"403 764 OFFCURVE",
"375 764 CURVE SMOOTH",
"281 764 OFFCURVE",
"184 684 OFFCURVE",
"184 497 CURVE SMOOTH",
"184 453 OFFCURVE",
"189 377 OFFCURVE",
"198 295 CURVE SMOOTH",
"208 210 OFFCURVE",
"213 142 OFFCURVE",
"213 99 CURVE SMOOTH",
"213 -41 OFFCURVE",
"161 -94 OFFCURVE",
"103 -94 CURVE SMOOTH",
"79 -94 OFFCURVE",
"64 -92 OFFCURVE",
"45 -83 CURVE",
"19 -141 LINE",
"43 -156 OFFCURVE",
"62 -160 OFFCURVE",
"92 -160 CURVE SMOOTH"
);
}
);
width = 448;
},
{
layerId = "005AA5DB-9C20-42D5-964E-7DFE1013E61C";
name = "Bold Italic";
paths = (
{
closed = 1;
nodes = (
"246 -160 OFFCURVE",
"340 -86 OFFCURVE",
"340 97 CURVE SMOOTH",
"340 152 OFFCURVE",
"335 227 OFFCURVE",
"325 304 CURVE SMOOTH",
"313 391 OFFCURVE",
"308 467 OFFCURVE",
"308 506 CURVE SMOOTH",
"308 631 OFFCURVE",
"362 658 OFFCURVE",
"407 658 CURVE SMOOTH",
"432 658 OFFCURVE",
"450 654 OFFCURVE",
"469 642 CURVE",
"501 720 LINE",
"479 743 OFFCURVE",
"453 754 OFFCURVE",
"414 754 CURVE SMOOTH",
"273 754 OFFCURVE",
"198 656 OFFCURVE",
"198 497 CURVE SMOOTH",
"198 442 OFFCURVE",
"202 367 OFFCURVE",
"213 290 CURVE SMOOTH",
"225 203 OFFCURVE",
"230 127 OFFCURVE",
"230 88 CURVE SMOOTH",
"230 -37 OFFCURVE",
"176 -64 OFFCURVE",
"131 -64 CURVE SMOOTH",
"106 -64 OFFCURVE",
"88 -60 OFFCURVE",
"69 -48 CURVE",
"35 -129 LINE",
"57 -150 OFFCURVE",
"85 -160 OFFCURVE",
"124 -160 CURVE SMOOTH"
);
}
);
width = 521;
},
{
layerId = "D0F50BF8-B137-4291-8B58-E185C78D1B48";
rightMetricsKey = "=|integral";
name = "Light Italic";
paths = (
{
closed = 1;
nodes = (
"127 -160 OFFCURVE",
"160 -124 OFFCURVE",
"181 -25 CURVE SMOOTH",
"197 51 OFFCURVE",
"204 120 OFFCURVE",
"212 305 CURVE SMOOTH",
"220 490 OFFCURVE",
"227 555 OFFCURVE",
"243 629 CURVE SMOOTH",
"260 708 OFFCURVE",
"285 742 OFFCURVE",
"322 742 CURVE SMOOTH",
"338 742 OFFCURVE",
"354 737 OFFCURVE",
"366 721 CURVE",
"382 736 LINE",
"370 754 OFFCURVE",
"349 764 OFFCURVE",
"327 764 CURVE SMOOTH",
"273 764 OFFCURVE",
"240 728 OFFCURVE",
"219 629 CURVE SMOOTH",
"203 553 OFFCURVE",
"196 484 OFFCURVE",
"188 299 CURVE SMOOTH",
"180 114 OFFCURVE",
"172 49 OFFCURVE",
"157 -25 CURVE SMOOTH",
"141 -104 OFFCURVE",
"115 -138 OFFCURVE",
"78 -138 CURVE SMOOTH",
"62 -138 OFFCURVE",
"46 -133 OFFCURVE",
"33 -117 CURVE",
"17 -132 LINE",
"29 -150 OFFCURVE",
"50 -160 OFFCURVE",
"72 -160 CURVE SMOOTH"
);
}
);
width = 381;
}
);
leftKerningGroup = integral;
rightKerningGroup = integral;
rightMetricsKey = "=|integral";
unicode = 222B;
},
{
glyphname = less;
lastChange = "2016-03-13 11:19:32 +0000";
layers = (
{
layerId = "284DCAF7-AB20-402F-AEDF-E1CEEB9773D4";
name = "Regular Italic";
paths = (
{
closed = 1;
nodes = (
"416 133 LINE",
"115 291 LINE",
"115 240 LINE",
"416 398 LINE",
"416 480 LINE",
"85 294 LINE",
"85 236 LINE",
"416 50 LINE"
);
}
);
width = 472;
},
{
layerId = "005AA5DB-9C20-42D5-964E-7DFE1013E61C";
name = "Bold Italic";
paths = (
{
closed = 1;
nodes = (
"386 155 LINE",
"119 291 LINE",
"119 240 LINE",
"386 376 LINE",
"386 500 LINE",
"55 309 LINE",
"55 221 LINE",
"386 30 LINE"
);
}
);
width = 452;
},
{
layerId = "D0F50BF8-B137-4291-8B58-E185C78D1B48";
name = "Light Italic";
paths = (
{
closed = 1;
nodes = (
"404 98 LINE",
"91 271 LINE",
"91 260 LINE",
"404 432 LINE",
"404 460 LINE",
"73 274 LINE",
"73 256 LINE",
"404 70 LINE"
);
}
);
width = 459;
}
);
leftKerningGroup = less;
rightKerningGroup = less;
unicode = 003C;
},
{
glyphname = lessequal;
lastChange = "2016-03-13 11:19:34 +0000";
layers = (
{
layerId = "284DCAF7-AB20-402F-AEDF-E1CEEB9773D4";
name = "Regular Italic";
paths = (
{
closed = 1;
nodes = (
"426 193 LINE",
"98 331 LINE",
"98 293 LINE",
"426 435 LINE",
"426 513 LINE",
"66 347 LINE",
"66 279 LINE",
"426 113 LINE"
);
},
{
closed = 1;
nodes = (
"426 0 LINE",
"426 66 LINE",
"66 66 LINE",
"66 0 LINE"
);
}
);
width = 516;
},
{
layerId = "005AA5DB-9C20-42D5-964E-7DFE1013E61C";
name = "Bold Italic";
paths = (
{
closed = 1;
nodes = (
"415 251 LINE",
"102 347 LINE",
"102 309 LINE",
"415 405 LINE",
"415 513 LINE",
"55 382 LINE",
"55 274 LINE",
"415 143 LINE"
);
},
{
closed = 1;
nodes = (
"415 0 LINE",
"415 104 LINE",
"55 104 LINE",
"55 0 LINE"
);
}
);
width = 481;
},
{
layerId = "D0F50BF8-B137-4291-8B58-E185C78D1B48";
name = "Light Italic";
paths = (
{
closed = 1;
nodes = (
"510 130 LINE",
"115 312 LINE",
"115 304 LINE",
"510 485 LINE",
"510 513 LINE",
"90 317 LINE",
"90 299 LINE",
"510 103 LINE"
);
},
{
closed = 1;
nodes = (
"510 0 LINE",
"510 22 LINE",
"90 22 LINE",
"90 0 LINE"
);
}
);
width = 600;
}
);
leftKerningGroup = lessequal;
rightKerningGroup = lessequal;
unicode = 2264;
},
{
glyphname = logicalnot;
lastChange = "2016-03-13 11:19:36 +0000";
layers = (
{
layerId = "284DCAF7-AB20-402F-AEDF-E1CEEB9773D4";
name = "Regular Italic";
paths = (
{
closed = 1;
nodes = (
"475 210 LINE",
"475 394 LINE",
"100 394 LINE",
"100 328 LINE",
"405 328 LINE",
"405 210 LINE"
);
}
);
width = 600;
},
{
layerId = "005AA5DB-9C20-42D5-964E-7DFE1013E61C";
name = "Bold Italic";
paths = (
{
closed = 1;
nodes = (
"517 210 LINE",
"517 413 LINE",
"100 413 LINE",
"100 309 LINE",
"405 309 LINE",
"405 210 LINE"
);
}
);
width = 600;
},
{
layerId = "D0F50BF8-B137-4291-8B58-E185C78D1B48";
name = "Light Italic";
paths = (
{
closed = 1;
nodes = (
"452 210 LINE",
"452 372 LINE",
"100 372 LINE",
"100 350 LINE",
"428 350 LINE",
"428 210 LINE"
);
}
);
width = 600;
}
);
leftKerningGroup = logicalnot;
rightKerningGroup = logicalnot;
unicode = 00AC;
},
{
glyphname = minus;
lastChange = "2016-03-13 11:19:38 +0000";
layers = (
{
layerId = "284DCAF7-AB20-402F-AEDF-E1CEEB9773D4";
name = "Regular Italic";
paths = (
{
closed = 1;
nodes = (
"500 267 LINE",
"500 333 LINE",
"80 333 LINE",
"80 267 LINE"
);
}
);
width = 600;
},
{
layerId = "005AA5DB-9C20-42D5-964E-7DFE1013E61C";
name = "Bold Italic";
paths = (
{
closed = 1;
nodes = (
"500 248 LINE",
"500 352 LINE",
"80 352 LINE",
"80 248 LINE"
);
}
);
width = 600;
},
{
layerId = "D0F50BF8-B137-4291-8B58-E185C78D1B48";
name = "Light Italic";
paths = (
{
closed = 1;
nodes = (
"500 308 LINE",
"500 330 LINE",
"80 330 LINE",
"80 308 LINE"
);
}
);
width = 600;
}
);
leftKerningGroup = minus;
rightKerningGroup = minus;
unicode = 2212;
},
{
glyphname = multiply;
lastChange = "2016-03-13 11:19:39 +0000";
layers = (
{
layerId = "284DCAF7-AB20-402F-AEDF-E1CEEB9773D4";
name = "Regular Italic";
paths = (
{
closed = 1;
nodes = (
"477 432 LINE",
"428 481 LINE",
"111 164 LINE",
"160 115 LINE"
);
},
{
closed = 1;
nodes = (
"477 164 LINE",
"160 481 LINE",
"111 432 LINE",
"428 115 LINE"
);
}
);
width = 600;
},
{
layerId = "005AA5DB-9C20-42D5-964E-7DFE1013E61C";
name = "Bold Italic";
paths = (
{
closed = 1;
nodes = (
"506 420 LINE",
"428 498 LINE",
"110 180 LINE",
"188 102 LINE"
);
},
{
closed = 1;
nodes = (
"507 180 LINE",
"189 498 LINE",
"111 420 LINE",
"429 102 LINE"
);
}
);
width = 600;
},
{
layerId = "D0F50BF8-B137-4291-8B58-E185C78D1B48";
name = "Light Italic";
paths = (
{
closed = 1;
nodes = (
"445 448 LINE",
"428 465 LINE",
"111 148 LINE",
"128 131 LINE"
);
},
{
closed = 1;
nodes = (
"445 148 LINE",
"128 465 LINE",
"111 448 LINE",
"428 131 LINE"
);
}
);
width = 556;
}
);
leftKerningGroup = multiply;
rightKerningGroup = multiply;
unicode = 00D7;
},
{
glyphname = notequal;
lastChange = "2016-03-13 11:19:41 +0000";
layers = (
{
components = (
{
name = equal;
}
);
layerId = "284DCAF7-AB20-402F-AEDF-E1CEEB9773D4";
name = "Regular Italic";
paths = (
{
closed = 1;
nodes = (
"219 85 LINE",
"449 495 LINE",
"373 495 LINE",
"143 85 LINE"
);
}
);
width = 600;
},
{
components = (
{
name = equal;
}
);
layerId = "005AA5DB-9C20-42D5-964E-7DFE1013E61C";
name = "Bold Italic";
paths = (
{
closed = 1;
nodes = (
"269 55 LINE",
"479 525 LINE",
"353 525 LINE",
"143 55 LINE"
);
}
);
width = 600;
},
{
components = (
{
name = equal;
}
);
layerId = "D0F50BF8-B137-4291-8B58-E185C78D1B48";
name = "Light Italic";
paths = (
{
closed = 1;
nodes = (
"198 85 LINE",
"428 495 LINE",
"404 495 LINE",
"174 85 LINE"
);
}
);
width = 600;
}
);
leftKerningGroup = notequal;
rightKerningGroup = notequal;
unicode = 2260;
},
{
glyphname = partialdiff;
lastChange = "2015-06-30 14:02:59 +0000";
layers = (
{
layerId = "284DCAF7-AB20-402F-AEDF-E1CEEB9773D4";
name = "Regular Italic";
paths = (
{
closed = 1;
nodes = (
"444 -14 OFFCURVE",
"576 209 OFFCURVE",
"576 471 CURVE SMOOTH",
"576 665 OFFCURVE",
"482 758 OFFCURVE",
"331 758 CURVE SMOOTH",
"273 758 OFFCURVE",
"218 741 OFFCURVE",
"167 709 CURVE",
"177 647 LINE",
"228 675 OFFCURVE",
"276 688 OFFCURVE",
"319 688 CURVE SMOOTH",
"421 688 OFFCURVE",
"486 624 OFFCURVE",
"486 470 CURVE SMOOTH",
"486 423 OFFCURVE",
"483 380 OFFCURVE",
"475 342 CURVE",
"467 320 LINE",
"440 143 OFFCURVE",
"350 56 OFFCURVE",
"264 56 CURVE SMOOTH",
"203 56 OFFCURVE",
"150 98 OFFCURVE",
"150 192 CURVE SMOOTH",
"150 308 OFFCURVE",
"203 426 OFFCURVE",
"331 426 CURVE SMOOTH",
"402 426 OFFCURVE",
"473 354 OFFCURVE",
"455 230 CURVE",
"485 318 LINE",
"489 422 OFFCURVE",
"436 492 OFFCURVE",
"325 492 CURVE SMOOTH",
"159 492 OFFCURVE",
"55 347 OFFCURVE",
"55 190 CURVE SMOOTH",
"55 46 OFFCURVE",
"148 -14 OFFCURVE",
"256 -14 CURVE SMOOTH"
);
}
);
width = 642;
},
{
layerId = "005AA5DB-9C20-42D5-964E-7DFE1013E61C";
name = "Bold Italic";
paths = (
{
closed = 1;
nodes = (
"509 -14 OFFCURVE",
"662 194 OFFCURVE",
"662 478 CURVE SMOOTH",
"662 648 OFFCURVE",
"560 758 OFFCURVE",
"382 758 CURVE SMOOTH",
"310 758 OFFCURVE",
"224 733 OFFCURVE",
"165 696 CURVE",
"168 579 LINE",
"213 601 OFFCURVE",
"272 618 OFFCURVE",
"325 618 CURVE SMOOTH",
"412 618 OFFCURVE",
"481 587 OFFCURVE",
"481 475 CURVE SMOOTH",
"481 437 OFFCURVE",
"474 390 OFFCURVE",
"459 331 CURVE",
"446 304 LINE",
"416 161 OFFCURVE",
"360 126 OFFCURVE",
"311 126 CURVE SMOOTH",
"260 126 OFFCURVE",
"233 161 OFFCURVE",
"233 220 CURVE SMOOTH",
"233 294 OFFCURVE",
"277 352 OFFCURVE",
"345 352 CURVE SMOOTH",
"402 352 OFFCURVE",
"435 322 OFFCURVE",
"448 263 CURVE",
"480 339 LINE",
"486 438 OFFCURVE",
"434 492 OFFCURVE",
"317 492 CURVE SMOOTH",
"191 492 OFFCURVE",
"47 392 OFFCURVE",
"47 202 CURVE SMOOTH",
"47 64 OFFCURVE",
"155 -14 OFFCURVE",
"288 -14 CURVE SMOOTH"
);
}
);
width = 689;
},
{
layerId = "D0F50BF8-B137-4291-8B58-E185C78D1B48";
name = "Light Italic";
paths = (
{
closed = 1;
nodes = (
"438 -14 OFFCURVE",
"531 274 OFFCURVE",
"531 518 CURVE SMOOTH",
"531 668 OFFCURVE",
"452 758 OFFCURVE",
"329 758 CURVE SMOOTH",
"280 758 OFFCURVE",
"245 750 OFFCURVE",
"201 729 CURVE",
"205 709 LINE",
"242 727 OFFCURVE",
"278 735 OFFCURVE",
"324 735 CURVE SMOOTH",
"427 735 OFFCURVE",
"507 663 OFFCURVE",
"507 518 CURVE SMOOTH",
"507 450 OFFCURVE",
"501 385 OFFCURVE",
"491 325 CURVE",
"485 308 LINE",
"447 135 OFFCURVE",
"359 9 OFFCURVE",
"228 9 CURVE SMOOTH",
"143 9 OFFCURVE",
"102 73 OFFCURVE",
"102 163 CURVE SMOOTH",
"102 331 OFFCURVE",
"214 448 OFFCURVE",
"329 448 CURVE SMOOTH",
"416 448 OFFCURVE",
"489 383 OFFCURVE",
"481 245 CURVE",
"498 306 LINE",
"483 415 OFFCURVE",
"424 471 OFFCURVE",
"333 471 CURVE SMOOTH",
"196 471 OFFCURVE",
"76 338 OFFCURVE",
"76 163 CURVE SMOOTH",
"76 54 OFFCURVE",
"132 -14 OFFCURVE",
"226 -14 CURVE SMOOTH"
);
}
);
width = 616;
}
);
leftKerningGroup = partialdiff;
rightKerningGroup = partialdiff;
unicode = 2202;
},
